<svg width="61" height="62" viewBox="0 0 61 62" fill="none" xmlns="http://www.w3.org/2000/svg">
<path d="M36.8516 46.5508V56.0208" stroke="#08863A" stroke-width="1.7" stroke-linecap="round" stroke-linejoin="round"/>
<path d="M28.8125 51.5809V46.1309" stroke="#08863A" stroke-width="1.7" stroke-linecap="round" stroke-linejoin="round"/>
<path d="M28.8125 54.4008V56.3108" stroke="#08863A" stroke-width="1.7" stroke-linecap="round" stroke-linejoin="round"/>
<path d="M12.0312 56.3108H51.0014" stroke="#08863A" stroke-width="1.7" stroke-linecap="round" stroke-linejoin="round"/>
<path d="M22.7109 56.3508C22.7432 55.3723 23.0943 54.4312 23.7109 53.6708" stroke="#08863A" stroke-width="1.7" stroke-linecap="round" stroke-linejoin="round"/>
<path d="M21.9191 56.0209C21.9191 56.0209 21.6491 54.7409 21.2891 53.6309" stroke="#08863A" stroke-width="1.7" stroke-linecap="round" stroke-linejoin="round"/>
<path d="M43.4922 56.3508C43.5192 55.3713 43.871 54.4286 44.4922 53.6708" stroke="#08863A" stroke-width="1.7" stroke-linecap="round" stroke-linejoin="round"/>
<path d="M42.7081 56.0209C42.7081 56.0209 42.4381 54.7409 42.0781 53.6309" stroke="#08863A" stroke-width="1.7" stroke-linecap="round" stroke-linejoin="round"/>
<path d="M12.0312 25.8308H16.7213" stroke="#08863A" stroke-width="1.7" stroke-linecap="round" stroke-linejoin="round"/>
<path d="M38.7734 19.3508H41.4934" stroke="#08863A" stroke-width="1.7" stroke-linecap="round" stroke-linejoin="round"/>
<path d="M33.8281 37.3508H36.5481" stroke="#08863A" stroke-width="1.7" stroke-linecap="round" stroke-linejoin="round"/>
<path d="M26.2188 35.2008H34.3488" stroke="#08863A" stroke-width="1.7" stroke-linecap="round" stroke-linejoin="round"/>
<path d="M42.7109 47.8809H46.3409" stroke="#08863A" stroke-width="1.7" stroke-linecap="round" stroke-linejoin="round"/>
<path d="M17.2734 15.4008H24.5234" stroke="#08863A" stroke-width="1.7" stroke-linecap="round" stroke-linejoin="round"/>
<path d="M38.4616 10.8808C38.501 11.3257 38.4741 11.7739 38.3816 12.2108C38.3532 12.3694 38.3605 12.5323 38.4032 12.6876C38.4459 12.8429 38.5227 12.9868 38.6282 13.1085C38.7337 13.2303 38.8651 13.3269 39.0127 13.3913C39.1604 13.4557 39.3206 13.4863 39.4816 13.4808C42.2216 13.4808 44.4816 15.4808 44.4816 17.9308C44.4816 20.3808 42.4816 22.2008 42.8916 22.3808C44.0934 22.8088 45.1381 23.5894 45.8892 24.6206C46.6403 25.6518 47.0628 26.8857 47.1016 28.1608C47.0753 29.3211 46.7264 30.4511 46.0941 31.4242C45.4618 32.3974 44.5711 33.1753 43.5216 33.6708C44.4358 34.2063 45.197 34.9675 45.7328 35.8814C46.2686 36.7954 46.5608 37.8316 46.5816 38.8908C46.5816 42.3908 43.4116 45.2108 39.5116 45.2108C38.9946 45.2124 38.4786 45.1621 37.9716 45.0608C37.4642 45.8292 36.7867 46.4705 35.9917 46.935C35.1967 47.3995 34.3054 47.6748 33.3869 47.7396C32.4683 47.8044 31.5472 47.6569 30.6948 47.3086C29.8425 46.9602 29.0818 46.4204 28.4716 45.7308C27.798 45.9887 27.0828 46.1209 26.3616 46.1208C24.7703 46.1208 23.2441 45.4887 22.1189 44.3635C20.9937 43.2382 20.3616 41.7121 20.3616 40.1208C20.3604 38.9828 20.6867 37.8685 21.3015 36.9108C20.4243 36.3749 19.6995 35.6226 19.1967 34.726C18.6938 33.8295 18.4297 32.8188 18.4297 31.7908C18.4297 30.7629 18.6938 29.7522 19.1967 28.8556C19.6995 27.9591 20.4243 27.2067 21.3015 26.6708C20.7896 25.9749 20.4641 25.1597 20.3557 24.3026C20.2473 23.4455 20.3598 22.575 20.6824 21.7736C21.0049 20.9721 21.5269 20.2664 22.1989 19.7234C22.8708 19.1804 23.6703 18.818 24.5216 18.6708C24.3914 18.2465 24.3272 17.8046 24.3315 17.3608C24.3302 16.7677 24.4459 16.1802 24.672 15.6318C24.8981 15.0835 25.23 14.5851 25.6489 14.1653C26.0679 13.7454 26.5655 13.4123 27.1133 13.1851C27.6611 12.9578 28.2485 12.8408 28.8416 12.8408C29.1301 12.8412 29.4179 12.868 29.7015 12.9208C29.5156 12.4113 29.4208 11.8731 29.4215 11.3308C29.4205 10.3763 29.7223 9.44614 30.2836 8.67411C30.8448 7.90207 31.6366 7.32801 32.5448 7.03453C33.453 6.74105 34.431 6.74328 35.3379 7.04091C36.2448 7.33854 37.0339 7.91622 37.5916 8.6908" stroke="#08863A" stroke-width="1.7" stroke-linecap="round" stroke-linejoin="round"/>
<g clip-path="url(#clip0_5767_16830)">
<path d="M1.07701 9.21075C0.801723 8.9143 0.642157 8.5101 0.664075 8.06864C0.707608 7.18571 1.45941 6.48757 2.3433 6.50927L6.74356 6.61803L6.96 2.22206C7.0037 1.33898 7.7555 0.640839 8.63922 0.662683C9.52295 0.684526 10.2042 1.41809 10.1608 2.30117L9.93141 6.95301C9.89281 7.73886 9.54996 8.47002 8.96635 9.01197C8.38274 9.55393 7.62826 9.8415 6.84169 9.82221L2.18562 9.70713C1.74361 9.6962 1.35245 9.50735 1.07716 9.2109L1.07701 9.21075Z" fill="#08863A"/>
<path d="M1.99589 8.3573C1.93359 8.2902 1.89752 8.19874 1.90245 8.0988C1.9123 7.89891 2.08239 7.74097 2.28246 7.74591L6.93853 7.861C7.20097 7.86748 7.45247 7.77152 7.64706 7.59082C7.84164 7.41012 7.95609 7.16626 7.96886 6.9042L8.19854 2.25207C8.20839 2.05218 8.37848 1.89424 8.57855 1.89918C8.77861 1.90413 8.93273 2.07009 8.92287 2.26997L8.6935 6.92212C8.67104 7.37758 8.47246 7.80126 8.13419 8.11539C7.79591 8.42953 7.35871 8.59625 6.90283 8.58498L2.24678 8.46959C2.14674 8.46712 2.0582 8.42439 1.99589 8.3573Z" fill="#83FC48"/>
</g>
<defs>
<clipPath id="clip0_5767_16830">
<rect width="6.8038" height="11.8327" fill="white" transform="translate(8.67188) rotate(47.1193)"/>
</clipPath>
</defs>
</svg>
