<svg width="59" height="72" viewBox="0 0 59 72" fill="none" xmlns="http://www.w3.org/2000/svg">
<path d="M34.8516 56.5504V66.0204" stroke="#08863A" stroke-width="1.7" stroke-linecap="round" stroke-linejoin="round"/>
<path d="M26.8125 61.5805V56.1305" stroke="#08863A" stroke-width="1.7" stroke-linecap="round" stroke-linejoin="round"/>
<path d="M26.8125 64.4004V66.3104" stroke="#08863A" stroke-width="1.7" stroke-linecap="round" stroke-linejoin="round"/>
<path d="M10.0312 66.3104H49.0014" stroke="#08863A" stroke-width="1.7" stroke-linecap="round" stroke-linejoin="round"/>
<path d="M20.7109 66.3504C20.7432 65.3719 21.0943 64.4308 21.7109 63.6704" stroke="#08863A" stroke-width="1.7" stroke-linecap="round" stroke-linejoin="round"/>
<path d="M19.9191 66.0205C19.9191 66.0205 19.6491 64.7405 19.2891 63.6305" stroke="#08863A" stroke-width="1.7" stroke-linecap="round" stroke-linejoin="round"/>
<path d="M41.4922 66.3504C41.5192 65.3709 41.871 64.4282 42.4922 63.6704" stroke="#08863A" stroke-width="1.7" stroke-linecap="round" stroke-linejoin="round"/>
<path d="M40.7081 66.0205C40.7081 66.0205 40.4381 64.7405 40.0781 63.6305" stroke="#08863A" stroke-width="1.7" stroke-linecap="round" stroke-linejoin="round"/>
<path d="M10.0312 35.8304H14.7213" stroke="#08863A" stroke-width="1.7" stroke-linecap="round" stroke-linejoin="round"/>
<path d="M36.7734 29.3505H39.4934" stroke="#08863A" stroke-width="1.7" stroke-linecap="round" stroke-linejoin="round"/>
<path d="M31.8281 47.3505H34.5481" stroke="#08863A" stroke-width="1.7" stroke-linecap="round" stroke-linejoin="round"/>
<path d="M24.2188 45.2004H32.3488" stroke="#08863A" stroke-width="1.7" stroke-linecap="round" stroke-linejoin="round"/>
<path d="M40.7109 57.8805H44.3409" stroke="#08863A" stroke-width="1.7" stroke-linecap="round" stroke-linejoin="round"/>
<path d="M15.2734 25.4004H22.5234" stroke="#08863A" stroke-width="1.7" stroke-linecap="round" stroke-linejoin="round"/>
<path d="M36.4616 20.8804C36.501 21.3253 36.4741 21.7735 36.3816 22.2104C36.3532 22.369 36.3605 22.5319 36.4032 22.6872C36.4459 22.8426 36.5227 22.9864 36.6282 23.1082C36.7337 23.2299 36.8651 23.3265 37.0127 23.391C37.1604 23.4554 37.3206 23.486 37.4816 23.4804C40.2216 23.4804 42.4816 25.4804 42.4816 27.9304C42.4816 30.3804 40.4816 32.2004 40.8916 32.3804C42.0934 32.8085 43.1381 33.5891 43.8892 34.6203C44.6403 35.6515 45.0628 36.8853 45.1016 38.1604C45.0753 39.3207 44.7264 40.4507 44.0941 41.4239C43.4618 42.3971 42.5711 43.175 41.5216 43.6705C42.4358 44.206 43.197 44.9671 43.7328 45.8811C44.2686 46.795 44.5608 47.8312 44.5816 48.8905C44.5816 52.3905 41.4116 55.2105 37.5116 55.2105C36.9946 55.212 36.4786 55.1618 35.9716 55.0605C35.4642 55.8288 34.7867 56.4701 33.9917 56.9346C33.1967 57.3992 32.3054 57.6745 31.3869 57.7393C30.4683 57.804 29.5472 57.6565 28.6948 57.3082C27.8425 56.9599 27.0818 56.42 26.4716 55.7305C25.798 55.9883 25.0828 56.1205 24.3616 56.1205C22.7703 56.1205 21.2441 55.4883 20.1189 54.3631C18.9937 53.2379 18.3616 51.7118 18.3616 50.1205C18.3604 48.9824 18.6867 47.8681 19.3015 46.9105C18.4243 46.3745 17.6995 45.6222 17.1967 44.7257C16.6938 43.8291 16.4297 42.8184 16.4297 41.7904C16.4297 40.7625 16.6938 39.7518 17.1967 38.8552C17.6995 37.9587 18.4243 37.2064 19.3015 36.6704C18.7896 35.9745 18.4641 35.1593 18.3557 34.3023C18.2473 33.4452 18.3598 32.5746 18.6824 31.7732C19.0049 30.9718 19.5269 30.266 20.1989 29.723C20.8708 29.18 21.6703 28.8177 22.5216 28.6704C22.3914 28.2461 22.3272 27.8043 22.3315 27.3604C22.3302 26.7673 22.4459 26.1798 22.672 25.6315C22.8981 25.0831 23.23 24.5848 23.6489 24.1649C24.0679 23.7451 24.5655 23.412 25.1133 23.1847C25.6611 22.9574 26.2485 22.8404 26.8416 22.8404C27.1301 22.8409 27.4179 22.8677 27.7015 22.9204C27.5156 22.411 27.4208 21.8728 27.4215 21.3304C27.4205 20.376 27.7223 19.4458 28.2836 18.6737C28.8448 17.9017 29.6366 17.3276 30.5448 17.0342C31.453 16.7407 32.431 16.7429 33.3379 17.0405C34.2448 17.3382 35.0339 17.9158 35.5916 18.6904" stroke="#08863A" stroke-width="1.7" stroke-linecap="round" stroke-linejoin="round"/>
<path d="M26.0825 1.58077C26.0885 1.17626 26.2527 0.773911 26.5738 0.47012C27.2157 -0.137675 28.2415 -0.122277 28.8651 0.504512L31.969 3.62541L35.1647 0.599067C35.8069 -0.00872524 36.8327 0.00667233 37.4561 0.633459C38.0794 1.26024 38.0644 2.26121 37.4225 2.86922L34.0405 6.07149C33.4693 6.61256 32.7161 6.90376 31.9198 6.8918C31.1234 6.87985 30.3795 6.56597 29.8245 6.00821L26.5402 2.70588C26.2284 2.39238 26.0764 1.98549 26.0825 1.58098L26.0825 1.58077Z" fill="#08863A"/>
<path d="M27.3341 1.5993C27.3355 1.50775 27.3727 1.41673 27.4454 1.34794C27.5907 1.21034 27.8228 1.21382 27.9639 1.35572L31.2482 4.65805C31.4334 4.84418 31.6814 4.94874 31.9469 4.95272C32.2124 4.95671 32.4637 4.85965 32.6541 4.67915L36.0365 1.47689C36.1819 1.33929 36.4139 1.34277 36.5551 1.48467C36.6962 1.62657 36.6928 1.85303 36.5475 1.99062L33.1653 5.1931C32.8342 5.50663 32.3978 5.67544 31.9362 5.66851C31.4746 5.66158 31.0435 5.47976 30.7219 5.15643L27.4378 1.85389C27.3672 1.78294 27.3328 1.69085 27.3341 1.5993Z" fill="#83FC48"/>
</svg>
