<svg width="54" height="58" viewBox="0 0 54 58" fill="none" xmlns="http://www.w3.org/2000/svg">
<path d="M25.8203 46.5508V56.0208" stroke="#08863A" stroke-width="1.7" stroke-linecap="round" stroke-linejoin="round"/>
<path d="M17.7812 51.5809V46.1309" stroke="#08863A" stroke-width="1.7" stroke-linecap="round" stroke-linejoin="round"/>
<path d="M17.7812 54.4008V56.3108" stroke="#08863A" stroke-width="1.7" stroke-linecap="round" stroke-linejoin="round"/>
<path d="M1 56.3108H39.9701" stroke="#08863A" stroke-width="1.7" stroke-linecap="round" stroke-linejoin="round"/>
<path d="M11.6797 56.3508C11.7119 55.3723 12.0631 54.4312 12.6797 53.6708" stroke="#08863A" stroke-width="1.7" stroke-linecap="round" stroke-linejoin="round"/>
<path d="M10.8878 56.0209C10.8878 56.0209 10.6178 54.7409 10.2578 53.6309" stroke="#08863A" stroke-width="1.7" stroke-linecap="round" stroke-linejoin="round"/>
<path d="M32.4609 56.3508C32.488 55.3713 32.8398 54.4286 33.4609 53.6708" stroke="#08863A" stroke-width="1.7" stroke-linecap="round" stroke-linejoin="round"/>
<path d="M31.6769 56.0209C31.6769 56.0209 31.4069 54.7409 31.0469 53.6309" stroke="#08863A" stroke-width="1.7" stroke-linecap="round" stroke-linejoin="round"/>
<path d="M1 25.8308H5.69007" stroke="#08863A" stroke-width="1.7" stroke-linecap="round" stroke-linejoin="round"/>
<path d="M27.7422 19.3508H30.4622" stroke="#08863A" stroke-width="1.7" stroke-linecap="round" stroke-linejoin="round"/>
<path d="M22.7969 37.3508H25.5168" stroke="#08863A" stroke-width="1.7" stroke-linecap="round" stroke-linejoin="round"/>
<path d="M15.1875 35.2008H23.3175" stroke="#08863A" stroke-width="1.7" stroke-linecap="round" stroke-linejoin="round"/>
<path d="M31.6797 47.8809H35.3097" stroke="#08863A" stroke-width="1.7" stroke-linecap="round" stroke-linejoin="round"/>
<path d="M6.24219 15.4008H13.4922" stroke="#08863A" stroke-width="1.7" stroke-linecap="round" stroke-linejoin="round"/>
<path d="M27.4303 10.8808C27.4698 11.3257 27.4429 11.7739 27.3504 12.2108C27.3219 12.3694 27.3293 12.5323 27.372 12.6876C27.4146 12.8429 27.4915 12.9868 27.5969 13.1085C27.7024 13.2303 27.8338 13.3269 27.9815 13.3913C28.1291 13.4557 28.2893 13.4863 28.4503 13.4808C31.1903 13.4808 33.4503 15.4808 33.4503 17.9308C33.4503 20.3808 31.4504 22.2008 31.8604 22.3808C33.0622 22.8088 34.1068 23.5894 34.8579 24.6206C35.609 25.6518 36.0316 26.8857 36.0703 28.1608C36.044 29.3211 35.6952 30.4511 35.0629 31.4242C34.4306 32.3974 33.5398 33.1753 32.4904 33.6708C33.4045 34.2063 34.1658 34.9675 34.7016 35.8814C35.2373 36.7954 35.5296 37.8316 35.5503 38.8908C35.5503 42.3908 32.3804 45.2108 28.4804 45.2108C27.9633 45.2124 27.4474 45.1621 26.9403 45.0608C26.4329 45.8292 25.7555 46.4705 24.9605 46.935C24.1654 47.3995 23.2741 47.6748 22.3556 47.7396C21.4371 47.8044 20.5159 47.6569 19.6636 47.3086C18.8112 46.9602 18.0505 46.4204 17.4403 45.7308C16.7667 45.9887 16.0516 46.1209 15.3303 46.1208C13.739 46.1208 12.2129 45.4887 11.0876 44.3635C9.96243 43.2382 9.33032 41.7121 9.33032 40.1208C9.32915 38.9828 9.65541 37.8685 10.2703 36.9108C9.39308 36.3749 8.66828 35.6226 8.16541 34.726C7.66253 33.8295 7.39844 32.8188 7.39844 31.7908C7.39844 30.7629 7.66253 29.7522 8.16541 28.8556C8.66828 27.9591 9.39308 27.2067 10.2703 26.6708C9.75836 25.9749 9.43284 25.1597 9.32446 24.3026C9.21609 23.4455 9.32855 22.575 9.65112 21.7736C9.9737 20.9721 10.4957 20.2664 11.1676 19.7234C11.8395 19.1804 12.6391 18.818 13.4904 18.6708C13.3601 18.2465 13.296 17.8046 13.3003 17.3608C13.299 16.7677 13.4147 16.1802 13.6408 15.6318C13.8668 15.0835 14.1988 14.5851 14.6177 14.1653C15.0366 13.7454 15.5342 13.4123 16.082 13.1851C16.6299 12.9578 17.2172 12.8408 17.8103 12.8408C18.0988 12.8412 18.3867 12.868 18.6703 12.9208C18.4844 12.4113 18.3896 11.8731 18.3903 11.3308C18.3893 10.3763 18.6911 9.44614 19.2523 8.67411C19.8136 7.90207 20.6053 7.32801 21.5136 7.03453C22.4218 6.74105 23.3998 6.74328 24.3067 7.04091C25.2135 7.33854 26.0026 7.91622 26.5603 8.6908" stroke="#08863A" stroke-width="1.7" stroke-linecap="round" stroke-linejoin="round"/>
<path d="M43.5863 1.14072C43.8664 0.848804 44.2607 0.666218 44.7027 0.662668C45.5867 0.655266 46.3269 1.3656 46.3562 2.24927L46.5011 6.64849L50.9023 6.61133C51.7864 6.60408 52.5267 7.31442 52.5558 8.19793C52.5849 9.08145 51.8918 9.80379 51.0077 9.81134L46.3503 9.85034C45.5636 9.85708 44.8139 9.55692 44.2392 9.0055C43.6645 8.45408 43.334 7.71742 43.3079 6.93105L43.1546 2.27608C43.14 1.83417 43.306 1.43278 43.5861 1.14087L43.5863 1.14072Z" fill="#08863A"/>
<path d="M44.4921 2.0086C44.5554 1.94254 44.6447 1.90126 44.7447 1.90042C44.9449 1.89875 45.1123 2.05945 45.1189 2.25947L45.2723 6.91444C45.2809 7.17682 45.3912 7.42237 45.5828 7.60623C45.7744 7.79008 46.0245 7.89029 46.2868 7.88794L50.9445 7.84924C51.1446 7.84756 51.3121 8.00827 51.3187 8.20829C51.3252 8.40831 51.1684 8.57173 50.9683 8.5734L46.3107 8.61241C45.8547 8.61622 45.4203 8.44239 45.0872 8.12277C44.7541 7.80315 44.5624 7.37628 44.5474 6.92051L44.3944 2.26554C44.3911 2.16553 44.4287 2.07467 44.4921 2.0086Z" fill="#83FC48"/>
</svg>
