<svg width="63" height="63" viewBox="0 0 63 63" fill="none" xmlns="http://www.w3.org/2000/svg">
<path d="M34.8516 43.5508V53.0208" stroke="#08863A" stroke-width="1.7" stroke-linecap="round" stroke-linejoin="round"/>
<path d="M26.8125 48.5809V43.1309" stroke="#08863A" stroke-width="1.7" stroke-linecap="round" stroke-linejoin="round"/>
<path d="M26.8125 51.4008V53.3108" stroke="#08863A" stroke-width="1.7" stroke-linecap="round" stroke-linejoin="round"/>
<path d="M10.0312 53.3108H49.0014" stroke="#08863A" stroke-width="1.7" stroke-linecap="round" stroke-linejoin="round"/>
<path d="M20.7109 53.3508C20.7432 52.3723 21.0943 51.4312 21.7109 50.6708" stroke="#08863A" stroke-width="1.7" stroke-linecap="round" stroke-linejoin="round"/>
<path d="M19.9191 53.0209C19.9191 53.0209 19.6491 51.7409 19.2891 50.6309" stroke="#08863A" stroke-width="1.7" stroke-linecap="round" stroke-linejoin="round"/>
<path d="M41.4922 53.3508C41.5192 52.3713 41.871 51.4286 42.4922 50.6708" stroke="#08863A" stroke-width="1.7" stroke-linecap="round" stroke-linejoin="round"/>
<path d="M40.7081 53.0209C40.7081 53.0209 40.4381 51.7409 40.0781 50.6309" stroke="#08863A" stroke-width="1.7" stroke-linecap="round" stroke-linejoin="round"/>
<path d="M10.0312 22.8308H14.7213" stroke="#08863A" stroke-width="1.7" stroke-linecap="round" stroke-linejoin="round"/>
<path d="M36.7734 16.3508H39.4934" stroke="#08863A" stroke-width="1.7" stroke-linecap="round" stroke-linejoin="round"/>
<path d="M31.8281 34.3508H34.5481" stroke="#08863A" stroke-width="1.7" stroke-linecap="round" stroke-linejoin="round"/>
<path d="M24.2188 32.2008H32.3488" stroke="#08863A" stroke-width="1.7" stroke-linecap="round" stroke-linejoin="round"/>
<path d="M40.7109 44.8809H44.3409" stroke="#08863A" stroke-width="1.7" stroke-linecap="round" stroke-linejoin="round"/>
<path d="M15.2734 12.4008H22.5234" stroke="#08863A" stroke-width="1.7" stroke-linecap="round" stroke-linejoin="round"/>
<path d="M36.4616 7.88081C36.501 8.32565 36.4741 8.7739 36.3816 9.21081C36.3532 9.36937 36.3605 9.53228 36.4032 9.68761C36.4459 9.84294 36.5227 9.98675 36.6282 10.1085C36.7337 10.2303 36.8651 10.3269 37.0127 10.3913C37.1604 10.4557 37.3206 10.4863 37.4816 10.4808C40.2216 10.4808 42.4816 12.4808 42.4816 14.9308C42.4816 17.3808 40.4816 19.2008 40.8916 19.3808C42.0934 19.8088 43.1381 20.5894 43.8892 21.6206C44.6403 22.6518 45.0628 23.8857 45.1016 25.1608C45.0753 26.3211 44.7264 27.4511 44.0941 28.4242C43.4618 29.3974 42.5711 30.1753 41.5216 30.6708C42.4358 31.2063 43.197 31.9675 43.7328 32.8814C44.2686 33.7954 44.5608 34.8316 44.5816 35.8908C44.5816 39.3908 41.4116 42.2108 37.5116 42.2108C36.9946 42.2124 36.4786 42.1621 35.9716 42.0608C35.4642 42.8292 34.7867 43.4705 33.9917 43.935C33.1967 44.3995 32.3054 44.6748 31.3869 44.7396C30.4683 44.8044 29.5472 44.6569 28.6948 44.3086C27.8425 43.9602 27.0818 43.4204 26.4716 42.7308C25.798 42.9887 25.0828 43.1209 24.3616 43.1208C22.7703 43.1208 21.2441 42.4887 20.1189 41.3635C18.9937 40.2382 18.3616 38.7121 18.3616 37.1208C18.3604 35.9828 18.6867 34.8685 19.3015 33.9108C18.4243 33.3749 17.6995 32.6226 17.1967 31.726C16.6938 30.8295 16.4297 29.8188 16.4297 28.7908C16.4297 27.7629 16.6938 26.7522 17.1967 25.8556C17.6995 24.9591 18.4243 24.2067 19.3015 23.6708C18.7896 22.9749 18.4641 22.1597 18.3557 21.3026C18.2473 20.4455 18.3598 19.575 18.6824 18.7736C19.0049 17.9721 19.5269 17.2664 20.1989 16.7234C20.8708 16.1804 21.6703 15.818 22.5216 15.6708C22.3914 15.2465 22.3272 14.8046 22.3315 14.3608C22.3302 13.7677 22.4459 13.1802 22.672 12.6318C22.8981 12.0835 23.23 11.5851 23.6489 11.1653C24.0679 10.7454 24.5655 10.4123 25.1133 10.1851C25.6611 9.95779 26.2485 9.8408 26.8416 9.84081C27.1301 9.84124 27.4179 9.86802 27.7015 9.92081C27.5156 9.41135 27.4208 8.87313 27.4215 8.3308C27.4205 7.37633 27.7223 6.44614 28.2836 5.67411C28.8448 4.90207 29.6366 4.32801 30.5448 4.03453C31.453 3.74105 32.431 3.74328 33.3379 4.04091C34.2448 4.33854 35.0339 4.91622 35.5916 5.6908" stroke="#08863A" stroke-width="1.7" stroke-linecap="round" stroke-linejoin="round"/>
<g clip-path="url(#clip0_5767_16822)">
<path d="M61.0578 52.6882C61.3442 52.9739 61.5191 53.3717 61.5141 53.8137C61.5043 54.6977 60.7797 55.424 59.8956 55.4361L55.4944 55.4955L55.4461 59.8965C55.4361 60.7806 54.7116 61.507 53.8276 61.5189C52.9437 61.5309 52.235 60.8239 52.2446 59.9398L52.2961 55.2826C52.3047 54.4958 52.6193 53.7521 53.1818 53.1882C53.7443 52.6244 54.4872 52.3082 55.274 52.2974L59.931 52.2346C60.3731 52.2286 60.7712 52.4024 61.0576 52.6881L61.0578 52.6882Z" fill="#08863A"/>
<path d="M60.1687 53.5761C60.2336 53.6407 60.2731 53.7308 60.272 53.8308C60.2698 54.0309 60.1059 54.1953 59.9057 54.198L55.2487 54.2608C54.9862 54.2644 54.7385 54.3699 54.551 54.5579C54.3634 54.7459 54.2584 54.9939 54.2556 55.2563L54.2038 59.9138C54.2016 60.1139 54.0377 60.2782 53.8376 60.2809C53.6375 60.2836 53.4771 60.1237 53.4794 59.9236L53.5309 55.2661C53.5359 54.8101 53.7181 54.3791 54.0442 54.0523C54.3702 53.7255 54.8007 53.5422 55.2567 53.536L59.9138 53.4735C60.0138 53.4721 60.1039 53.5114 60.1687 53.5761Z" fill="#83FC48"/>
</g>
<defs>
<clipPath id="clip0_5767_16822">
<rect width="6.8038" height="11.8327" fill="white" transform="translate(53.8203 62.1824) rotate(-135.07)"/>
</clipPath>
</defs>
</svg>
