<svg width="61" height="63" viewBox="0 0 61 63" fill="none" xmlns="http://www.w3.org/2000/svg">
<path d="M36.8516 43.5508V53.0208" stroke="#08863A" stroke-width="1.7" stroke-linecap="round" stroke-linejoin="round"/>
<path d="M28.8125 48.5809V43.1309" stroke="#08863A" stroke-width="1.7" stroke-linecap="round" stroke-linejoin="round"/>
<path d="M28.8125 51.4008V53.3108" stroke="#08863A" stroke-width="1.7" stroke-linecap="round" stroke-linejoin="round"/>
<path d="M12.0312 53.3108H51.0014" stroke="#08863A" stroke-width="1.7" stroke-linecap="round" stroke-linejoin="round"/>
<path d="M22.7109 53.3508C22.7432 52.3723 23.0943 51.4312 23.7109 50.6708" stroke="#08863A" stroke-width="1.7" stroke-linecap="round" stroke-linejoin="round"/>
<path d="M21.9191 53.0209C21.9191 53.0209 21.6491 51.7409 21.2891 50.6309" stroke="#08863A" stroke-width="1.7" stroke-linecap="round" stroke-linejoin="round"/>
<path d="M43.4922 53.3508C43.5192 52.3713 43.871 51.4286 44.4922 50.6708" stroke="#08863A" stroke-width="1.7" stroke-linecap="round" stroke-linejoin="round"/>
<path d="M42.7081 53.0209C42.7081 53.0209 42.4381 51.7409 42.0781 50.6309" stroke="#08863A" stroke-width="1.7" stroke-linecap="round" stroke-linejoin="round"/>
<path d="M12.0312 22.8308H16.7213" stroke="#08863A" stroke-width="1.7" stroke-linecap="round" stroke-linejoin="round"/>
<path d="M38.7734 16.3508H41.4934" stroke="#08863A" stroke-width="1.7" stroke-linecap="round" stroke-linejoin="round"/>
<path d="M33.8281 34.3508H36.5481" stroke="#08863A" stroke-width="1.7" stroke-linecap="round" stroke-linejoin="round"/>
<path d="M26.2188 32.2008H34.3488" stroke="#08863A" stroke-width="1.7" stroke-linecap="round" stroke-linejoin="round"/>
<path d="M42.7109 44.8809H46.3409" stroke="#08863A" stroke-width="1.7" stroke-linecap="round" stroke-linejoin="round"/>
<path d="M17.2734 12.4008H24.5234" stroke="#08863A" stroke-width="1.7" stroke-linecap="round" stroke-linejoin="round"/>
<path d="M38.4616 7.88081C38.501 8.32565 38.4741 8.7739 38.3816 9.21081C38.3532 9.36937 38.3605 9.53228 38.4032 9.68761C38.4459 9.84294 38.5227 9.98675 38.6282 10.1085C38.7337 10.2303 38.8651 10.3269 39.0127 10.3913C39.1604 10.4557 39.3206 10.4863 39.4816 10.4808C42.2216 10.4808 44.4816 12.4808 44.4816 14.9308C44.4816 17.3808 42.4816 19.2008 42.8916 19.3808C44.0934 19.8088 45.1381 20.5894 45.8892 21.6206C46.6403 22.6518 47.0628 23.8857 47.1016 25.1608C47.0753 26.3211 46.7264 27.4511 46.0941 28.4242C45.4618 29.3974 44.5711 30.1753 43.5216 30.6708C44.4358 31.2063 45.197 31.9675 45.7328 32.8814C46.2686 33.7954 46.5608 34.8316 46.5816 35.8908C46.5816 39.3908 43.4116 42.2108 39.5116 42.2108C38.9946 42.2124 38.4786 42.1621 37.9716 42.0608C37.4642 42.8292 36.7867 43.4705 35.9917 43.935C35.1967 44.3995 34.3054 44.6748 33.3869 44.7396C32.4683 44.8044 31.5472 44.6569 30.6948 44.3086C29.8425 43.9602 29.0818 43.4204 28.4716 42.7308C27.798 42.9887 27.0828 43.1209 26.3616 43.1208C24.7703 43.1208 23.2441 42.4887 22.1189 41.3635C20.9937 40.2382 20.3616 38.7121 20.3616 37.1208C20.3604 35.9828 20.6867 34.8685 21.3015 33.9108C20.4243 33.3749 19.6995 32.6226 19.1967 31.726C18.6938 30.8295 18.4297 29.8188 18.4297 28.7908C18.4297 27.7629 18.6938 26.7522 19.1967 25.8556C19.6995 24.9591 20.4243 24.2067 21.3015 23.6708C20.7896 22.9749 20.4641 22.1597 20.3557 21.3026C20.2473 20.4455 20.3598 19.575 20.6824 18.7736C21.0049 17.9721 21.5269 17.2664 22.1989 16.7234C22.8708 16.1804 23.6703 15.818 24.5216 15.6708C24.3914 15.2465 24.3272 14.8046 24.3315 14.3608C24.3302 13.7677 24.4459 13.1802 24.672 12.6318C24.8981 12.0835 25.23 11.5851 25.6489 11.1653C26.0679 10.7454 26.5655 10.4123 27.1133 10.1851C27.6611 9.95779 28.2485 9.8408 28.8416 9.84081C29.1301 9.84124 29.4179 9.86802 29.7015 9.92081C29.5156 9.41135 29.4208 8.87313 29.4215 8.3308C29.4205 7.37633 29.7223 6.44614 30.2836 5.67411C30.8448 4.90207 31.6366 4.32801 32.5448 4.03453C33.453 3.74105 34.431 3.74328 35.3379 4.04091C36.2448 4.33854 37.0339 4.91622 37.5916 5.6908" stroke="#08863A" stroke-width="1.7" stroke-linecap="round" stroke-linejoin="round"/>
<g clip-path="url(#clip0_5767_16826)">
<path d="M9.60328 60.9383C9.31881 61.226 8.92177 61.4026 8.47978 61.3995C7.5958 61.3936 6.86629 60.6722 6.85035 59.7881L6.77174 55.3872L2.37054 55.3581C1.4864 55.352 0.756897 54.6306 0.741109 53.7467C0.725321 52.8629 1.42923 52.1511 2.31335 52.1568L6.97074 52.188C7.75752 52.1931 8.50261 52.5046 9.06891 53.0646C9.63521 53.6246 9.95464 54.3661 9.96884 55.1528L10.052 59.8096C10.0599 60.2517 9.88789 60.6505 9.60343 60.9382L9.60328 60.9383Z" fill="#08863A"/>
<path d="M8.71064 60.0569C8.64626 60.122 8.55642 60.1619 8.45635 60.1612C8.25623 60.1599 8.09119 59.9967 8.08761 59.7966L8.00443 55.1398C7.99974 54.8774 7.89317 54.6302 7.70435 54.4434C7.51553 54.2567 7.26701 54.1528 7.00465 54.1512L2.34696 54.1197C2.14684 54.1183 1.98179 53.9551 1.97822 53.755C1.97464 53.5549 2.1339 53.3939 2.33402 53.3952L6.99171 53.4264C7.44771 53.4295 7.87946 53.6098 8.20771 53.9344C8.53596 54.259 8.72113 54.6887 8.72927 55.1447L8.81215 59.8014C8.81394 59.9015 8.77502 59.9918 8.71064 60.0569Z" fill="#83FC48"/>
</g>
<defs>
<clipPath id="clip0_5767_16826">
<rect width="6.8038" height="11.8327" fill="white" transform="translate(0.078125 53.7423) rotate(-45.3199)"/>
</clipPath>
</defs>
</svg>
