<svg width="69" height="59" viewBox="0 0 69 59" fill="none" xmlns="http://www.w3.org/2000/svg">
<path d="M44.8125 43.5508V53.0208" stroke="#08863A" stroke-width="1.7" stroke-linecap="round" stroke-linejoin="round"/>
<path d="M36.7734 48.5809V43.1309" stroke="#08863A" stroke-width="1.7" stroke-linecap="round" stroke-linejoin="round"/>
<path d="M36.7734 51.4008V53.3108" stroke="#08863A" stroke-width="1.7" stroke-linecap="round" stroke-linejoin="round"/>
<path d="M19.9922 53.3108H58.9623" stroke="#08863A" stroke-width="1.7" stroke-linecap="round" stroke-linejoin="round"/>
<path d="M30.6719 53.3508C30.7041 52.3723 31.0553 51.4312 31.6719 50.6708" stroke="#08863A" stroke-width="1.7" stroke-linecap="round" stroke-linejoin="round"/>
<path d="M29.88 53.0209C29.88 53.0209 29.61 51.7409 29.25 50.6309" stroke="#08863A" stroke-width="1.7" stroke-linecap="round" stroke-linejoin="round"/>
<path d="M51.4531 53.3508C51.4802 52.3713 51.8319 51.4286 52.4531 50.6708" stroke="#08863A" stroke-width="1.7" stroke-linecap="round" stroke-linejoin="round"/>
<path d="M50.6691 53.0209C50.6691 53.0209 50.3991 51.7409 50.0391 50.6309" stroke="#08863A" stroke-width="1.7" stroke-linecap="round" stroke-linejoin="round"/>
<path d="M19.9922 22.8308H24.6823" stroke="#08863A" stroke-width="1.7" stroke-linecap="round" stroke-linejoin="round"/>
<path d="M46.7344 16.3508H49.4543" stroke="#08863A" stroke-width="1.7" stroke-linecap="round" stroke-linejoin="round"/>
<path d="M41.7891 34.3508H44.509" stroke="#08863A" stroke-width="1.7" stroke-linecap="round" stroke-linejoin="round"/>
<path d="M34.1797 32.2008H42.3097" stroke="#08863A" stroke-width="1.7" stroke-linecap="round" stroke-linejoin="round"/>
<path d="M50.6719 44.8809H54.3019" stroke="#08863A" stroke-width="1.7" stroke-linecap="round" stroke-linejoin="round"/>
<path d="M25.2344 12.4008H32.4844" stroke="#08863A" stroke-width="1.7" stroke-linecap="round" stroke-linejoin="round"/>
<path d="M46.4225 7.88081C46.462 8.32565 46.4351 8.7739 46.3425 9.21081C46.3141 9.36937 46.3215 9.53228 46.3642 9.68761C46.4068 9.84294 46.4837 9.98675 46.5891 10.1085C46.6946 10.2303 46.826 10.3269 46.9736 10.3913C47.1213 10.4557 47.2815 10.4863 47.4425 10.4808C50.1825 10.4808 52.4425 12.4808 52.4425 14.9308C52.4425 17.3808 50.4426 19.2008 50.8526 19.3808C52.0544 19.8088 53.099 20.5894 53.8501 21.6206C54.6012 22.6518 55.0238 23.8857 55.0625 25.1608C55.0362 26.3211 54.6874 27.4511 54.0551 28.4242C53.4228 29.3974 52.532 30.1753 51.4826 30.6708C52.3967 31.2063 53.158 31.9675 53.6937 32.8814C54.2295 33.7954 54.5218 34.8316 54.5425 35.8908C54.5425 39.3908 51.3726 42.2108 47.4725 42.2108C46.9555 42.2124 46.4395 42.1621 45.9325 42.0608C45.4251 42.8292 44.7477 43.4705 43.9526 43.935C43.1576 44.3995 42.2663 44.6748 41.3478 44.7396C40.4293 44.8044 39.5081 44.6569 38.6558 44.3086C37.8034 43.9602 37.0427 43.4204 36.4325 42.7308C35.7589 42.9887 35.0438 43.1209 34.3225 43.1208C32.7312 43.1208 31.2051 42.4887 30.0798 41.3635C28.9546 40.2382 28.3225 38.7121 28.3225 37.1208C28.3213 35.9828 28.6476 34.8685 29.2625 33.9108C28.3853 33.3749 27.6605 32.6226 27.1576 31.726C26.6547 30.8295 26.3906 29.8188 26.3906 28.7908C26.3906 27.7629 26.6547 26.7522 27.1576 25.8556C27.6605 24.9591 28.3853 24.2067 29.2625 23.6708C28.7506 22.9749 28.425 22.1597 28.3167 21.3026C28.2083 20.4455 28.3207 19.575 28.6433 18.7736C28.9659 17.9721 29.4879 17.2664 30.1598 16.7234C30.8317 16.1804 31.6313 15.818 32.4825 15.6708C32.3523 15.2465 32.2881 14.8046 32.2925 14.3608C32.2912 13.7677 32.4069 13.1802 32.6329 12.6318C32.859 12.0835 33.1909 11.5851 33.6099 11.1653C34.0288 10.7454 34.5264 10.4123 35.0742 10.1851C35.6221 9.95779 36.2094 9.8408 36.8025 9.84081C37.091 9.84124 37.3788 9.86802 37.6625 9.92081C37.4766 9.41135 37.3817 8.87313 37.3825 8.3308C37.3814 7.37633 37.6833 6.44614 38.2445 5.67411C38.8058 4.90207 39.5975 4.32801 40.5057 4.03453C41.414 3.74105 42.392 3.74328 43.2988 4.04091C44.2057 4.33854 44.9948 4.91622 45.5525 5.6908" stroke="#08863A" stroke-width="1.7" stroke-linecap="round" stroke-linejoin="round"/>
<g clip-path="url(#clip0_5773_16817)">
<path d="M1.58189 34.848C1.17735 34.844 0.774157 34.6819 0.468704 34.3624C-0.142417 33.7237 -0.132347 32.6978 0.491196 32.0709L3.59593 28.9509L0.553035 25.7709C-0.058083 25.132 -0.0480129 24.106 0.575528 23.4794C1.19907 22.8528 2.2001 22.8626 2.81143 23.5014L6.03122 26.8667C6.57525 27.4351 6.87036 28.1868 6.86254 28.9832C6.85472 29.7796 6.54471 30.5251 5.98983 31.0829L2.70461 34.3844C2.39273 34.6978 1.98664 34.8519 1.5821 34.848L1.58189 34.848Z" fill="#08863A"/>
<path d="M1.5944 33.5942C1.50285 33.5933 1.41164 33.5566 1.34246 33.4843C1.20411 33.3397 1.20639 33.1075 1.34755 32.9657L4.63278 29.6642C4.81795 29.4782 4.92122 29.2296 4.92383 28.964C4.92643 28.6985 4.82807 28.4477 4.64658 28.2582L1.4268 24.8925C1.28845 24.7479 1.29073 24.5158 1.43189 24.374C1.57305 24.2321 1.79953 24.2343 1.93788 24.3789L5.15787 27.7444C5.47312 28.0739 5.64419 28.5094 5.63966 28.9711C5.63513 29.4327 5.45554 29.8648 5.13389 30.188L1.84845 33.4892C1.77787 33.5602 1.68596 33.5951 1.5944 33.5942Z" fill="#83FC48"/>
</g>
<defs>
<clipPath id="clip0_5773_16817">
<rect width="6.8038" height="11.8327" fill="white" transform="translate(0.117188 23) rotate(0.562379)"/>
</clipPath>
</defs>
</svg>
