<svg width="58" height="59" viewBox="0 0 58 59" fill="none" xmlns="http://www.w3.org/2000/svg">
<path d="M42.2578 47.4567V56.6601" stroke="#A9612D" stroke-width="1.7" stroke-linecap="round" stroke-linejoin="round"/>
<path d="M34.4609 52.34V47.3888" stroke="#A9612D" stroke-width="1.7" stroke-linecap="round" stroke-linejoin="round"/>
<path d="M34.4609 55.0778V56.932" stroke="#A9612D" stroke-width="1.7" stroke-linecap="round" stroke-linejoin="round"/>
<path d="M18.1641 56.932H55.9973" stroke="#A9612D" stroke-width="1.7" stroke-linecap="round" stroke-linejoin="round"/>
<path d="M47.6785 56.9321C47.1701 55.9567 46.9864 54.8445 47.1542 53.7574" stroke="#A9612D" stroke-width="1.7" stroke-linecap="round" stroke-linejoin="round"/>
<path d="M48.1328 56.9321C48.359 55.7744 49.0323 54.7524 50.0066 54.0875" stroke="#A9612D" stroke-width="1.7" stroke-linecap="round" stroke-linejoin="round"/>
<path d="M28.5361 56.932C28.407 56.3791 28.4289 55.8017 28.5997 55.2602C28.7705 54.7188 29.0839 54.2332 29.5069 53.8545" stroke="#A9612D" stroke-width="1.7" stroke-linecap="round" stroke-linejoin="round"/>
<path d="M27.7649 56.602C27.313 56.2473 27.0175 55.7301 26.9413 55.1607C26.8652 54.5913 27.0143 54.0146 27.3571 53.5536" stroke="#A9612D" stroke-width="1.7" stroke-linecap="round" stroke-linejoin="round"/>
<path d="M32.1479 30.341C32.2042 29.8358 32.4564 29.3728 32.8503 29.0516C33.2442 28.7303 33.7484 28.5763 34.2546 28.6226M34.2546 34.4476H25.4297H34.4973C36.439 34.4476 37.9729 33.0981 37.9729 31.5351C37.9729 29.972 36.3516 28.6226 34.3614 28.6226H34.2934" stroke="#A9612D" stroke-width="1.7" stroke-linecap="round" stroke-linejoin="round"/>
<path d="M29.7162 40.5154C29.7149 40.6552 29.7413 40.7938 29.7939 40.9233C29.8465 41.0528 29.9242 41.1706 30.0226 41.2699C30.121 41.3692 30.2381 41.448 30.3671 41.5018C30.4962 41.5556 30.6345 41.5833 30.7743 41.5833C31.2558 41.5923 31.7211 41.4097 32.068 41.0756C32.4148 40.7415 32.6148 40.2833 32.6238 39.8018C32.6328 39.3203 32.4502 38.855 32.1161 38.5082C31.782 38.1613 31.3238 37.9614 30.8424 37.9524H22.0078" stroke="#A9612D" stroke-width="1.7" stroke-linecap="round" stroke-linejoin="round"/>
<path d="M18.1641 27.3411H22.7173" stroke="#A9612D" stroke-width="1.7" stroke-linecap="round" stroke-linejoin="round"/>
<path d="M23.0156 17.2251H30.0639" stroke="#A9612D" stroke-width="1.7" stroke-linecap="round" stroke-linejoin="round"/>
<path d="M45.3489 12.9922C46.0091 14.9339 44.1549 15.3513 44.8151 15.3513C47.3198 15.7591 49.9702 18.7298 49.6692 21.0792C49.2809 23.6616 46.9897 23.8849 47.4265 24.0694C48.6307 24.6249 49.6548 25.5072 50.3825 26.6159C51.1102 27.7246 51.5122 29.0152 51.5429 30.341C51.5429 32.6321 49.5041 33.933 47.4265 34.9815C49.2226 36.098 51.1739 38.4183 51.1739 40.5153C51.1739 43.9132 48.6595 46.1655 44.8635 46.1655C44.3616 46.1666 43.8608 46.1178 43.3685 46.0199C42.8379 46.8221 42.1169 47.4805 41.2698 47.9362C40.4228 48.3919 39.4762 48.6307 38.5144 48.6314C37.6171 48.6443 36.7262 48.4793 35.8931 48.1461C35.0599 47.8128 34.3011 47.3179 33.6602 46.6898C32.9975 46.9074 32.3084 47.0348 31.6117 47.0684C27.3691 47.4762 25.3498 44.3792 25.3498 41.1657C25.5046 40.0489 25.9725 38.9987 26.6993 38.1367C25.0392 37.1659 24.3984 35.2243 24.3984 33.1661C24.3976 32.1657 24.6544 31.182 25.1441 30.3097C25.6338 29.4374 26.34 28.7059 27.1944 28.1857C26.6946 27.5102 26.3763 26.7178 26.2702 25.8842C26.164 25.0507 26.2735 24.2038 26.5881 23.4246C26.9027 22.6454 27.412 21.9599 28.0671 21.4337C28.7223 20.9075 29.5015 20.5582 30.3302 20.4191C30.2013 20.0041 30.1359 19.5721 30.1361 19.1376C30.1361 17.9738 30.5984 16.8576 31.4213 16.0347C32.2443 15.2117 33.3603 14.7494 34.5241 14.7494C35.0733 14.7682 35.6211 14.8168 36.1649 14.895C36.1649 14.3805 36.8639 9.45838 41.9026 9.92438C43.0583 10.1206 44.098 10.7444 44.8151 11.6719" stroke="#A9612D" stroke-width="1.7" stroke-linecap="round" stroke-linejoin="round"/>
<path d="M6.07701 11.2107C5.80172 10.9143 5.64216 10.5101 5.66408 10.0686C5.70761 9.18571 6.45941 8.48757 7.3433 8.50927L11.7436 8.61803L11.96 4.22206C12.0037 3.33898 12.7555 2.64084 13.6392 2.66268C14.523 2.68453 15.2042 3.41809 15.1608 4.30117L14.9314 8.95301C14.8928 9.73886 14.55 10.47 13.9663 11.012C13.3827 11.5539 12.6283 11.8415 11.8417 11.8222L7.18562 11.7071C6.74361 11.6962 6.35245 11.5074 6.07716 11.2109L6.07701 11.2107Z" fill="#A9612D"/>
<path d="M6.99589 10.3573C6.93359 10.2902 6.89752 10.1987 6.90245 10.0988C6.9123 9.89891 7.08239 9.74097 7.28246 9.74591L11.9385 9.861C12.201 9.86748 12.4525 9.77152 12.6471 9.59082C12.8416 9.41012 12.9561 9.16626 12.9689 8.9042L13.1985 4.25207C13.2084 4.05218 13.3785 3.89424 13.5785 3.89918C13.7786 3.90413 13.9327 4.07009 13.9229 4.26997L13.6935 8.92212C13.671 9.37758 13.4725 9.80126 13.1342 10.1154C12.7959 10.4295 12.3587 10.5962 11.9028 10.585L7.24678 10.4696C7.14674 10.4671 7.0582 10.4244 6.99589 10.3573Z" fill="#FFF22E"/>
</svg>
