<svg width="41" height="65" viewBox="0 0 41 65" fill="none" xmlns="http://www.w3.org/2000/svg">
<path d="M25.2578 53.4567V62.6601" stroke="#A9612D" stroke-width="1.7" stroke-linecap="round" stroke-linejoin="round"/>
<path d="M17.4609 58.34V53.3888" stroke="#A9612D" stroke-width="1.7" stroke-linecap="round" stroke-linejoin="round"/>
<path d="M17.4609 61.0778V62.932" stroke="#A9612D" stroke-width="1.7" stroke-linecap="round" stroke-linejoin="round"/>
<path d="M1.16406 62.932H38.9973" stroke="#A9612D" stroke-width="1.7" stroke-linecap="round" stroke-linejoin="round"/>
<path d="M30.6785 62.9321C30.1701 61.9567 29.9864 60.8445 30.1542 59.7574" stroke="#A9612D" stroke-width="1.7" stroke-linecap="round" stroke-linejoin="round"/>
<path d="M31.1328 62.9321C31.359 61.7744 32.0323 60.7524 33.0066 60.0875" stroke="#A9612D" stroke-width="1.7" stroke-linecap="round" stroke-linejoin="round"/>
<path d="M11.5361 62.932C11.407 62.3791 11.4289 61.8017 11.5997 61.2602C11.7705 60.7188 12.0839 60.2332 12.5069 59.8545" stroke="#A9612D" stroke-width="1.7" stroke-linecap="round" stroke-linejoin="round"/>
<path d="M10.7649 62.602C10.313 62.2473 10.0175 61.7301 9.94134 61.1607C9.86518 60.5913 10.0143 60.0146 10.3571 59.5536" stroke="#A9612D" stroke-width="1.7" stroke-linecap="round" stroke-linejoin="round"/>
<path d="M15.1479 36.341C15.2042 35.8358 15.4564 35.3728 15.8503 35.0516C16.2442 34.7303 16.7484 34.5763 17.2546 34.6226M17.2546 40.4476H8.42969H17.4973C19.439 40.4476 20.9729 39.0981 20.9729 37.5351C20.9729 35.972 19.3516 34.6226 17.3614 34.6226H17.2934" stroke="#A9612D" stroke-width="1.7" stroke-linecap="round" stroke-linejoin="round"/>
<path d="M12.7162 46.5154C12.7149 46.6552 12.7413 46.7938 12.7939 46.9233C12.8465 47.0528 12.9242 47.1706 13.0226 47.2699C13.121 47.3692 13.2381 47.448 13.3671 47.5018C13.4962 47.5556 13.6345 47.5833 13.7743 47.5833C14.2558 47.5923 14.7211 47.4097 15.068 47.0756C15.4148 46.7415 15.6148 46.2833 15.6238 45.8018C15.6328 45.3203 15.4502 44.855 15.1161 44.5082C14.782 44.1613 14.3238 43.9614 13.8424 43.9524H5.00781" stroke="#A9612D" stroke-width="1.7" stroke-linecap="round" stroke-linejoin="round"/>
<path d="M1.16406 33.3411H5.71732" stroke="#A9612D" stroke-width="1.7" stroke-linecap="round" stroke-linejoin="round"/>
<path d="M6.01562 23.2251H13.0639" stroke="#A9612D" stroke-width="1.7" stroke-linecap="round" stroke-linejoin="round"/>
<path d="M28.3489 18.9922C29.0091 20.9339 27.1549 21.3513 27.8151 21.3513C30.3198 21.7591 32.9702 24.7298 32.6692 27.0792C32.2809 29.6616 29.9897 29.8849 30.4265 30.0694C31.6307 30.6249 32.6548 31.5072 33.3825 32.6159C34.1102 33.7246 34.5122 35.0152 34.5429 36.341C34.5429 38.6321 32.5041 39.933 30.4265 40.9815C32.2226 42.098 34.1739 44.4183 34.1739 46.5153C34.1739 49.9132 31.6595 52.1655 27.8635 52.1655C27.3616 52.1666 26.8608 52.1178 26.3685 52.0199C25.8379 52.8221 25.1169 53.4805 24.2698 53.9362C23.4228 54.3919 22.4762 54.6307 21.5144 54.6314C20.6171 54.6443 19.7262 54.4793 18.8931 54.1461C18.0599 53.8128 17.3011 53.3179 16.6602 52.6898C15.9975 52.9074 15.3084 53.0348 14.6117 53.0684C10.3691 53.4762 8.34984 50.3792 8.34984 47.1657C8.50463 46.0489 8.97251 44.9987 9.69931 44.1367C8.03918 43.1659 7.39844 41.2243 7.39844 39.1661C7.39761 38.1657 7.65439 37.182 8.1441 36.3097C8.63382 35.4374 9.33996 34.7059 10.1944 34.1857C9.6946 33.5102 9.37633 32.7178 9.27018 31.8842C9.16404 31.0507 9.27354 30.2038 9.58814 29.4246C9.90274 28.6454 10.412 27.9599 11.0671 27.4337C11.7223 26.9075 12.5015 26.5582 13.3302 26.4191C13.2013 26.0041 13.1359 25.5721 13.1361 25.1376C13.1361 23.9738 13.5984 22.8576 14.4213 22.0347C15.2443 21.2117 16.3603 20.7494 17.5241 20.7494C18.0733 20.7682 18.6211 20.8168 19.1649 20.895C19.1649 20.3805 19.8639 15.4584 24.9026 15.9244C26.0583 16.1206 27.098 16.7444 27.8151 17.6719" stroke="#A9612D" stroke-width="1.7" stroke-linecap="round" stroke-linejoin="round"/>
<g clip-path="url(#clip0_5767_16831)">
<path d="M15.0145 1.71791C15.0099 1.31337 15.1633 0.906807 15.4762 0.594596C16.1017 -0.0300335 17.1276 -0.0418884 17.7676 0.568117L20.9533 3.60547L24.0675 0.495318C24.6933 -0.129315 25.7192 -0.14117 26.359 0.468839C26.9988 1.07885 27.0103 2.07986 26.3848 2.7047L23.0891 5.99567C22.5324 6.55172 21.7872 6.86282 20.9908 6.87202C20.1945 6.88123 19.4425 6.58721 18.8729 6.04439L15.502 2.83046C15.182 2.52535 15.0192 2.12265 15.0145 1.71812L15.0145 1.71791Z" fill="#A9612D"/>
<path d="M16.2651 1.70311C16.264 1.61155 16.2988 1.51958 16.3696 1.44888C16.5112 1.30747 16.7433 1.30479 16.8882 1.44289L20.259 4.65682C20.449 4.83797 20.6998 4.9359 20.9653 4.93283C21.2308 4.92976 21.4795 4.82606 21.665 4.64057L24.9612 1.3496C25.1028 1.20819 25.3349 1.20551 25.4797 1.34361C25.6246 1.48171 25.6272 1.70817 25.4856 1.84958L22.1896 5.14076C21.867 5.46298 21.4352 5.64332 20.9736 5.64865C20.512 5.65399 20.0762 5.48368 19.7461 5.169L16.3754 1.95486C16.303 1.88581 16.2662 1.79467 16.2651 1.70311Z" fill="#FFF22E"/>
</g>
<defs>
<clipPath id="clip0_5767_16831">
<rect width="6.8038" height="11.8327" fill="white" transform="translate(26.8281) rotate(89.3379)"/>
</clipPath>
</defs>
</svg>
