<svg width="52" height="59" viewBox="0 0 52 59" fill="none" xmlns="http://www.w3.org/2000/svg">
<path d="M25.2578 47.4567V56.6601" stroke="#A9612D" stroke-width="1.7" stroke-linecap="round" stroke-linejoin="round"/>
<path d="M17.4609 52.34V47.3888" stroke="#A9612D" stroke-width="1.7" stroke-linecap="round" stroke-linejoin="round"/>
<path d="M17.4609 55.0778V56.932" stroke="#A9612D" stroke-width="1.7" stroke-linecap="round" stroke-linejoin="round"/>
<path d="M1.16406 56.932H38.9973" stroke="#A9612D" stroke-width="1.7" stroke-linecap="round" stroke-linejoin="round"/>
<path d="M30.6785 56.9321C30.1701 55.9567 29.9864 54.8445 30.1542 53.7574" stroke="#A9612D" stroke-width="1.7" stroke-linecap="round" stroke-linejoin="round"/>
<path d="M31.1328 56.9321C31.359 55.7744 32.0323 54.7524 33.0066 54.0875" stroke="#A9612D" stroke-width="1.7" stroke-linecap="round" stroke-linejoin="round"/>
<path d="M11.5361 56.932C11.407 56.3791 11.4289 55.8017 11.5997 55.2602C11.7705 54.7188 12.0839 54.2332 12.5069 53.8545" stroke="#A9612D" stroke-width="1.7" stroke-linecap="round" stroke-linejoin="round"/>
<path d="M10.7649 56.602C10.313 56.2473 10.0175 55.7301 9.94134 55.1607C9.86518 54.5913 10.0143 54.0146 10.3571 53.5536" stroke="#A9612D" stroke-width="1.7" stroke-linecap="round" stroke-linejoin="round"/>
<path d="M15.1479 30.341C15.2042 29.8358 15.4564 29.3728 15.8503 29.0516C16.2442 28.7303 16.7484 28.5763 17.2546 28.6226M17.2546 34.4476H8.42969H17.4973C19.439 34.4476 20.9729 33.0981 20.9729 31.5351C20.9729 29.972 19.3516 28.6226 17.3614 28.6226H17.2934" stroke="#A9612D" stroke-width="1.7" stroke-linecap="round" stroke-linejoin="round"/>
<path d="M12.7162 40.5154C12.7149 40.6552 12.7413 40.7938 12.7939 40.9233C12.8465 41.0528 12.9242 41.1706 13.0226 41.2699C13.121 41.3692 13.2381 41.448 13.3671 41.5018C13.4962 41.5556 13.6345 41.5833 13.7743 41.5833C14.2558 41.5923 14.7211 41.4097 15.068 41.0756C15.4148 40.7415 15.6148 40.2833 15.6238 39.8018C15.6328 39.3203 15.4502 38.855 15.1161 38.5082C14.782 38.1613 14.3238 37.9614 13.8424 37.9524H5.00781" stroke="#A9612D" stroke-width="1.7" stroke-linecap="round" stroke-linejoin="round"/>
<path d="M1.16406 27.3411H5.71732" stroke="#A9612D" stroke-width="1.7" stroke-linecap="round" stroke-linejoin="round"/>
<path d="M6.01562 17.2251H13.0639" stroke="#A9612D" stroke-width="1.7" stroke-linecap="round" stroke-linejoin="round"/>
<path d="M28.3489 12.9922C29.0091 14.9339 27.1549 15.3513 27.8151 15.3513C30.3198 15.7591 32.9702 18.7298 32.6692 21.0792C32.2809 23.6616 29.9897 23.8849 30.4265 24.0694C31.6307 24.6249 32.6548 25.5072 33.3825 26.6159C34.1102 27.7246 34.5122 29.0152 34.5429 30.341C34.5429 32.6321 32.5041 33.933 30.4265 34.9815C32.2226 36.098 34.1739 38.4183 34.1739 40.5153C34.1739 43.9132 31.6595 46.1655 27.8635 46.1655C27.3616 46.1666 26.8608 46.1178 26.3685 46.0199C25.8379 46.8221 25.1169 47.4805 24.2698 47.9362C23.4228 48.3919 22.4762 48.6307 21.5144 48.6314C20.6171 48.6443 19.7262 48.4793 18.8931 48.1461C18.0599 47.8128 17.3011 47.3179 16.6602 46.6898C15.9975 46.9074 15.3084 47.0348 14.6117 47.0684C10.3691 47.4762 8.34984 44.3792 8.34984 41.1657C8.50463 40.0489 8.97251 38.9987 9.69931 38.1367C8.03918 37.1659 7.39844 35.2243 7.39844 33.1661C7.39761 32.1657 7.65439 31.182 8.1441 30.3097C8.63382 29.4374 9.33996 28.7059 10.1944 28.1857C9.6946 27.5102 9.37633 26.7178 9.27018 25.8842C9.16404 25.0507 9.27354 24.2038 9.58814 23.4246C9.90274 22.6454 10.412 21.9599 11.0671 21.4337C11.7223 20.9075 12.5015 20.5582 13.3302 20.4191C13.2013 20.0041 13.1359 19.5721 13.1361 19.1376C13.1361 17.9738 13.5984 16.8576 14.4213 16.0347C15.2443 15.2117 16.3603 14.7494 17.5241 14.7494C18.0733 14.7682 18.6211 14.8168 19.1649 14.895C19.1649 14.3805 19.8639 9.45838 24.9026 9.92438C26.0583 10.1206 27.098 10.7444 27.8151 11.6719" stroke="#A9612D" stroke-width="1.7" stroke-linecap="round" stroke-linejoin="round"/>
<path d="M41.5503 1.15853C41.8256 0.862076 42.2169 0.673062 42.6587 0.66228C43.5425 0.640414 44.2943 1.33854 44.338 2.22161L44.5549 6.61787L48.9548 6.5087C49.8387 6.48699 50.5905 7.18511 50.6341 8.06803C50.6776 8.95096 49.9964 9.68454 49.1126 9.70656L44.4565 9.82176C43.67 9.84137 42.9155 9.55352 42.3318 9.01158C41.7482 8.46964 41.4056 7.73848 41.3667 6.95264L41.1372 2.30081C41.1155 1.85919 41.2749 1.45514 41.5501 1.15869L41.5503 1.15853Z" fill="#A9612D"/>
<path d="M42.4697 2.01153C42.532 1.94444 42.6205 1.90171 42.7206 1.89923C42.9206 1.89428 43.0907 2.05223 43.1006 2.25211L43.3301 6.90395C43.343 7.16615 43.4573 7.40986 43.6519 7.59056C43.8465 7.77126 44.0981 7.86735 44.3604 7.86071L49.0168 7.7458C49.2169 7.74085 49.387 7.8988 49.3968 8.09868C49.4067 8.29857 49.2526 8.46453 49.0525 8.46948L44.3961 8.58469C43.9403 8.59597 43.5031 8.42927 43.1648 8.11514C42.8265 7.80101 42.6279 7.37734 42.6054 6.92188L42.3763 2.27003C42.3713 2.17009 42.4074 2.07863 42.4697 2.01153Z" fill="#FFF22E"/>
</svg>
