<svg width="60" height="51" viewBox="0 0 60 51" fill="none" xmlns="http://www.w3.org/2000/svg">
<path d="M25.2578 39.4567V48.6601" stroke="#A9612D" stroke-width="1.7" stroke-linecap="round" stroke-linejoin="round"/>
<path d="M17.4609 44.34V39.3888" stroke="#A9612D" stroke-width="1.7" stroke-linecap="round" stroke-linejoin="round"/>
<path d="M17.4609 47.0778V48.932" stroke="#A9612D" stroke-width="1.7" stroke-linecap="round" stroke-linejoin="round"/>
<path d="M1.16406 48.932H38.9973" stroke="#A9612D" stroke-width="1.7" stroke-linecap="round" stroke-linejoin="round"/>
<path d="M30.6785 48.9321C30.1701 47.9567 29.9864 46.8445 30.1542 45.7574" stroke="#A9612D" stroke-width="1.7" stroke-linecap="round" stroke-linejoin="round"/>
<path d="M31.1328 48.9321C31.359 47.7744 32.0323 46.7524 33.0066 46.0875" stroke="#A9612D" stroke-width="1.7" stroke-linecap="round" stroke-linejoin="round"/>
<path d="M11.5361 48.932C11.407 48.3791 11.4289 47.8017 11.5997 47.2602C11.7705 46.7188 12.0839 46.2332 12.5069 45.8545" stroke="#A9612D" stroke-width="1.7" stroke-linecap="round" stroke-linejoin="round"/>
<path d="M10.7649 48.602C10.313 48.2473 10.0175 47.7301 9.94134 47.1607C9.86518 46.5913 10.0143 46.0146 10.3571 45.5536" stroke="#A9612D" stroke-width="1.7" stroke-linecap="round" stroke-linejoin="round"/>
<path d="M15.1479 22.341C15.2042 21.8358 15.4564 21.3728 15.8503 21.0516C16.2442 20.7303 16.7484 20.5763 17.2546 20.6226M17.2546 26.4476H8.42969H17.4973C19.439 26.4476 20.9729 25.0981 20.9729 23.5351C20.9729 21.972 19.3516 20.6226 17.3614 20.6226H17.2934" stroke="#A9612D" stroke-width="1.7" stroke-linecap="round" stroke-linejoin="round"/>
<path d="M12.7162 32.5154C12.7149 32.6552 12.7413 32.7938 12.7939 32.9233C12.8465 33.0528 12.9242 33.1706 13.0226 33.2699C13.121 33.3692 13.2381 33.448 13.3671 33.5018C13.4962 33.5556 13.6345 33.5833 13.7743 33.5833C14.2558 33.5923 14.7211 33.4097 15.068 33.0756C15.4148 32.7415 15.6148 32.2833 15.6238 31.8018C15.6328 31.3203 15.4502 30.855 15.1161 30.5082C14.782 30.1613 14.3238 29.9614 13.8424 29.9524H5.00781" stroke="#A9612D" stroke-width="1.7" stroke-linecap="round" stroke-linejoin="round"/>
<path d="M1.16406 19.3411H5.71732" stroke="#A9612D" stroke-width="1.7" stroke-linecap="round" stroke-linejoin="round"/>
<path d="M6.01562 9.2251H13.0639" stroke="#A9612D" stroke-width="1.7" stroke-linecap="round" stroke-linejoin="round"/>
<path d="M28.3489 4.99221C29.0091 6.93387 27.1549 7.35133 27.8151 7.35133C30.3198 7.75908 32.9702 10.7298 32.6692 13.0792C32.2809 15.6616 29.9897 15.8849 30.4265 16.0694C31.6307 16.6249 32.6548 17.5072 33.3825 18.6159C34.1102 19.7246 34.5122 21.0152 34.5429 22.341C34.5429 24.6321 32.5041 25.933 30.4265 26.9815C32.2226 28.098 34.1739 30.4183 34.1739 32.5153C34.1739 35.9132 31.6595 38.1655 27.8635 38.1655C27.3616 38.1666 26.8608 38.1178 26.3685 38.0199C25.8379 38.8221 25.1169 39.4805 24.2698 39.9362C23.4228 40.3919 22.4762 40.6307 21.5144 40.6314C20.6171 40.6443 19.7262 40.4793 18.8931 40.1461C18.0599 39.8128 17.3011 39.3179 16.6602 38.6898C15.9975 38.9074 15.3084 39.0348 14.6117 39.0684C10.3691 39.4762 8.34984 36.3792 8.34984 33.1657C8.50463 32.0489 8.97251 30.9987 9.69931 30.1367C8.03918 29.1659 7.39844 27.2243 7.39844 25.1661C7.39761 24.1657 7.65439 23.182 8.1441 22.3097C8.63382 21.4374 9.33996 20.7059 10.1944 20.1857C9.6946 19.5102 9.37633 18.7178 9.27018 17.8842C9.16404 17.0507 9.27354 16.2038 9.58814 15.4246C9.90274 14.6454 10.412 13.9599 11.0671 13.4337C11.7223 12.9075 12.5015 12.5582 13.3302 12.4191C13.2013 12.0041 13.1359 11.5721 13.1361 11.1376C13.1361 9.97376 13.5984 8.85761 14.4213 8.03468C15.2443 7.21174 16.3603 6.74941 17.5241 6.74941C18.0733 6.76816 18.6211 6.81677 19.1649 6.89504C19.1649 6.3805 19.8639 1.45838 24.9026 1.92438C26.0583 2.12064 27.098 2.74444 27.8151 3.67188" stroke="#A9612D" stroke-width="1.7" stroke-linecap="round" stroke-linejoin="round"/>
<path d="M58.233 20.0038C58.6376 20.0041 59.0422 20.1625 59.3506 20.4792C59.9674 21.1124 59.9666 22.1384 59.3488 22.7708L56.2723 25.9188L59.3438 29.0712C59.9607 29.7046 59.9599 30.7305 59.342 31.3628C58.7242 31.995 57.7231 31.9942 57.106 31.361L53.856 28.0249C53.3068 27.4615 53.005 26.7125 53.0056 25.916C53.0062 25.1196 53.3095 24.3713 53.8593 23.8085L57.1146 20.4775C57.4236 20.1613 57.8283 20.0034 58.2328 20.0038L58.233 20.0038Z" fill="#A9612D"/>
<path d="M58.2354 21.2576C58.327 21.2577 58.4185 21.2936 58.4883 21.3652C58.628 21.5086 58.6278 21.7407 58.4879 21.8838L55.2327 25.2148C55.0492 25.4026 54.9482 25.6521 54.9479 25.9176C54.9477 26.1832 55.0484 26.4331 55.2316 26.6209L58.4816 29.9574C58.6213 30.1007 58.6211 30.3329 58.4812 30.476C58.3413 30.6191 58.1148 30.6189 57.9752 30.4756L54.7249 27.1393C54.4067 26.8127 54.2317 26.3787 54.2321 25.9171C54.2324 25.4554 54.4081 25.0218 54.7268 24.6956L57.9823 21.3649C58.0523 21.2933 58.1439 21.2576 58.2354 21.2576Z" fill="#FFF22E"/>
</svg>
