<svg width="54" height="59" viewBox="0 0 54 59" fill="none" xmlns="http://www.w3.org/2000/svg">
<path d="M25.2578 39.4567V48.6601" stroke="#A9612D" stroke-width="1.7" stroke-linecap="round" stroke-linejoin="round"/>
<path d="M17.4609 44.34V39.3888" stroke="#A9612D" stroke-width="1.7" stroke-linecap="round" stroke-linejoin="round"/>
<path d="M17.4609 47.0778V48.932" stroke="#A9612D" stroke-width="1.7" stroke-linecap="round" stroke-linejoin="round"/>
<path d="M1.16406 48.932H38.9973" stroke="#A9612D" stroke-width="1.7" stroke-linecap="round" stroke-linejoin="round"/>
<path d="M30.6785 48.9321C30.1701 47.9567 29.9864 46.8445 30.1542 45.7574" stroke="#A9612D" stroke-width="1.7" stroke-linecap="round" stroke-linejoin="round"/>
<path d="M31.1328 48.9321C31.359 47.7744 32.0323 46.7524 33.0066 46.0875" stroke="#A9612D" stroke-width="1.7" stroke-linecap="round" stroke-linejoin="round"/>
<path d="M11.5361 48.932C11.407 48.3791 11.4289 47.8017 11.5997 47.2602C11.7705 46.7188 12.0839 46.2332 12.5069 45.8545" stroke="#A9612D" stroke-width="1.7" stroke-linecap="round" stroke-linejoin="round"/>
<path d="M10.7649 48.602C10.313 48.2473 10.0175 47.7301 9.94134 47.1607C9.86518 46.5913 10.0143 46.0146 10.3571 45.5536" stroke="#A9612D" stroke-width="1.7" stroke-linecap="round" stroke-linejoin="round"/>
<path d="M15.1479 22.341C15.2042 21.8358 15.4564 21.3728 15.8503 21.0516C16.2442 20.7303 16.7484 20.5763 17.2546 20.6226M17.2546 26.4476H8.42969H17.4973C19.439 26.4476 20.9729 25.0981 20.9729 23.5351C20.9729 21.972 19.3516 20.6226 17.3614 20.6226H17.2934" stroke="#A9612D" stroke-width="1.7" stroke-linecap="round" stroke-linejoin="round"/>
<path d="M12.7162 32.5154C12.7149 32.6552 12.7413 32.7938 12.7939 32.9233C12.8465 33.0528 12.9242 33.1706 13.0226 33.2699C13.121 33.3692 13.2381 33.448 13.3671 33.5018C13.4962 33.5556 13.6345 33.5833 13.7743 33.5833C14.2558 33.5923 14.7211 33.4097 15.068 33.0756C15.4148 32.7415 15.6148 32.2833 15.6238 31.8018C15.6328 31.3203 15.4502 30.855 15.1161 30.5082C14.782 30.1613 14.3238 29.9614 13.8424 29.9524H5.00781" stroke="#A9612D" stroke-width="1.7" stroke-linecap="round" stroke-linejoin="round"/>
<path d="M1.16406 19.3411H5.71732" stroke="#A9612D" stroke-width="1.7" stroke-linecap="round" stroke-linejoin="round"/>
<path d="M6.01562 9.2251H13.0639" stroke="#A9612D" stroke-width="1.7" stroke-linecap="round" stroke-linejoin="round"/>
<path d="M28.3489 4.99221C29.0091 6.93387 27.1549 7.35133 27.8151 7.35133C30.3198 7.75908 32.9702 10.7298 32.6692 13.0792C32.2809 15.6616 29.9897 15.8849 30.4265 16.0694C31.6307 16.6249 32.6548 17.5072 33.3825 18.6159C34.1102 19.7246 34.5122 21.0152 34.5429 22.341C34.5429 24.6321 32.5041 25.933 30.4265 26.9815C32.2226 28.098 34.1739 30.4183 34.1739 32.5153C34.1739 35.9132 31.6595 38.1655 27.8635 38.1655C27.3616 38.1666 26.8608 38.1178 26.3685 38.0199C25.8379 38.8221 25.1169 39.4805 24.2698 39.9362C23.4228 40.3919 22.4762 40.6307 21.5144 40.6314C20.6171 40.6443 19.7262 40.4793 18.8931 40.1461C18.0599 39.8128 17.3011 39.3179 16.6602 38.6898C15.9975 38.9074 15.3084 39.0348 14.6117 39.0684C10.3691 39.4762 8.34984 36.3792 8.34984 33.1657C8.50463 32.0489 8.97251 30.9987 9.69931 30.1367C8.03918 29.1659 7.39844 27.2243 7.39844 25.1661C7.39761 24.1657 7.65439 23.182 8.1441 22.3097C8.63382 21.4374 9.33996 20.7059 10.1944 20.1857C9.6946 19.5102 9.37633 18.7178 9.27018 17.8842C9.16404 17.0507 9.27354 16.2038 9.58814 15.4246C9.90274 14.6454 10.412 13.9599 11.0671 13.4337C11.7223 12.9075 12.5015 12.5582 13.3302 12.4191C13.2013 12.0041 13.1359 11.5721 13.1361 11.1376C13.1361 9.97376 13.5984 8.85761 14.4213 8.03468C15.2443 7.21174 16.3603 6.74941 17.5241 6.74941C18.0733 6.76816 18.6211 6.81677 19.1649 6.89504C19.1649 6.3805 19.8639 1.45838 24.9026 1.92438C26.0583 2.12064 27.098 2.74444 27.8151 3.67188" stroke="#A9612D" stroke-width="1.7" stroke-linecap="round" stroke-linejoin="round"/>
<g clip-path="url(#clip0_5767_16835)">
<path d="M52.116 48.7381C52.3985 49.0277 52.5679 49.4279 52.5569 49.8697C52.5351 50.7535 51.8007 51.4699 50.9165 51.47L46.5149 51.4695L46.4067 55.8694C46.3847 56.7533 45.6503 57.4697 44.7663 57.4696C43.8824 57.4696 43.1833 56.753 43.205 55.8691L43.3198 51.213C43.3391 50.4265 43.6638 49.6871 44.2339 49.1309C44.804 48.5748 45.5512 48.2687 46.338 48.2687L50.9955 48.2692C51.4376 48.2692 51.8333 48.4484 52.1158 48.738L52.116 48.7381Z" fill="#A9612D"/>
<path d="M51.2224 49.6139C51.2863 49.6795 51.3246 49.77 51.3221 49.8701C51.3172 50.0701 51.1511 50.2322 50.9509 50.2322L46.2934 50.2317C46.0309 50.2316 45.7819 50.3338 45.5918 50.5192C45.4017 50.7046 45.2933 50.9512 45.287 51.2135L45.1718 55.8699C45.1669 56.07 45.0007 56.2321 44.8006 56.232C44.6004 56.232 44.4423 56.0699 44.4472 55.8698L44.5621 51.2134C44.5733 50.7576 44.7614 50.3291 45.0919 50.0068C45.4223 49.6844 45.8553 49.507 46.3113 49.507L50.9688 49.5078C51.0689 49.5079 51.1584 49.5484 51.2224 49.6139Z" fill="#FFF22E"/>
</g>
<g clip-path="url(#clip1_5767_16835)">
<path d="M52.116 48.7381C52.3985 49.0277 52.5679 49.4279 52.5569 49.8697C52.5351 50.7535 51.8007 51.4699 50.9165 51.47L46.5149 51.4695L46.4067 55.8694C46.3847 56.7533 45.6503 57.4697 44.7663 57.4696C43.8824 57.4696 43.1833 56.753 43.205 55.8691L43.3198 51.213C43.3391 50.4265 43.6638 49.6871 44.2339 49.1309C44.804 48.5748 45.5512 48.2687 46.338 48.2687L50.9955 48.2692C51.4376 48.2692 51.8333 48.4484 52.1158 48.738L52.116 48.7381Z" fill="#A9612D"/>
<path d="M51.2224 49.6139C51.2863 49.6795 51.3246 49.77 51.3221 49.8701C51.3172 50.0701 51.1511 50.2322 50.9509 50.2322L46.2934 50.2317C46.0309 50.2316 45.7819 50.3338 45.5918 50.5192C45.4017 50.7046 45.2933 50.9512 45.287 51.2135L45.1718 55.8699C45.1669 56.07 45.0007 56.2321 44.8006 56.232C44.6004 56.232 44.4423 56.0699 44.4472 55.8698L44.5621 51.2134C44.5733 50.7576 44.7614 50.3291 45.0919 50.0068C45.4223 49.6844 45.8553 49.507 46.3113 49.507L50.9688 49.5078C51.0689 49.5079 51.1584 49.5484 51.2224 49.6139Z" fill="#FFF22E"/>
</g>
<defs>
<clipPath id="clip0_5767_16835">
<rect width="6.8038" height="11.8327" fill="white" transform="translate(44.75 58.1329) rotate(-134.29)"/>
</clipPath>
<clipPath id="clip1_5767_16835">
<rect width="6.8038" height="11.8327" fill="white" transform="translate(44.75 58.1329) rotate(-134.29)"/>
</clipPath>
</defs>
</svg>
