<svg width="52" height="58" viewBox="0 0 52 58" fill="none" xmlns="http://www.w3.org/2000/svg">
<path d="M37.2578 38.5634V47.7668" stroke="#A9612D" stroke-width="1.7" stroke-linecap="round" stroke-linejoin="round"/>
<path d="M29.4609 43.4467V38.4955" stroke="#A9612D" stroke-width="1.7" stroke-linecap="round" stroke-linejoin="round"/>
<path d="M29.4609 46.1844V48.0387" stroke="#A9612D" stroke-width="1.7" stroke-linecap="round" stroke-linejoin="round"/>
<path d="M13.1641 48.0387H50.9973" stroke="#A9612D" stroke-width="1.7" stroke-linecap="round" stroke-linejoin="round"/>
<path d="M42.6785 48.0388C42.1701 47.0634 41.9864 45.9512 42.1542 44.8641" stroke="#A9612D" stroke-width="1.7" stroke-linecap="round" stroke-linejoin="round"/>
<path d="M43.1328 48.0387C43.359 46.8811 44.0323 45.8591 45.0066 45.1942" stroke="#A9612D" stroke-width="1.7" stroke-linecap="round" stroke-linejoin="round"/>
<path d="M23.5361 48.0387C23.407 47.4858 23.4289 46.9084 23.5997 46.3669C23.7705 45.8255 24.0839 45.3399 24.5069 44.9612" stroke="#A9612D" stroke-width="1.7" stroke-linecap="round" stroke-linejoin="round"/>
<path d="M22.7649 47.7087C22.313 47.354 22.0175 46.8368 21.9413 46.2674C21.8652 45.698 22.0143 45.1213 22.3571 44.6603" stroke="#A9612D" stroke-width="1.7" stroke-linecap="round" stroke-linejoin="round"/>
<path d="M27.1479 21.4477C27.2042 20.9425 27.4564 20.4795 27.8503 20.1582C28.2442 19.837 28.7484 19.6829 29.2546 19.7293M29.2546 25.5543H20.4297H29.4973C31.439 25.5543 32.9729 24.2048 32.9729 22.6418C32.9729 21.0787 31.3516 19.7293 29.3614 19.7293H29.2934" stroke="#A9612D" stroke-width="1.7" stroke-linecap="round" stroke-linejoin="round"/>
<path d="M24.7162 31.6221C24.7149 31.7619 24.7413 31.9005 24.7939 32.03C24.8465 32.1595 24.9242 32.2773 25.0226 32.3766C25.121 32.4759 25.2381 32.5547 25.3671 32.6085C25.4962 32.6623 25.6345 32.69 25.7743 32.69C26.2558 32.699 26.7211 32.5164 27.068 32.1823C27.4148 31.8482 27.6148 31.39 27.6238 30.9085C27.6328 30.427 27.4502 29.9617 27.1161 29.6148C26.782 29.268 26.3238 29.0681 25.8424 29.0591H17.0078" stroke="#A9612D" stroke-width="1.7" stroke-linecap="round" stroke-linejoin="round"/>
<path d="M13.1641 18.4478H17.7173" stroke="#A9612D" stroke-width="1.7" stroke-linecap="round" stroke-linejoin="round"/>
<path d="M18.0156 8.33179H25.0639" stroke="#A9612D" stroke-width="1.7" stroke-linecap="round" stroke-linejoin="round"/>
<path d="M40.3489 4.0989C41.0091 6.04056 39.1549 6.45802 39.8151 6.45802C42.3198 6.86577 44.9702 9.83651 44.6692 12.1859C44.2809 14.7683 41.9897 14.9916 42.4265 15.1761C43.6307 15.7316 44.6548 16.6139 45.3825 17.7226C46.1102 18.8312 46.5122 20.1219 46.5429 21.4477C46.5429 23.7388 44.5041 25.0397 42.4265 26.0882C44.2226 27.2047 46.1739 29.525 46.1739 31.622C46.1739 35.0199 43.6595 37.2722 39.8635 37.2722C39.3616 37.2733 38.8608 37.2245 38.3685 37.1266C37.8379 37.9288 37.1169 38.5872 36.2698 39.0429C35.4228 39.4986 34.4762 39.7374 33.5144 39.7381C32.6171 39.751 31.7262 39.586 30.8931 39.2528C30.0599 38.9195 29.3011 38.4246 28.6602 37.7965C27.9975 38.0141 27.3084 38.1414 26.6117 38.1751C22.3691 38.5828 20.3498 35.4859 20.3498 32.2724C20.5046 31.1556 20.9725 30.1054 21.6993 29.2434C20.0392 28.2726 19.3984 26.3309 19.3984 24.2728C19.3976 23.2724 19.6544 22.2887 20.1441 21.4164C20.6338 20.5441 21.34 19.8126 22.1944 19.2924C21.6946 18.6169 21.3763 17.8245 21.2702 16.9909C21.164 16.1573 21.2735 15.3105 21.5881 14.5313C21.9027 13.7521 22.412 13.0666 23.0671 12.5404C23.7223 12.0142 24.5015 11.6648 25.3302 11.5258C25.2013 11.1108 25.1359 10.6788 25.1361 10.2443C25.1361 9.08045 25.5984 7.9643 26.4213 7.14136C27.2443 6.31843 28.3603 5.8561 29.5241 5.8561C30.0733 5.87485 30.6211 5.92346 31.1649 6.00173C31.1649 5.48719 31.8639 0.565071 36.9026 1.03107C38.0583 1.22733 39.098 1.85113 39.8151 2.77857" stroke="#A9612D" stroke-width="1.7" stroke-linecap="round" stroke-linejoin="round"/>
<path d="M9.41975 56.2081C9.13115 56.4916 8.73158 56.6624 8.28968 56.6529C7.40588 56.6341 6.68692 55.9022 6.6838 55.0181L6.66904 50.6165L2.26873 50.5235C1.38478 50.5046 0.665814 49.7727 0.66285 48.8887C0.659886 48.0047 1.37404 47.3032 2.25799 47.3218L6.91444 47.4205C7.70106 47.437 8.44155 47.7592 8.99967 48.3274C9.55779 48.8956 9.86642 49.6417 9.86921 50.4285L9.88483 55.086C9.88631 55.5281 9.70851 55.9244 9.4199 56.2079L9.41975 56.2081Z" fill="#A9612D"/>
<path d="M8.54035 55.3138C8.47503 55.3779 8.38462 55.4165 8.28458 55.4144C8.0845 55.4102 7.92184 55.2446 7.92117 55.0445L7.90555 50.387C7.90467 50.1245 7.80169 49.8758 7.6156 49.6863C7.42951 49.4969 7.18253 49.3893 6.92022 49.3839L2.26347 49.2849C2.06339 49.2806 1.90073 49.1151 1.90006 48.9149C1.89939 48.7148 2.06096 48.5561 2.26105 48.5603L6.91779 48.6591C7.3737 48.6687 7.80279 48.8553 8.12629 49.1847C8.4498 49.514 8.62872 49.9464 8.63025 50.4024L8.64556 55.0598C8.6459 55.1599 8.60567 55.2496 8.54035 55.3138Z" fill="#FFF22E"/>
</svg>
