<svg width="60" height="51" viewBox="0 0 60 51" fill="none" xmlns="http://www.w3.org/2000/svg">
<path d="M44.2578 39.4567V48.6601" stroke="#A9612D" stroke-width="1.7" stroke-linecap="round" stroke-linejoin="round"/>
<path d="M36.4609 44.34V39.3888" stroke="#A9612D" stroke-width="1.7" stroke-linecap="round" stroke-linejoin="round"/>
<path d="M36.4609 47.0778V48.932" stroke="#A9612D" stroke-width="1.7" stroke-linecap="round" stroke-linejoin="round"/>
<path d="M20.1641 48.932H57.9973" stroke="#A9612D" stroke-width="1.7" stroke-linecap="round" stroke-linejoin="round"/>
<path d="M49.6785 48.9321C49.1701 47.9567 48.9864 46.8445 49.1542 45.7574" stroke="#A9612D" stroke-width="1.7" stroke-linecap="round" stroke-linejoin="round"/>
<path d="M50.1328 48.9321C50.359 47.7744 51.0323 46.7524 52.0066 46.0875" stroke="#A9612D" stroke-width="1.7" stroke-linecap="round" stroke-linejoin="round"/>
<path d="M30.5361 48.932C30.407 48.3791 30.4289 47.8017 30.5997 47.2602C30.7705 46.7188 31.0839 46.2332 31.5069 45.8545" stroke="#A9612D" stroke-width="1.7" stroke-linecap="round" stroke-linejoin="round"/>
<path d="M29.7649 48.602C29.313 48.2473 29.0175 47.7301 28.9413 47.1607C28.8652 46.5913 29.0143 46.0146 29.3571 45.5536" stroke="#A9612D" stroke-width="1.7" stroke-linecap="round" stroke-linejoin="round"/>
<path d="M34.1479 22.341C34.2042 21.8358 34.4564 21.3728 34.8503 21.0516C35.2442 20.7303 35.7484 20.5763 36.2546 20.6226M36.2546 26.4476H27.4297H36.4973C38.439 26.4476 39.9729 25.0981 39.9729 23.5351C39.9729 21.972 38.3516 20.6226 36.3614 20.6226H36.2934" stroke="#A9612D" stroke-width="1.7" stroke-linecap="round" stroke-linejoin="round"/>
<path d="M31.7162 32.5154C31.7149 32.6552 31.7413 32.7938 31.7939 32.9233C31.8465 33.0528 31.9242 33.1706 32.0226 33.2699C32.121 33.3692 32.2381 33.448 32.3671 33.5018C32.4962 33.5556 32.6345 33.5833 32.7743 33.5833C33.2558 33.5923 33.7211 33.4097 34.068 33.0756C34.4148 32.7415 34.6148 32.2833 34.6238 31.8018C34.6328 31.3203 34.4502 30.855 34.1161 30.5082C33.782 30.1613 33.3238 29.9614 32.8424 29.9524H24.0078" stroke="#A9612D" stroke-width="1.7" stroke-linecap="round" stroke-linejoin="round"/>
<path d="M20.1641 19.3411H24.7173" stroke="#A9612D" stroke-width="1.7" stroke-linecap="round" stroke-linejoin="round"/>
<path d="M25.0156 9.2251H32.0639" stroke="#A9612D" stroke-width="1.7" stroke-linecap="round" stroke-linejoin="round"/>
<path d="M47.3489 4.99221C48.0091 6.93387 46.1549 7.35133 46.8151 7.35133C49.3198 7.75908 51.9702 10.7298 51.6692 13.0792C51.2809 15.6616 48.9897 15.8849 49.4265 16.0694C50.6307 16.6249 51.6548 17.5072 52.3825 18.6159C53.1102 19.7246 53.5122 21.0152 53.5429 22.341C53.5429 24.6321 51.5041 25.933 49.4265 26.9815C51.2226 28.098 53.1739 30.4183 53.1739 32.5153C53.1739 35.9132 50.6595 38.1655 46.8635 38.1655C46.3616 38.1666 45.8608 38.1178 45.3685 38.0199C44.8379 38.8221 44.1169 39.4805 43.2698 39.9362C42.4228 40.3919 41.4762 40.6307 40.5144 40.6314C39.6171 40.6443 38.7262 40.4793 37.8931 40.1461C37.0599 39.8128 36.3011 39.3179 35.6602 38.6898C34.9975 38.9074 34.3084 39.0348 33.6117 39.0684C29.3691 39.4762 27.3498 36.3792 27.3498 33.1657C27.5046 32.0489 27.9725 30.9987 28.6993 30.1367C27.0392 29.1659 26.3984 27.2243 26.3984 25.1661C26.3976 24.1657 26.6544 23.182 27.1441 22.3097C27.6338 21.4374 28.34 20.7059 29.1944 20.1857C28.6946 19.5102 28.3763 18.7178 28.2702 17.8842C28.164 17.0507 28.2735 16.2038 28.5881 15.4246C28.9027 14.6454 29.412 13.9599 30.0671 13.4337C30.7223 12.9075 31.5015 12.5582 32.3302 12.4191C32.2013 12.0041 32.1359 11.5721 32.1361 11.1376C32.1361 9.97376 32.5984 8.85761 33.4213 8.03468C34.2443 7.21174 35.3603 6.74941 36.5241 6.74941C37.0733 6.76816 37.6211 6.81677 38.1649 6.89504C38.1649 6.3805 38.8639 1.45838 43.9026 1.92438C45.0583 2.12064 46.098 2.74444 46.8151 3.67188" stroke="#A9612D" stroke-width="1.7" stroke-linecap="round" stroke-linejoin="round"/>
<g clip-path="url(#clip0_5767_16838)">
<path d="M1.57626 29.8768C1.1719 29.8641 0.77229 29.6933 0.473791 29.3674C-0.123424 28.7156 -0.0912497 27.6901 0.545655 27.0769L3.7169 24.0245L0.743234 20.7797C0.146026 20.1277 0.1782 19.1022 0.815099 18.4892C1.452 17.8761 2.45258 17.9075 3.05001 18.5593L6.19653 21.9932C6.72819 22.5732 7.00703 23.3311 6.98205 24.1271C6.95708 24.9232 6.63107 25.6619 6.06431 26.2076L2.7087 29.4375C2.39014 29.7441 1.98083 29.8895 1.57647 29.8768L1.57626 29.8768Z" fill="#A9612D"/>
<path d="M1.61208 28.6235C1.52056 28.6206 1.43017 28.582 1.36256 28.5082C1.22736 28.3606 1.23464 28.1286 1.37883 27.9898L4.73443 24.76C4.92357 24.5779 5.03217 24.3316 5.0405 24.0662C5.04883 23.8008 4.95589 23.5479 4.77853 23.3546L1.63201 19.9203C1.49681 19.7727 1.50409 19.5407 1.64828 19.4019C1.79246 19.2631 2.01884 19.2702 2.15404 19.4178L5.30077 22.8519C5.60885 23.1881 5.77049 23.6272 5.75601 24.0886C5.74154 24.55 5.55268 24.9781 5.22414 25.2944L1.86833 28.524C1.79623 28.5934 1.70359 28.6264 1.61208 28.6235Z" fill="#FFF22E"/>
</g>
<defs>
<clipPath id="clip0_5767_16838">
<rect width="6.8038" height="11.8327" fill="white" transform="translate(0.367188 18) rotate(1.79709)"/>
</clipPath>
</defs>
</svg>
