<svg width="59" height="62" viewBox="0 0 59 62" fill="none" xmlns="http://www.w3.org/2000/svg">
<path d="M19.8496 16.6501C19.8561 16.4334 19.9052 16.2201 19.9941 16.0224C20.0831 15.8246 20.2102 15.6464 20.368 15.4978C20.5259 15.3492 20.7116 15.2332 20.9143 15.1564C21.1171 15.0795 21.333 15.0434 21.5497 15.0501M21.5497 20.5101H10.1797H21.7396C22.4637 20.4955 23.1523 20.1939 23.6539 19.6716C24.1556 19.1493 24.4293 18.4491 24.4147 17.7251C24.4001 17.0011 24.0985 16.3125 23.5762 15.8108C23.0539 15.3091 22.3537 15.0355 21.6296 15.0501H21.5796" stroke="url(#paint0_linear_5767_16843)" stroke-width="1.7" stroke-linecap="round" stroke-linejoin="round"/>
<path d="M29.6816 30.65C29.6881 30.8668 29.7372 31.0801 29.8262 31.2778C29.9151 31.4755 30.0421 31.6538 30.2 31.8023C30.3578 31.9509 30.5435 32.067 30.7462 32.1438C30.949 32.2206 31.1649 32.2567 31.3816 32.25C31.7401 32.2573 32.0966 32.1938 32.4305 32.0633C32.7645 31.9328 33.0695 31.7377 33.3281 31.4893C33.5867 31.2409 33.7939 30.944 33.9377 30.6156C34.0816 30.2871 34.1594 29.9335 34.1666 29.575C34.1738 29.2165 34.1104 28.8601 33.9799 28.5261C33.8493 28.1921 33.6543 27.8871 33.4059 27.6285C33.1575 27.3699 32.8606 27.1628 32.5321 27.0189C32.2036 26.875 31.8501 26.7973 31.4916 26.79H7.85156" stroke="url(#paint1_linear_5767_16843)" stroke-width="1.7" stroke-linecap="round" stroke-linejoin="round"/>
<path d="M12.3516 23.71H19.4316" stroke="url(#paint2_linear_5767_16843)" stroke-width="1.7" stroke-linecap="round" stroke-linejoin="round"/>
<path d="M32.3516 44.54C32.3516 44.54 33.0916 42.11 35.6316 43.42C35.6316 43.42 34.6316 46 32.3516 44.54Z" fill="url(#paint3_linear_5767_16843)"/>
<path d="M10.5124 37.5701C10.5124 37.5701 9.05236 34.8801 12.3224 33.8201C12.3224 33.8201 13.7224 36.8801 10.5124 37.5701Z" fill="url(#paint4_linear_5767_16843)"/>
<path d="M28.5234 12C28.5234 12 30.8034 10 32.5834 12.92C32.5834 12.93 29.9134 15 28.5234 12Z" fill="url(#paint5_linear_5767_16843)"/>
<path d="M15.6306 40.54C15.1802 41.183 14.7663 41.8507 14.3906 42.54C15.8813 43.447 17.4851 44.1531 19.1606 44.64L19.7406 44.8C19.7919 44.5396 19.8587 44.2825 19.9406 44.03C20.6226 41.8513 22.1203 40.0205 24.1206 38.92" stroke="url(#paint6_linear_5767_16843)" stroke-width="1.7" stroke-linecap="round" stroke-linejoin="round"/>
<path d="M20.1924 35.8101C18.9502 36.7477 17.8167 37.821 16.8125 39.0101" stroke="url(#paint7_linear_5767_16843)" stroke-width="1.7" stroke-linecap="round" stroke-linejoin="round"/>
<path d="M44.0018 13.68C43.6064 13.6401 43.2093 13.62 42.8118 13.62C38.9218 13.62 35.6317 15.48 34.5717 18.04C33.6459 17.3549 32.548 16.9403 31.4005 16.8423C30.2529 16.7444 29.1007 16.9671 28.0722 17.4855C27.0437 18.0039 26.1793 18.7977 25.5754 19.7784C24.9715 20.7591 24.6518 21.8882 24.6518 23.04V23.17C24.0099 22.9424 23.3327 22.8307 22.6518 22.84C21.3795 22.8807 20.153 23.3251 19.1498 24.1088C18.1467 24.8925 17.4188 25.975 17.0715 27.1997C16.7241 28.4244 16.7752 29.7278 17.2175 30.9215C17.6598 32.1152 18.4703 33.1373 19.5318 33.84C19.5892 34.2657 19.6896 34.6846 19.8317 35.09C19.8317 35.21 19.9117 35.32 19.9617 35.44C20.3302 36.3025 20.8959 37.0666 21.6131 37.6709C22.3303 38.2753 23.1792 38.7031 24.0917 38.92C24.5182 39.0193 24.954 39.0729 25.3918 39.08H25.4517C26.2634 39.078 27.0664 38.9113 27.8118 38.59C28.3377 38.3646 28.8264 38.0612 29.2618 37.69C29.4784 38.0116 29.7155 38.3189 29.9717 38.61C30.3995 39.0943 30.8791 39.5302 31.4018 39.91C32.855 40.9704 34.603 41.5507 36.4018 41.57H36.5418C38.7742 41.5704 40.9215 40.7136 42.5405 39.1766C44.1594 37.6395 45.1264 35.5394 45.2418 33.31V33.3L45.3918 33.37C45.6573 33.4019 45.9243 33.4186 46.1917 33.42C46.87 33.4155 47.5439 33.3111 48.1917 33.11C49.4737 32.733 50.6017 31.9563 51.4112 30.8931C52.2207 29.83 52.6693 28.536 52.6917 27.2C52.6941 26.8442 52.6606 26.4891 52.5917 26.14C53.4859 25.9151 54.2806 25.4009 54.8521 24.6774C55.4236 23.954 55.7399 23.0619 55.7518 22.14C55.7337 21.5792 55.6052 21.0274 55.3737 20.5162C55.1423 20.0051 54.8123 19.5445 54.4028 19.161C53.9932 18.7774 53.5121 18.4783 52.9869 18.2808C52.4617 18.0833 51.9026 17.9913 51.3417 18.01H50.9918C50.7485 17.4314 50.4105 16.8975 49.9918 16.43C48.9778 15.3398 47.6896 14.5419 46.2618 14.12" stroke="url(#paint8_linear_5767_16843)" stroke-width="1.7" stroke-linecap="round" stroke-linejoin="round"/>
<path d="M39.1719 35.48H47.0219" stroke="url(#paint9_linear_5767_16843)" stroke-width="1.7" stroke-linecap="round" stroke-linejoin="round"/>
<path d="M4.82031 46.5601C4.82031 46.5601 4.82038 44.4601 8.14038 43.3501" stroke="url(#paint10_linear_5767_16843)" stroke-width="1.7" stroke-linecap="round" stroke-linejoin="round"/>
<path d="M6.73438 46.7601C7.14477 46.0514 7.8158 45.531 8.60437 45.3101" stroke="url(#paint11_linear_5767_16843)" stroke-width="1.7" stroke-linecap="round" stroke-linejoin="round"/>
<path d="M25.8137 46.6801C25.7395 46.0474 25.8336 45.4064 26.0864 44.8217C26.3392 44.237 26.7418 43.7294 27.2536 43.3501" stroke="url(#paint12_linear_5767_16843)" stroke-width="1.7" stroke-linecap="round" stroke-linejoin="round"/>
<path d="M26.563 47.05C26.293 46.68 27.4329 44.54 29.1429 44.36" stroke="url(#paint13_linear_5767_16843)" stroke-width="1.7" stroke-linecap="round" stroke-linejoin="round"/>
<path d="M1.71094 47.05H40.401" stroke="url(#paint14_linear_5767_16843)" stroke-width="1.7" stroke-linecap="round" stroke-linejoin="round"/>
<path d="M39.0234 42.1901H43.6934" stroke="url(#paint15_linear_5767_16843)" stroke-width="1.7" stroke-linecap="round" stroke-linejoin="round"/>
<path d="M35.8681 60.2225C35.8709 60.627 35.7157 61.0329 35.4014 61.3437C34.773 61.9655 33.7471 61.9727 33.1098 61.3598L29.9379 58.3081L26.8097 61.4042C26.1811 62.026 25.1552 62.0333 24.5181 61.4204C23.8811 60.8075 23.874 59.8064 24.5024 59.1844L27.8129 55.9083C28.372 55.3548 29.1187 55.0471 29.9151 55.0415C30.7115 55.0358 31.4622 55.3332 32.0293 55.8786L35.3856 59.1077C35.7043 59.4143 35.8652 59.8177 35.8681 60.2223L35.8681 60.2225Z" fill="#E72856"/>
<path d="M34.6119 60.2315C34.6125 60.3231 34.5774 60.4149 34.5063 60.4853C34.364 60.626 34.1319 60.6277 33.9877 60.4889L30.6313 57.2598C30.4421 57.0778 30.1918 56.9787 29.9263 56.9806C29.6608 56.9825 29.4117 57.0851 29.2253 57.2697L25.9143 60.5458C25.7721 60.6866 25.54 60.6882 25.3958 60.5495C25.2515 60.4107 25.2499 60.1842 25.3922 60.0435L28.7029 56.7672C29.0271 56.4464 29.4596 56.268 29.9213 56.2648C30.3829 56.2615 30.8179 56.4338 31.1465 56.75L34.5027 59.9793C34.5748 60.0486 34.6113 60.1399 34.6119 60.2315Z" fill="#E15A75"/>
<defs>
<linearGradient id="paint0_linear_5767_16843" x1="10.5401" y1="16.259" x2="14.9857" y2="25.0638" gradientUnits="userSpaceOnUse">
<stop stop-color="#FF5963"/>
<stop offset="1" stop-color="#E00E66"/>
</linearGradient>
<linearGradient id="paint1_linear_5767_16843" x1="8.51778" y1="27.9997" x2="11.3262" y2="38.2821" gradientUnits="userSpaceOnUse">
<stop stop-color="#FF5963"/>
<stop offset="1" stop-color="#E00E66"/>
</linearGradient>
<linearGradient id="paint2_linear_5767_16843" x1="12.5308" y1="23.9315" x2="12.8944" y2="25.8873" gradientUnits="userSpaceOnUse">
<stop stop-color="#FF5963"/>
<stop offset="1" stop-color="#E00E66"/>
</linearGradient>
<linearGradient id="paint3_linear_5767_16843" x1="32.4346" y1="43.4655" x2="34.3558" y2="45.9142" gradientUnits="userSpaceOnUse">
<stop stop-color="#FF5963"/>
<stop offset="1" stop-color="#E00E66"/>
</linearGradient>
<linearGradient id="paint4_linear_5767_16843" x1="10.2492" y1="34.6508" x2="13.2627" y2="36.1396" gradientUnits="userSpaceOnUse">
<stop stop-color="#FF5963"/>
<stop offset="1" stop-color="#E00E66"/>
</linearGradient>
<linearGradient id="paint5_linear_5767_16843" x1="28.6262" y1="11.8398" x2="30.8483" y2="14.8283" gradientUnits="userSpaceOnUse">
<stop stop-color="#FF5963"/>
<stop offset="1" stop-color="#E00E66"/>
</linearGradient>
<linearGradient id="paint6_linear_5767_16843" x1="14.637" y1="40.2226" x2="20.4333" y2="47.5097" gradientUnits="userSpaceOnUse">
<stop stop-color="#FF5963"/>
<stop offset="1" stop-color="#E00E66"/>
</linearGradient>
<linearGradient id="paint7_linear_5767_16843" x1="16.8981" y1="36.5189" x2="20.0587" y2="39.0552" gradientUnits="userSpaceOnUse">
<stop stop-color="#FF5963"/>
<stop offset="1" stop-color="#E00E66"/>
</linearGradient>
<linearGradient id="paint8_linear_5767_16843" x1="17.8288" y1="19.8115" x2="46.0618" y2="49.6708" gradientUnits="userSpaceOnUse">
<stop stop-color="#FF5963"/>
<stop offset="1" stop-color="#E00E66"/>
</linearGradient>
<linearGradient id="paint9_linear_5767_16843" x1="39.3706" y1="35.7015" x2="39.7006" y2="37.6696" gradientUnits="userSpaceOnUse">
<stop stop-color="#FF5963"/>
<stop offset="1" stop-color="#E00E66"/>
</linearGradient>
<linearGradient id="paint10_linear_5767_16843" x1="4.90436" y1="44.0612" x2="8.05983" y2="46.5407" gradientUnits="userSpaceOnUse">
<stop stop-color="#FF5963"/>
<stop offset="1" stop-color="#E00E66"/>
</linearGradient>
<linearGradient id="paint11_linear_5767_16843" x1="6.78172" y1="45.6313" x2="8.24839" y2="47.0683" gradientUnits="userSpaceOnUse">
<stop stop-color="#FF5963"/>
<stop offset="1" stop-color="#E00E66"/>
</linearGradient>
<linearGradient id="paint12_linear_5767_16843" x1="25.8261" y1="44.0878" x2="27.8515" y2="44.7645" gradientUnits="userSpaceOnUse">
<stop stop-color="#FF5963"/>
<stop offset="1" stop-color="#E00E66"/>
</linearGradient>
<linearGradient id="paint13_linear_5767_16843" x1="26.5898" y1="44.9559" x2="29.1922" y2="46.8812" gradientUnits="userSpaceOnUse">
<stop stop-color="#FF5963"/>
<stop offset="1" stop-color="#E00E66"/>
</linearGradient>
<linearGradient id="paint14_linear_5767_16843" x1="2.69043" y1="47.2716" x2="2.75919" y2="49.2927" gradientUnits="userSpaceOnUse">
<stop stop-color="#FF5963"/>
<stop offset="1" stop-color="#E00E66"/>
</linearGradient>
<linearGradient id="paint15_linear_5767_16843" x1="39.1417" y1="42.4116" x2="39.67" y2="44.2861" gradientUnits="userSpaceOnUse">
<stop stop-color="#FF5963"/>
<stop offset="1" stop-color="#E00E66"/>
</linearGradient>
</defs>
</svg>
