<svg width="62" height="61" viewBox="0 0 62 61" fill="none" xmlns="http://www.w3.org/2000/svg">
<path d="M22.8496 18.6496C22.8561 18.4329 22.9052 18.2196 22.9941 18.0219C23.0831 17.8241 23.2102 17.6459 23.368 17.4973C23.5259 17.3487 23.7116 17.2327 23.9143 17.1559C24.1171 17.079 24.333 17.0429 24.5497 17.0496M24.5497 22.5096H13.1797H24.7396C25.4637 22.495 26.1523 22.1934 26.6539 21.6711C27.1556 21.1488 27.4293 20.4487 27.4147 19.7246C27.4001 19.0006 27.0985 18.312 26.5762 17.8103C26.0539 17.3087 25.3537 17.035 24.6296 17.0496H24.5796" stroke="url(#paint0_linear_5767_16840)" stroke-width="1.7" stroke-linecap="round" stroke-linejoin="round"/>
<path d="M32.6816 32.6496C32.6881 32.8663 32.7372 33.0796 32.8262 33.2773C32.9151 33.475 33.0421 33.6533 33.2 33.8019C33.3578 33.9505 33.5435 34.0665 33.7462 34.1433C33.949 34.2201 34.1649 34.2562 34.3816 34.2495C34.7401 34.2568 35.0966 34.1933 35.4305 34.0628C35.7645 33.9323 36.0695 33.7372 36.3281 33.4888C36.5867 33.2404 36.7939 32.9435 36.9377 32.6151C37.0816 32.2866 37.1594 31.9331 37.1666 31.5746C37.1738 31.216 37.1104 30.8596 36.9799 30.5256C36.8493 30.1917 36.6543 29.8867 36.4059 29.628C36.1575 29.3694 35.8606 29.1623 35.5321 29.0184C35.2036 28.8745 34.8501 28.7968 34.4916 28.7896H10.8516" stroke="url(#paint1_linear_5767_16840)" stroke-width="1.7" stroke-linecap="round" stroke-linejoin="round"/>
<path d="M15.3516 25.7095H22.4316" stroke="url(#paint2_linear_5767_16840)" stroke-width="1.7" stroke-linecap="round" stroke-linejoin="round"/>
<path d="M35.3516 46.5395C35.3516 46.5395 36.0916 44.1095 38.6316 45.4195C38.6316 45.4195 37.6316 47.9995 35.3516 46.5395Z" fill="url(#paint3_linear_5767_16840)"/>
<path d="M13.5124 39.5696C13.5124 39.5696 12.0524 36.8796 15.3224 35.8196C15.3224 35.8196 16.7224 38.8796 13.5124 39.5696Z" fill="url(#paint4_linear_5767_16840)"/>
<path d="M31.5234 13.9995C31.5234 13.9995 33.8034 11.9995 35.5834 14.9195C35.5834 14.9295 32.9134 16.9995 31.5234 13.9995Z" fill="url(#paint5_linear_5767_16840)"/>
<path d="M18.6306 42.5396C18.1802 43.1825 17.7663 43.8502 17.3906 44.5396C18.8813 45.4465 20.4851 46.1526 22.1606 46.6396L22.7406 46.7996C22.7919 46.5391 22.8587 46.282 22.9406 46.0296C23.6226 43.8508 25.1203 42.02 27.1206 40.9196" stroke="url(#paint6_linear_5767_16840)" stroke-width="1.7" stroke-linecap="round" stroke-linejoin="round"/>
<path d="M23.1924 37.8096C21.9502 38.7473 20.8167 39.8206 19.8125 41.0096" stroke="url(#paint7_linear_5767_16840)" stroke-width="1.7" stroke-linecap="round" stroke-linejoin="round"/>
<path d="M47.0018 15.6795C46.6064 15.6396 46.2093 15.6195 45.8118 15.6195C41.9218 15.6195 38.6317 17.4795 37.5717 20.0395C36.6459 19.3544 35.548 18.9398 34.4005 18.8419C33.2529 18.744 32.1007 18.9666 31.0722 19.485C30.0437 20.0034 29.1793 20.7972 28.5754 21.7779C27.9715 22.7586 27.6518 23.8878 27.6518 25.0395V25.1695C27.0099 24.9419 26.3327 24.8302 25.6518 24.8395C24.3795 24.8802 23.153 25.3246 22.1498 26.1083C21.1467 26.892 20.4188 27.9745 20.0715 29.1992C19.7241 30.4239 19.7752 31.7273 20.2175 32.921C20.6598 34.1147 21.4703 35.1368 22.5318 35.8395C22.5892 36.2653 22.6896 36.6841 22.8317 37.0895C22.8317 37.2095 22.9117 37.3195 22.9617 37.4395C23.3302 38.302 23.8959 39.0661 24.6131 39.6705C25.3303 40.2748 26.1792 40.7026 27.0917 40.9195C27.5182 41.0188 27.954 41.0725 28.3918 41.0795H28.4517C29.2634 41.0775 30.0664 40.9108 30.8118 40.5895C31.3377 40.3641 31.8264 40.0607 32.2618 39.6895C32.4784 40.0111 32.7155 40.3185 32.9717 40.6095C33.3995 41.0938 33.8791 41.5297 34.4018 41.9095C35.855 42.9699 37.603 43.5502 39.4018 43.5695H39.5418C41.7742 43.5699 43.9215 42.7132 45.5405 41.1761C47.1594 39.639 48.1264 37.5389 48.2418 35.3095V35.2995L48.3918 35.3695C48.6573 35.4014 48.9243 35.4181 49.1917 35.4195C49.87 35.415 50.5439 35.3106 51.1917 35.1095C52.4737 34.7325 53.6017 33.9558 54.4112 32.8926C55.2207 31.8295 55.6693 30.5356 55.6917 29.1995C55.6941 28.8437 55.6606 28.4886 55.5917 28.1395C56.4859 27.9146 57.2806 27.4004 57.8521 26.677C58.4236 25.9535 58.7399 25.0614 58.7518 24.1395C58.7337 23.5787 58.6052 23.0269 58.3737 22.5157C58.1423 22.0046 57.8123 21.544 57.4028 21.1605C56.9932 20.7769 56.5121 20.4778 55.9869 20.2803C55.4617 20.0828 54.9026 19.9908 54.3417 20.0095H53.9918C53.7485 19.431 53.4105 18.897 52.9918 18.4295C51.9778 17.3393 50.6896 16.5415 49.2618 16.1195" stroke="url(#paint8_linear_5767_16840)" stroke-width="1.7" stroke-linecap="round" stroke-linejoin="round"/>
<path d="M42.1719 37.4795H50.0219" stroke="url(#paint9_linear_5767_16840)" stroke-width="1.7" stroke-linecap="round" stroke-linejoin="round"/>
<path d="M7.82031 48.5596C7.82031 48.5596 7.82038 46.4596 11.1404 45.3496" stroke="url(#paint10_linear_5767_16840)" stroke-width="1.7" stroke-linecap="round" stroke-linejoin="round"/>
<path d="M9.73438 48.7596C10.1448 48.0509 10.8158 47.5306 11.6044 47.3096" stroke="url(#paint11_linear_5767_16840)" stroke-width="1.7" stroke-linecap="round" stroke-linejoin="round"/>
<path d="M28.8137 48.6796C28.7395 48.0469 28.8336 47.4059 29.0864 46.8212C29.3392 46.2365 29.7418 45.7289 30.2536 45.3496" stroke="url(#paint12_linear_5767_16840)" stroke-width="1.7" stroke-linecap="round" stroke-linejoin="round"/>
<path d="M29.563 49.0495C29.293 48.6795 30.4329 46.5395 32.1429 46.3595" stroke="url(#paint13_linear_5767_16840)" stroke-width="1.7" stroke-linecap="round" stroke-linejoin="round"/>
<path d="M4.71094 49.0496H43.401" stroke="url(#paint14_linear_5767_16840)" stroke-width="1.7" stroke-linecap="round" stroke-linejoin="round"/>
<path d="M42.0234 44.1896H46.6934" stroke="url(#paint15_linear_5767_16840)" stroke-width="1.7" stroke-linecap="round" stroke-linejoin="round"/>
<path d="M1.07701 9.21026C0.801723 8.91381 0.642158 8.50961 0.664075 8.06815C0.707609 7.18523 1.45941 6.48708 2.3433 6.50878L6.74356 6.61754L6.96 2.22157C7.0037 1.33849 7.7555 0.640351 8.63922 0.662194C9.52295 0.684037 10.2042 1.4176 10.1608 2.30068L9.93141 6.95252C9.89281 7.73837 9.54996 8.46953 8.96635 9.01148C8.38274 9.55344 7.62826 9.84101 6.84169 9.82172L2.18562 9.70664C1.74361 9.69571 1.35245 9.50686 1.07716 9.21041L1.07701 9.21026Z" fill="#E72856"/>
<path d="M1.99589 8.35681C1.93359 8.28972 1.89752 8.19825 1.90245 8.09831C1.9123 7.89843 2.08239 7.74048 2.28246 7.74542L6.93853 7.86051C7.20097 7.86699 7.45247 7.77104 7.64706 7.59034C7.84164 7.40963 7.95609 7.16577 7.96886 6.90372L8.19854 2.25158C8.20839 2.0517 8.37848 1.89375 8.57855 1.89869C8.77861 1.90364 8.93273 2.0696 8.92287 2.26948L8.6935 6.92163C8.67104 7.37709 8.47246 7.80077 8.13419 8.1149C7.79591 8.42904 7.35871 8.59576 6.90283 8.58449L2.24678 8.4691C2.14674 8.46663 2.0582 8.4239 1.99589 8.35681Z" fill="#E15A75"/>
<defs>
<linearGradient id="paint0_linear_5767_16840" x1="13.5401" y1="18.2585" x2="17.9857" y2="27.0633" gradientUnits="userSpaceOnUse">
<stop stop-color="#FF5963"/>
<stop offset="1" stop-color="#E00E66"/>
</linearGradient>
<linearGradient id="paint1_linear_5767_16840" x1="11.5178" y1="29.9992" x2="14.3262" y2="40.2816" gradientUnits="userSpaceOnUse">
<stop stop-color="#FF5963"/>
<stop offset="1" stop-color="#E00E66"/>
</linearGradient>
<linearGradient id="paint2_linear_5767_16840" x1="15.5308" y1="25.931" x2="15.8944" y2="27.8868" gradientUnits="userSpaceOnUse">
<stop stop-color="#FF5963"/>
<stop offset="1" stop-color="#E00E66"/>
</linearGradient>
<linearGradient id="paint3_linear_5767_16840" x1="35.4346" y1="45.465" x2="37.3558" y2="47.9137" gradientUnits="userSpaceOnUse">
<stop stop-color="#FF5963"/>
<stop offset="1" stop-color="#E00E66"/>
</linearGradient>
<linearGradient id="paint4_linear_5767_16840" x1="13.2492" y1="36.6503" x2="16.2627" y2="38.1392" gradientUnits="userSpaceOnUse">
<stop stop-color="#FF5963"/>
<stop offset="1" stop-color="#E00E66"/>
</linearGradient>
<linearGradient id="paint5_linear_5767_16840" x1="31.6262" y1="13.8393" x2="33.8483" y2="16.8278" gradientUnits="userSpaceOnUse">
<stop stop-color="#FF5963"/>
<stop offset="1" stop-color="#E00E66"/>
</linearGradient>
<linearGradient id="paint6_linear_5767_16840" x1="17.637" y1="42.2221" x2="23.4333" y2="49.5092" gradientUnits="userSpaceOnUse">
<stop stop-color="#FF5963"/>
<stop offset="1" stop-color="#E00E66"/>
</linearGradient>
<linearGradient id="paint7_linear_5767_16840" x1="19.8981" y1="38.5184" x2="23.0587" y2="41.0547" gradientUnits="userSpaceOnUse">
<stop stop-color="#FF5963"/>
<stop offset="1" stop-color="#E00E66"/>
</linearGradient>
<linearGradient id="paint8_linear_5767_16840" x1="20.8288" y1="21.811" x2="49.0618" y2="51.6703" gradientUnits="userSpaceOnUse">
<stop stop-color="#FF5963"/>
<stop offset="1" stop-color="#E00E66"/>
</linearGradient>
<linearGradient id="paint9_linear_5767_16840" x1="42.3706" y1="37.701" x2="42.7006" y2="39.6691" gradientUnits="userSpaceOnUse">
<stop stop-color="#FF5963"/>
<stop offset="1" stop-color="#E00E66"/>
</linearGradient>
<linearGradient id="paint10_linear_5767_16840" x1="7.90436" y1="46.0607" x2="11.0598" y2="48.5402" gradientUnits="userSpaceOnUse">
<stop stop-color="#FF5963"/>
<stop offset="1" stop-color="#E00E66"/>
</linearGradient>
<linearGradient id="paint11_linear_5767_16840" x1="9.78172" y1="47.6308" x2="11.2484" y2="49.0678" gradientUnits="userSpaceOnUse">
<stop stop-color="#FF5963"/>
<stop offset="1" stop-color="#E00E66"/>
</linearGradient>
<linearGradient id="paint12_linear_5767_16840" x1="28.8261" y1="46.0873" x2="30.8515" y2="46.764" gradientUnits="userSpaceOnUse">
<stop stop-color="#FF5963"/>
<stop offset="1" stop-color="#E00E66"/>
</linearGradient>
<linearGradient id="paint13_linear_5767_16840" x1="29.5898" y1="46.9554" x2="32.1922" y2="48.8808" gradientUnits="userSpaceOnUse">
<stop stop-color="#FF5963"/>
<stop offset="1" stop-color="#E00E66"/>
</linearGradient>
<linearGradient id="paint14_linear_5767_16840" x1="5.69043" y1="49.2711" x2="5.75919" y2="51.2922" gradientUnits="userSpaceOnUse">
<stop stop-color="#FF5963"/>
<stop offset="1" stop-color="#E00E66"/>
</linearGradient>
<linearGradient id="paint15_linear_5767_16840" x1="42.1417" y1="44.4111" x2="42.67" y2="46.2856" gradientUnits="userSpaceOnUse">
<stop stop-color="#FF5963"/>
<stop offset="1" stop-color="#E00E66"/>
</linearGradient>
</defs>
</svg>
