<svg width="71" height="95" viewBox="0 0 71 95" fill="none" xmlns="http://www.w3.org/2000/svg">
<path d="M31.8496 52.59C31.8561 52.3733 31.9052 52.16 31.9941 51.9623C32.0831 51.7646 32.2102 51.5863 32.368 51.4377C32.5259 51.2891 32.7116 51.1731 32.9143 51.0963C33.1171 51.0195 33.333 50.9834 33.5497 50.99M33.5497 56.45H22.1797H33.7396C34.4637 56.4355 35.1523 56.1338 35.6539 55.6115C36.1556 55.0893 36.4293 54.3891 36.4147 53.665C36.4001 52.941 36.0985 52.2524 35.5762 51.7507C35.0539 51.2491 34.3537 50.9755 33.6296 50.99H33.5796" stroke="url(#paint0_linear_5767_16847)" stroke-width="1.7" stroke-linecap="round" stroke-linejoin="round"/>
<path d="M41.6816 66.5901C41.6881 66.8068 41.7372 67.0201 41.8262 67.2178C41.9151 67.4156 42.0421 67.5938 42.2 67.7424C42.3578 67.891 42.5435 68.007 42.7462 68.0838C42.949 68.1607 43.1649 68.1968 43.3816 68.1901C43.7401 68.1973 44.0966 68.1339 44.4305 68.0033C44.7645 67.8728 45.0695 67.6778 45.3281 67.4294C45.5867 67.181 45.7939 66.8841 45.9377 66.5556C46.0816 66.2272 46.1594 65.8736 46.1666 65.5151C46.1738 65.1566 46.1104 64.8002 45.9799 64.4662C45.8493 64.1322 45.6543 63.8272 45.4059 63.5686C45.1575 63.31 44.8606 63.1028 44.5321 62.959C44.2036 62.8151 43.8501 62.7373 43.4916 62.7301H19.8516" stroke="url(#paint1_linear_5767_16847)" stroke-width="1.7" stroke-linecap="round" stroke-linejoin="round"/>
<path d="M24.3516 59.6501H31.4316" stroke="url(#paint2_linear_5767_16847)" stroke-width="1.7" stroke-linecap="round" stroke-linejoin="round"/>
<path d="M44.3516 80.4801C44.3516 80.4801 45.0916 78.0501 47.6316 79.3601C47.6316 79.3601 46.6316 81.9401 44.3516 80.4801Z" fill="url(#paint3_linear_5767_16847)"/>
<path d="M22.5124 73.5101C22.5124 73.5101 21.0524 70.8201 24.3224 69.7601C24.3224 69.7601 25.7224 72.8201 22.5124 73.5101Z" fill="url(#paint4_linear_5767_16847)"/>
<path d="M40.5234 47.9401C40.5234 47.9401 42.8034 45.9401 44.5834 48.8601C44.5834 48.8701 41.9134 50.9401 40.5234 47.9401Z" fill="url(#paint5_linear_5767_16847)"/>
<path d="M27.6306 76.4801C27.1802 77.1231 26.7663 77.7908 26.3906 78.4801C27.8813 79.387 29.4851 80.0931 31.1606 80.5801L31.7406 80.7401C31.7919 80.4797 31.8587 80.2226 31.9406 79.9701C32.6226 77.7914 34.1203 75.9605 36.1206 74.8601" stroke="url(#paint6_linear_5767_16847)" stroke-width="1.7" stroke-linecap="round" stroke-linejoin="round"/>
<path d="M32.1924 71.7501C30.9502 72.6878 29.8167 73.7611 28.8125 74.9501" stroke="url(#paint7_linear_5767_16847)" stroke-width="1.7" stroke-linecap="round" stroke-linejoin="round"/>
<path d="M56.0018 49.6201C55.6064 49.5801 55.2093 49.5601 54.8118 49.5601C50.9218 49.5601 47.6317 51.4201 46.5717 53.9801C45.6459 53.2949 44.548 52.8803 43.4005 52.7824C42.2529 52.6845 41.1007 52.9072 40.0722 53.4255C39.0437 53.9439 38.1793 54.7377 37.5754 55.7184C36.9715 56.6992 36.6518 57.8283 36.6518 58.9801V59.1101C36.0099 58.8825 35.3327 58.7708 34.6518 58.7801C33.3795 58.8208 32.153 59.2651 31.1498 60.0489C30.1467 60.8326 29.4188 61.9151 29.0715 63.1397C28.7241 64.3644 28.7752 65.6679 29.2175 66.8616C29.6598 68.0553 30.4703 69.0774 31.5318 69.7801C31.5892 70.2058 31.6896 70.6246 31.8317 71.0301C31.8317 71.1501 31.9117 71.2601 31.9617 71.3801C32.3302 72.2426 32.8959 73.0066 33.6131 73.611C34.3303 74.2154 35.1792 74.6432 36.0917 74.8601C36.5182 74.9594 36.954 75.013 37.3918 75.0201H37.4517C38.2634 75.018 39.0664 74.8513 39.8118 74.5301C40.3377 74.3047 40.8264 74.0012 41.2618 73.6301C41.4784 73.9517 41.7155 74.259 41.9717 74.5501C42.3995 75.0344 42.8791 75.4703 43.4018 75.8501C44.855 76.9104 46.603 77.4907 48.4018 77.5101H48.5418C50.7742 77.5105 52.9215 76.6537 54.5405 75.1166C56.1594 73.5795 57.1264 71.4795 57.2418 69.2501V69.2401L57.3918 69.3101C57.6573 69.342 57.9243 69.3587 58.1917 69.3601C58.87 69.3556 59.5439 69.2511 60.1917 69.0501C61.4737 68.673 62.6017 67.8963 63.4112 66.8332C64.2207 65.77 64.6693 64.4761 64.6917 63.1401C64.6941 62.7843 64.6606 62.4291 64.5917 62.0801C65.4859 61.8552 66.2806 61.341 66.8521 60.6175C67.4236 59.8941 67.7399 59.0019 67.7518 58.0801C67.7337 57.5192 67.6052 56.9674 67.3737 56.4563C67.1423 55.9451 66.8123 55.4846 66.4028 55.101C65.9932 54.7175 65.5121 54.4184 64.9869 54.2209C64.4617 54.0234 63.9026 53.9314 63.3417 53.9501H62.9918C62.7485 53.3715 62.4105 52.8375 61.9918 52.3701C60.9778 51.2798 59.6896 50.482 58.2618 50.0601" stroke="url(#paint8_linear_5767_16847)" stroke-width="1.7" stroke-linecap="round" stroke-linejoin="round"/>
<path d="M51.1719 71.42H59.0219" stroke="url(#paint9_linear_5767_16847)" stroke-width="1.7" stroke-linecap="round" stroke-linejoin="round"/>
<path d="M16.8203 82.5C16.8203 82.5 16.8204 80.4 20.1404 79.29" stroke="url(#paint10_linear_5767_16847)" stroke-width="1.7" stroke-linecap="round" stroke-linejoin="round"/>
<path d="M18.7344 82.7001C19.1448 81.9914 19.8158 81.4711 20.6044 81.2501" stroke="url(#paint11_linear_5767_16847)" stroke-width="1.7" stroke-linecap="round" stroke-linejoin="round"/>
<path d="M37.8137 82.62C37.7395 81.9874 37.8336 81.3463 38.0864 80.7616C38.3392 80.1769 38.7418 79.6693 39.2536 79.29" stroke="url(#paint12_linear_5767_16847)" stroke-width="1.7" stroke-linecap="round" stroke-linejoin="round"/>
<path d="M38.563 82.99C38.293 82.62 39.4329 80.48 41.1429 80.3" stroke="url(#paint13_linear_5767_16847)" stroke-width="1.7" stroke-linecap="round" stroke-linejoin="round"/>
<path d="M13.7109 82.9901H52.401" stroke="url(#paint14_linear_5767_16847)" stroke-width="1.7" stroke-linecap="round" stroke-linejoin="round"/>
<path d="M51.0234 78.1301H55.6934" stroke="url(#paint15_linear_5767_16847)" stroke-width="1.7" stroke-linecap="round" stroke-linejoin="round"/>
<path d="M36.0145 27.7175C36.0099 27.313 36.1633 26.9064 36.4762 26.5942C37.1017 25.9696 38.1276 25.9577 38.7676 26.5678L41.9533 29.6051L45.0675 26.495C45.6933 25.8703 46.7192 25.8585 47.359 26.4685C47.9988 27.0785 48.0103 28.0795 47.3848 28.7043L44.0891 31.9953C43.5324 32.5514 42.7872 32.8625 41.9908 32.8717C41.1945 32.8809 40.4425 32.5868 39.8729 32.044L36.502 28.8301C36.182 28.525 36.0192 28.1223 36.0145 27.7177L36.0145 27.7175Z" fill="#E72856"/>
<path d="M37.0073 27.4656C37.0062 27.374 37.041 27.282 37.1118 27.2113C37.2534 27.0699 37.4855 27.0672 37.6303 27.2053L41.0012 30.4193C41.1912 30.6004 41.442 30.6984 41.7075 30.6953C41.973 30.6922 42.2217 30.5885 42.4072 30.403L45.7034 27.112C45.845 26.9706 46.0771 26.968 46.2219 27.1061C46.3668 27.2442 46.3694 27.4706 46.2278 27.612L42.9318 30.9032C42.6091 31.2254 42.1774 31.4058 41.7158 31.4111C41.2542 31.4164 40.8184 31.2461 40.4883 30.9315L37.1176 27.7173C37.0452 27.6483 37.0083 27.5571 37.0073 27.4656Z" fill="#E15A75"/>
<defs>
<linearGradient id="paint0_linear_5767_16847" x1="22.5401" y1="52.1989" x2="26.9857" y2="61.0037" gradientUnits="userSpaceOnUse">
<stop stop-color="#FF5963"/>
<stop offset="1" stop-color="#E00E66"/>
</linearGradient>
<linearGradient id="paint1_linear_5767_16847" x1="20.5178" y1="63.9398" x2="23.3262" y2="74.2221" gradientUnits="userSpaceOnUse">
<stop stop-color="#FF5963"/>
<stop offset="1" stop-color="#E00E66"/>
</linearGradient>
<linearGradient id="paint2_linear_5767_16847" x1="24.5308" y1="59.8717" x2="24.8944" y2="61.8275" gradientUnits="userSpaceOnUse">
<stop stop-color="#FF5963"/>
<stop offset="1" stop-color="#E00E66"/>
</linearGradient>
<linearGradient id="paint3_linear_5767_16847" x1="44.4346" y1="79.4055" x2="46.3558" y2="81.8543" gradientUnits="userSpaceOnUse">
<stop stop-color="#FF5963"/>
<stop offset="1" stop-color="#E00E66"/>
</linearGradient>
<linearGradient id="paint4_linear_5767_16847" x1="22.2492" y1="70.5908" x2="25.2627" y2="72.0797" gradientUnits="userSpaceOnUse">
<stop stop-color="#FF5963"/>
<stop offset="1" stop-color="#E00E66"/>
</linearGradient>
<linearGradient id="paint5_linear_5767_16847" x1="40.6262" y1="47.7799" x2="42.8483" y2="50.7683" gradientUnits="userSpaceOnUse">
<stop stop-color="#FF5963"/>
<stop offset="1" stop-color="#E00E66"/>
</linearGradient>
<linearGradient id="paint6_linear_5767_16847" x1="26.637" y1="76.1626" x2="32.4333" y2="83.4498" gradientUnits="userSpaceOnUse">
<stop stop-color="#FF5963"/>
<stop offset="1" stop-color="#E00E66"/>
</linearGradient>
<linearGradient id="paint7_linear_5767_16847" x1="28.8981" y1="72.459" x2="32.0587" y2="74.9952" gradientUnits="userSpaceOnUse">
<stop stop-color="#FF5963"/>
<stop offset="1" stop-color="#E00E66"/>
</linearGradient>
<linearGradient id="paint8_linear_5767_16847" x1="29.8288" y1="55.7515" x2="58.0618" y2="85.6109" gradientUnits="userSpaceOnUse">
<stop stop-color="#FF5963"/>
<stop offset="1" stop-color="#E00E66"/>
</linearGradient>
<linearGradient id="paint9_linear_5767_16847" x1="51.3706" y1="71.6416" x2="51.7006" y2="73.6097" gradientUnits="userSpaceOnUse">
<stop stop-color="#FF5963"/>
<stop offset="1" stop-color="#E00E66"/>
</linearGradient>
<linearGradient id="paint10_linear_5767_16847" x1="16.9044" y1="80.0011" x2="20.0598" y2="82.4807" gradientUnits="userSpaceOnUse">
<stop stop-color="#FF5963"/>
<stop offset="1" stop-color="#E00E66"/>
</linearGradient>
<linearGradient id="paint11_linear_5767_16847" x1="18.7817" y1="81.5713" x2="20.2484" y2="83.0084" gradientUnits="userSpaceOnUse">
<stop stop-color="#FF5963"/>
<stop offset="1" stop-color="#E00E66"/>
</linearGradient>
<linearGradient id="paint12_linear_5767_16847" x1="37.8261" y1="80.0277" x2="39.8515" y2="80.7044" gradientUnits="userSpaceOnUse">
<stop stop-color="#FF5963"/>
<stop offset="1" stop-color="#E00E66"/>
</linearGradient>
<linearGradient id="paint13_linear_5767_16847" x1="38.5898" y1="80.8959" x2="41.1922" y2="82.8213" gradientUnits="userSpaceOnUse">
<stop stop-color="#FF5963"/>
<stop offset="1" stop-color="#E00E66"/>
</linearGradient>
<linearGradient id="paint14_linear_5767_16847" x1="14.6904" y1="83.2116" x2="14.7592" y2="85.2327" gradientUnits="userSpaceOnUse">
<stop stop-color="#FF5963"/>
<stop offset="1" stop-color="#E00E66"/>
</linearGradient>
<linearGradient id="paint15_linear_5767_16847" x1="51.1417" y1="78.3516" x2="51.67" y2="80.2262" gradientUnits="userSpaceOnUse">
<stop stop-color="#FF5963"/>
<stop offset="1" stop-color="#E00E66"/>
</linearGradient>
</defs>
</svg>
