<svg width="61" height="63" viewBox="0 0 61 63" fill="none" xmlns="http://www.w3.org/2000/svg">
<path d="M19.8496 20.6501C19.8561 20.4334 19.9052 20.2201 19.9941 20.0224C20.0831 19.8246 20.2102 19.6464 20.368 19.4978C20.5259 19.3492 20.7116 19.2332 20.9143 19.1564C21.1171 19.0795 21.333 19.0434 21.5497 19.0501M21.5497 24.5101H10.1797H21.7396C22.4637 24.4955 23.1523 24.1939 23.6539 23.6716C24.1556 23.1493 24.4293 22.4491 24.4147 21.7251C24.4001 21.0011 24.0985 20.3125 23.5762 19.8108C23.0539 19.3091 22.3537 19.0355 21.6296 19.0501H21.5796" stroke="url(#paint0_linear_5767_16846)" stroke-width="1.7" stroke-linecap="round" stroke-linejoin="round"/>
<path d="M29.6816 34.65C29.6881 34.8668 29.7372 35.0801 29.8262 35.2778C29.9151 35.4755 30.0421 35.6538 30.2 35.8023C30.3578 35.9509 30.5435 36.067 30.7462 36.1438C30.949 36.2206 31.1649 36.2567 31.3816 36.25C31.7401 36.2573 32.0966 36.1938 32.4305 36.0633C32.7645 35.9328 33.0695 35.7377 33.3281 35.4893C33.5867 35.2409 33.7939 34.944 33.9377 34.6156C34.0816 34.2871 34.1594 33.9335 34.1666 33.575C34.1738 33.2165 34.1104 32.8601 33.9799 32.5261C33.8493 32.1921 33.6543 31.8871 33.4059 31.6285C33.1575 31.3699 32.8606 31.1628 32.5321 31.0189C32.2036 30.875 31.8501 30.7973 31.4916 30.79H7.85156" stroke="url(#paint1_linear_5767_16846)" stroke-width="1.7" stroke-linecap="round" stroke-linejoin="round"/>
<path d="M12.3516 27.71H19.4316" stroke="url(#paint2_linear_5767_16846)" stroke-width="1.7" stroke-linecap="round" stroke-linejoin="round"/>
<path d="M32.3516 48.54C32.3516 48.54 33.0916 46.11 35.6316 47.42C35.6316 47.42 34.6316 50 32.3516 48.54Z" fill="url(#paint3_linear_5767_16846)"/>
<path d="M10.5124 41.5701C10.5124 41.5701 9.05236 38.8801 12.3224 37.8201C12.3224 37.8201 13.7224 40.8801 10.5124 41.5701Z" fill="url(#paint4_linear_5767_16846)"/>
<path d="M28.5234 16C28.5234 16 30.8034 14 32.5834 16.92C32.5834 16.93 29.9134 19 28.5234 16Z" fill="url(#paint5_linear_5767_16846)"/>
<path d="M15.6306 44.54C15.1802 45.183 14.7663 45.8507 14.3906 46.54C15.8813 47.447 17.4851 48.1531 19.1606 48.64L19.7406 48.8C19.7919 48.5396 19.8587 48.2825 19.9406 48.03C20.6226 45.8513 22.1203 44.0205 24.1206 42.92" stroke="url(#paint6_linear_5767_16846)" stroke-width="1.7" stroke-linecap="round" stroke-linejoin="round"/>
<path d="M20.1924 39.8101C18.9502 40.7477 17.8167 41.821 16.8125 43.0101" stroke="url(#paint7_linear_5767_16846)" stroke-width="1.7" stroke-linecap="round" stroke-linejoin="round"/>
<path d="M44.0018 17.68C43.6064 17.6401 43.2093 17.62 42.8118 17.62C38.9218 17.62 35.6317 19.48 34.5717 22.04C33.6459 21.3549 32.548 20.9403 31.4005 20.8423C30.2529 20.7444 29.1007 20.9671 28.0722 21.4855C27.0437 22.0039 26.1793 22.7977 25.5754 23.7784C24.9715 24.7591 24.6518 25.8882 24.6518 27.04V27.17C24.0099 26.9424 23.3327 26.8307 22.6518 26.84C21.3795 26.8807 20.153 27.3251 19.1498 28.1088C18.1467 28.8925 17.4188 29.975 17.0715 31.1997C16.7241 32.4244 16.7752 33.7278 17.2175 34.9215C17.6598 36.1152 18.4703 37.1373 19.5318 37.84C19.5892 38.2657 19.6896 38.6846 19.8317 39.09C19.8317 39.21 19.9117 39.32 19.9617 39.44C20.3302 40.3025 20.8959 41.0666 21.6131 41.6709C22.3303 42.2753 23.1792 42.7031 24.0917 42.92C24.5182 43.0193 24.954 43.0729 25.3918 43.08H25.4517C26.2634 43.078 27.0664 42.9113 27.8118 42.59C28.3377 42.3646 28.8264 42.0612 29.2618 41.69C29.4784 42.0116 29.7155 42.3189 29.9717 42.61C30.3995 43.0943 30.8791 43.5302 31.4018 43.91C32.855 44.9704 34.603 45.5507 36.4018 45.57H36.5418C38.7742 45.5704 40.9215 44.7136 42.5405 43.1766C44.1594 41.6395 45.1264 39.5394 45.2418 37.31V37.3L45.3918 37.37C45.6573 37.4019 45.9243 37.4186 46.1917 37.42C46.87 37.4155 47.5439 37.3111 48.1917 37.11C49.4737 36.733 50.6017 35.9563 51.4112 34.8931C52.2207 33.83 52.6693 32.536 52.6917 31.2C52.6941 30.8442 52.6606 30.4891 52.5917 30.14C53.4859 29.9151 54.2806 29.4009 54.8521 28.6774C55.4236 27.954 55.7399 27.0619 55.7518 26.14C55.7337 25.5792 55.6052 25.0274 55.3737 24.5162C55.1423 24.0051 54.8123 23.5445 54.4028 23.161C53.9932 22.7774 53.5121 22.4783 52.9869 22.2808C52.4617 22.0833 51.9026 21.9913 51.3417 22.01H50.9918C50.7485 21.4314 50.4105 20.8975 49.9918 20.43C48.9778 19.3398 47.6896 18.5419 46.2618 18.12" stroke="url(#paint8_linear_5767_16846)" stroke-width="1.7" stroke-linecap="round" stroke-linejoin="round"/>
<path d="M39.1719 39.48H47.0219" stroke="url(#paint9_linear_5767_16846)" stroke-width="1.7" stroke-linecap="round" stroke-linejoin="round"/>
<path d="M4.82031 50.5601C4.82031 50.5601 4.82038 48.4601 8.14038 47.3501" stroke="url(#paint10_linear_5767_16846)" stroke-width="1.7" stroke-linecap="round" stroke-linejoin="round"/>
<path d="M6.73438 50.7601C7.14477 50.0514 7.8158 49.531 8.60437 49.3101" stroke="url(#paint11_linear_5767_16846)" stroke-width="1.7" stroke-linecap="round" stroke-linejoin="round"/>
<path d="M25.8137 50.6801C25.7395 50.0474 25.8336 49.4064 26.0864 48.8217C26.3392 48.237 26.7418 47.7294 27.2536 47.3501" stroke="url(#paint12_linear_5767_16846)" stroke-width="1.7" stroke-linecap="round" stroke-linejoin="round"/>
<path d="M26.563 51.05C26.293 50.68 27.4329 48.54 29.1429 48.36" stroke="url(#paint13_linear_5767_16846)" stroke-width="1.7" stroke-linecap="round" stroke-linejoin="round"/>
<path d="M1.71094 51.05H40.401" stroke="url(#paint14_linear_5767_16846)" stroke-width="1.7" stroke-linecap="round" stroke-linejoin="round"/>
<path d="M39.0234 46.1901H43.6934" stroke="url(#paint15_linear_5767_16846)" stroke-width="1.7" stroke-linecap="round" stroke-linejoin="round"/>
<path d="M50.5503 1.15853C50.8256 0.862076 51.2169 0.673063 51.6587 0.66228C52.5425 0.640415 53.2943 1.33854 53.338 2.22161L53.5549 6.61787L57.9548 6.5087C58.8387 6.48699 59.5905 7.18511 59.6341 8.06803C59.6776 8.95096 58.9964 9.68454 58.1126 9.70656L53.4565 9.82176C52.67 9.84137 51.9155 9.55352 51.3318 9.01158C50.7482 8.46964 50.4056 7.73848 50.3667 6.95264L50.1372 2.3008C50.1155 1.85919 50.2749 1.45514 50.5501 1.15869L50.5503 1.15853Z" fill="#E72856"/>
<path d="M51.4697 2.01153C51.532 1.94444 51.6205 1.90171 51.7206 1.89923C51.9206 1.89428 52.0907 2.05223 52.1006 2.25211L52.3301 6.90395C52.343 7.16615 52.4573 7.40986 52.6519 7.59056C52.8465 7.77126 53.0981 7.86735 53.3604 7.86071L58.0168 7.7458C58.2169 7.74085 58.387 7.8988 58.3968 8.09868C58.4067 8.29857 58.2526 8.46453 58.0525 8.46948L53.3961 8.58469C52.9403 8.59597 52.5031 8.42927 52.1648 8.11514C51.8265 7.80101 51.6279 7.37734 51.6054 6.92188L51.3763 2.27003C51.3713 2.17009 51.4074 2.07863 51.4697 2.01153Z" fill="#E15A75"/>
<defs>
<linearGradient id="paint0_linear_5767_16846" x1="10.5401" y1="20.259" x2="14.9857" y2="29.0638" gradientUnits="userSpaceOnUse">
<stop stop-color="#FF5963"/>
<stop offset="1" stop-color="#E00E66"/>
</linearGradient>
<linearGradient id="paint1_linear_5767_16846" x1="8.51778" y1="31.9997" x2="11.3262" y2="42.2821" gradientUnits="userSpaceOnUse">
<stop stop-color="#FF5963"/>
<stop offset="1" stop-color="#E00E66"/>
</linearGradient>
<linearGradient id="paint2_linear_5767_16846" x1="12.5308" y1="27.9315" x2="12.8944" y2="29.8873" gradientUnits="userSpaceOnUse">
<stop stop-color="#FF5963"/>
<stop offset="1" stop-color="#E00E66"/>
</linearGradient>
<linearGradient id="paint3_linear_5767_16846" x1="32.4346" y1="47.4655" x2="34.3558" y2="49.9142" gradientUnits="userSpaceOnUse">
<stop stop-color="#FF5963"/>
<stop offset="1" stop-color="#E00E66"/>
</linearGradient>
<linearGradient id="paint4_linear_5767_16846" x1="10.2492" y1="38.6508" x2="13.2627" y2="40.1396" gradientUnits="userSpaceOnUse">
<stop stop-color="#FF5963"/>
<stop offset="1" stop-color="#E00E66"/>
</linearGradient>
<linearGradient id="paint5_linear_5767_16846" x1="28.6262" y1="15.8398" x2="30.8483" y2="18.8283" gradientUnits="userSpaceOnUse">
<stop stop-color="#FF5963"/>
<stop offset="1" stop-color="#E00E66"/>
</linearGradient>
<linearGradient id="paint6_linear_5767_16846" x1="14.637" y1="44.2226" x2="20.4333" y2="51.5097" gradientUnits="userSpaceOnUse">
<stop stop-color="#FF5963"/>
<stop offset="1" stop-color="#E00E66"/>
</linearGradient>
<linearGradient id="paint7_linear_5767_16846" x1="16.8981" y1="40.5189" x2="20.0587" y2="43.0552" gradientUnits="userSpaceOnUse">
<stop stop-color="#FF5963"/>
<stop offset="1" stop-color="#E00E66"/>
</linearGradient>
<linearGradient id="paint8_linear_5767_16846" x1="17.8288" y1="23.8115" x2="46.0618" y2="53.6708" gradientUnits="userSpaceOnUse">
<stop stop-color="#FF5963"/>
<stop offset="1" stop-color="#E00E66"/>
</linearGradient>
<linearGradient id="paint9_linear_5767_16846" x1="39.3706" y1="39.7015" x2="39.7006" y2="41.6696" gradientUnits="userSpaceOnUse">
<stop stop-color="#FF5963"/>
<stop offset="1" stop-color="#E00E66"/>
</linearGradient>
<linearGradient id="paint10_linear_5767_16846" x1="4.90436" y1="48.0612" x2="8.05983" y2="50.5407" gradientUnits="userSpaceOnUse">
<stop stop-color="#FF5963"/>
<stop offset="1" stop-color="#E00E66"/>
</linearGradient>
<linearGradient id="paint11_linear_5767_16846" x1="6.78172" y1="49.6313" x2="8.24839" y2="51.0683" gradientUnits="userSpaceOnUse">
<stop stop-color="#FF5963"/>
<stop offset="1" stop-color="#E00E66"/>
</linearGradient>
<linearGradient id="paint12_linear_5767_16846" x1="25.8261" y1="48.0878" x2="27.8515" y2="48.7645" gradientUnits="userSpaceOnUse">
<stop stop-color="#FF5963"/>
<stop offset="1" stop-color="#E00E66"/>
</linearGradient>
<linearGradient id="paint13_linear_5767_16846" x1="26.5898" y1="48.9559" x2="29.1922" y2="50.8812" gradientUnits="userSpaceOnUse">
<stop stop-color="#FF5963"/>
<stop offset="1" stop-color="#E00E66"/>
</linearGradient>
<linearGradient id="paint14_linear_5767_16846" x1="2.69043" y1="51.2716" x2="2.75919" y2="53.2927" gradientUnits="userSpaceOnUse">
<stop stop-color="#FF5963"/>
<stop offset="1" stop-color="#E00E66"/>
</linearGradient>
<linearGradient id="paint15_linear_5767_16846" x1="39.1417" y1="46.4116" x2="39.67" y2="48.2861" gradientUnits="userSpaceOnUse">
<stop stop-color="#FF5963"/>
<stop offset="1" stop-color="#E00E66"/>
</linearGradient>
</defs>
</svg>
