<svg width="62" height="63" viewBox="0 0 62 63" fill="none" xmlns="http://www.w3.org/2000/svg">
<path d="M22.8496 16.6501C22.8561 16.4334 22.9052 16.2201 22.9941 16.0224C23.0831 15.8246 23.2102 15.6464 23.368 15.4978C23.5259 15.3492 23.7116 15.2332 23.9143 15.1564C24.1171 15.0795 24.333 15.0434 24.5497 15.0501M24.5497 20.5101H13.1797H24.7396C25.4637 20.4955 26.1523 20.1939 26.6539 19.6716C27.1556 19.1493 27.4293 18.4491 27.4147 17.7251C27.4001 17.0011 27.0985 16.3125 26.5762 15.8108C26.0539 15.3091 25.3537 15.0355 24.6296 15.0501H24.5796" stroke="url(#paint0_linear_5767_16842)" stroke-width="1.7" stroke-linecap="round" stroke-linejoin="round"/>
<path d="M32.6816 30.65C32.6881 30.8668 32.7372 31.0801 32.8262 31.2778C32.9151 31.4755 33.0421 31.6538 33.2 31.8023C33.3578 31.9509 33.5435 32.067 33.7462 32.1438C33.949 32.2206 34.1649 32.2567 34.3816 32.25C34.7401 32.2573 35.0966 32.1938 35.4305 32.0633C35.7645 31.9328 36.0695 31.7377 36.3281 31.4893C36.5867 31.2409 36.7939 30.944 36.9377 30.6156C37.0816 30.2871 37.1594 29.9335 37.1666 29.575C37.1738 29.2165 37.1104 28.8601 36.9799 28.5261C36.8493 28.1921 36.6543 27.8871 36.4059 27.6285C36.1575 27.3699 35.8606 27.1628 35.5321 27.0189C35.2036 26.875 34.8501 26.7973 34.4916 26.79H10.8516" stroke="url(#paint1_linear_5767_16842)" stroke-width="1.7" stroke-linecap="round" stroke-linejoin="round"/>
<path d="M15.3516 23.71H22.4316" stroke="url(#paint2_linear_5767_16842)" stroke-width="1.7" stroke-linecap="round" stroke-linejoin="round"/>
<path d="M35.3516 44.54C35.3516 44.54 36.0916 42.11 38.6316 43.42C38.6316 43.42 37.6316 46 35.3516 44.54Z" fill="url(#paint3_linear_5767_16842)"/>
<path d="M13.5124 37.5701C13.5124 37.5701 12.0524 34.8801 15.3224 33.8201C15.3224 33.8201 16.7224 36.8801 13.5124 37.5701Z" fill="url(#paint4_linear_5767_16842)"/>
<path d="M31.5234 12C31.5234 12 33.8034 10 35.5834 12.92C35.5834 12.93 32.9134 15 31.5234 12Z" fill="url(#paint5_linear_5767_16842)"/>
<path d="M18.6306 40.54C18.1802 41.183 17.7663 41.8507 17.3906 42.54C18.8813 43.447 20.4851 44.1531 22.1606 44.64L22.7406 44.8C22.7919 44.5396 22.8587 44.2825 22.9406 44.03C23.6226 41.8513 25.1203 40.0205 27.1206 38.92" stroke="url(#paint6_linear_5767_16842)" stroke-width="1.7" stroke-linecap="round" stroke-linejoin="round"/>
<path d="M23.1924 35.8101C21.9502 36.7477 20.8167 37.821 19.8125 39.0101" stroke="url(#paint7_linear_5767_16842)" stroke-width="1.7" stroke-linecap="round" stroke-linejoin="round"/>
<path d="M47.0018 13.68C46.6064 13.6401 46.2093 13.62 45.8118 13.62C41.9218 13.62 38.6317 15.48 37.5717 18.04C36.6459 17.3549 35.548 16.9403 34.4005 16.8423C33.2529 16.7444 32.1007 16.9671 31.0722 17.4855C30.0437 18.0039 29.1793 18.7977 28.5754 19.7784C27.9715 20.7591 27.6518 21.8882 27.6518 23.04V23.17C27.0099 22.9424 26.3327 22.8307 25.6518 22.84C24.3795 22.8807 23.153 23.3251 22.1498 24.1088C21.1467 24.8925 20.4188 25.975 20.0715 27.1997C19.7241 28.4244 19.7752 29.7278 20.2175 30.9215C20.6598 32.1152 21.4703 33.1373 22.5318 33.84C22.5892 34.2657 22.6896 34.6846 22.8317 35.09C22.8317 35.21 22.9117 35.32 22.9617 35.44C23.3302 36.3025 23.8959 37.0666 24.6131 37.6709C25.3303 38.2753 26.1792 38.7031 27.0917 38.92C27.5182 39.0193 27.954 39.0729 28.3918 39.08H28.4517C29.2634 39.078 30.0664 38.9113 30.8118 38.59C31.3377 38.3646 31.8264 38.0612 32.2618 37.69C32.4784 38.0116 32.7155 38.3189 32.9717 38.61C33.3995 39.0943 33.8791 39.5302 34.4018 39.91C35.855 40.9704 37.603 41.5507 39.4018 41.57H39.5418C41.7742 41.5704 43.9215 40.7136 45.5405 39.1766C47.1594 37.6395 48.1264 35.5394 48.2418 33.31V33.3L48.3918 33.37C48.6573 33.4019 48.9243 33.4186 49.1917 33.42C49.87 33.4155 50.5439 33.3111 51.1917 33.11C52.4737 32.733 53.6017 31.9563 54.4112 30.8931C55.2207 29.83 55.6693 28.536 55.6917 27.2C55.6941 26.8442 55.6606 26.4891 55.5917 26.14C56.4859 25.9151 57.2806 25.4009 57.8521 24.6774C58.4236 23.954 58.7399 23.0619 58.7518 22.14C58.7337 21.5792 58.6052 21.0274 58.3737 20.5162C58.1423 20.0051 57.8123 19.5445 57.4028 19.161C56.9932 18.7774 56.5121 18.4783 55.9869 18.2808C55.4617 18.0833 54.9026 17.9913 54.3417 18.01H53.9918C53.7485 17.4314 53.4105 16.8975 52.9918 16.43C51.9778 15.3398 50.6896 14.5419 49.2618 14.12" stroke="url(#paint8_linear_5767_16842)" stroke-width="1.7" stroke-linecap="round" stroke-linejoin="round"/>
<path d="M42.1719 35.48H50.0219" stroke="url(#paint9_linear_5767_16842)" stroke-width="1.7" stroke-linecap="round" stroke-linejoin="round"/>
<path d="M7.82031 46.5601C7.82031 46.5601 7.82038 44.4601 11.1404 43.3501" stroke="url(#paint10_linear_5767_16842)" stroke-width="1.7" stroke-linecap="round" stroke-linejoin="round"/>
<path d="M9.73438 46.7601C10.1448 46.0514 10.8158 45.531 11.6044 45.3101" stroke="url(#paint11_linear_5767_16842)" stroke-width="1.7" stroke-linecap="round" stroke-linejoin="round"/>
<path d="M28.8137 46.6801C28.7395 46.0474 28.8336 45.4064 29.0864 44.8217C29.3392 44.237 29.7418 43.7294 30.2536 43.3501" stroke="url(#paint12_linear_5767_16842)" stroke-width="1.7" stroke-linecap="round" stroke-linejoin="round"/>
<path d="M29.563 47.05C29.293 46.68 30.4329 44.54 32.1429 44.36" stroke="url(#paint13_linear_5767_16842)" stroke-width="1.7" stroke-linecap="round" stroke-linejoin="round"/>
<path d="M4.71094 47.05H43.401" stroke="url(#paint14_linear_5767_16842)" stroke-width="1.7" stroke-linecap="round" stroke-linejoin="round"/>
<path d="M42.0234 42.1901H46.6934" stroke="url(#paint15_linear_5767_16842)" stroke-width="1.7" stroke-linecap="round" stroke-linejoin="round"/>
<path d="M9.41975 61.1014C9.13115 61.3849 8.73158 61.5557 8.28968 61.5462C7.40588 61.5274 6.68692 60.7955 6.6838 59.9114L6.66904 55.5098L2.26873 55.4168C1.38478 55.3979 0.665814 54.666 0.66285 53.782C0.659886 52.898 1.37404 52.1965 2.25799 52.2151L6.91444 52.3138C7.70106 52.3303 8.44155 52.6525 8.99967 53.2207C9.55779 53.7889 9.86642 54.535 9.86921 55.3218L9.88483 59.9793C9.88631 60.4214 9.70851 60.8177 9.4199 61.1012L9.41975 61.1014Z" fill="#E72856"/>
<path d="M8.54035 60.2071C8.47503 60.2712 8.38462 60.3099 8.28458 60.3077C8.0845 60.3035 7.92184 60.1379 7.92117 59.9378L7.90555 55.2803C7.90467 55.0178 7.80169 54.7691 7.6156 54.5796C7.42951 54.3902 7.18253 54.2826 6.92022 54.2772L2.26347 54.1782C2.06339 54.174 1.90073 54.0084 1.90006 53.8082C1.89939 53.6081 2.06096 53.4494 2.26105 53.4536L6.91779 53.5524C7.3737 53.562 7.80279 53.7487 8.12629 54.078C8.4498 54.4073 8.62872 54.8397 8.63025 55.2957L8.64556 59.9531C8.6459 60.0532 8.60567 60.1429 8.54035 60.2071Z" fill="#E15A75"/>
<defs>
<linearGradient id="paint0_linear_5767_16842" x1="13.5401" y1="16.259" x2="17.9857" y2="25.0638" gradientUnits="userSpaceOnUse">
<stop stop-color="#FF5963"/>
<stop offset="1" stop-color="#E00E66"/>
</linearGradient>
<linearGradient id="paint1_linear_5767_16842" x1="11.5178" y1="27.9997" x2="14.3262" y2="38.2821" gradientUnits="userSpaceOnUse">
<stop stop-color="#FF5963"/>
<stop offset="1" stop-color="#E00E66"/>
</linearGradient>
<linearGradient id="paint2_linear_5767_16842" x1="15.5308" y1="23.9315" x2="15.8944" y2="25.8873" gradientUnits="userSpaceOnUse">
<stop stop-color="#FF5963"/>
<stop offset="1" stop-color="#E00E66"/>
</linearGradient>
<linearGradient id="paint3_linear_5767_16842" x1="35.4346" y1="43.4655" x2="37.3558" y2="45.9142" gradientUnits="userSpaceOnUse">
<stop stop-color="#FF5963"/>
<stop offset="1" stop-color="#E00E66"/>
</linearGradient>
<linearGradient id="paint4_linear_5767_16842" x1="13.2492" y1="34.6508" x2="16.2627" y2="36.1396" gradientUnits="userSpaceOnUse">
<stop stop-color="#FF5963"/>
<stop offset="1" stop-color="#E00E66"/>
</linearGradient>
<linearGradient id="paint5_linear_5767_16842" x1="31.6262" y1="11.8398" x2="33.8483" y2="14.8283" gradientUnits="userSpaceOnUse">
<stop stop-color="#FF5963"/>
<stop offset="1" stop-color="#E00E66"/>
</linearGradient>
<linearGradient id="paint6_linear_5767_16842" x1="17.637" y1="40.2226" x2="23.4333" y2="47.5097" gradientUnits="userSpaceOnUse">
<stop stop-color="#FF5963"/>
<stop offset="1" stop-color="#E00E66"/>
</linearGradient>
<linearGradient id="paint7_linear_5767_16842" x1="19.8981" y1="36.5189" x2="23.0587" y2="39.0552" gradientUnits="userSpaceOnUse">
<stop stop-color="#FF5963"/>
<stop offset="1" stop-color="#E00E66"/>
</linearGradient>
<linearGradient id="paint8_linear_5767_16842" x1="20.8288" y1="19.8115" x2="49.0618" y2="49.6708" gradientUnits="userSpaceOnUse">
<stop stop-color="#FF5963"/>
<stop offset="1" stop-color="#E00E66"/>
</linearGradient>
<linearGradient id="paint9_linear_5767_16842" x1="42.3706" y1="35.7015" x2="42.7006" y2="37.6696" gradientUnits="userSpaceOnUse">
<stop stop-color="#FF5963"/>
<stop offset="1" stop-color="#E00E66"/>
</linearGradient>
<linearGradient id="paint10_linear_5767_16842" x1="7.90436" y1="44.0612" x2="11.0598" y2="46.5407" gradientUnits="userSpaceOnUse">
<stop stop-color="#FF5963"/>
<stop offset="1" stop-color="#E00E66"/>
</linearGradient>
<linearGradient id="paint11_linear_5767_16842" x1="9.78172" y1="45.6313" x2="11.2484" y2="47.0683" gradientUnits="userSpaceOnUse">
<stop stop-color="#FF5963"/>
<stop offset="1" stop-color="#E00E66"/>
</linearGradient>
<linearGradient id="paint12_linear_5767_16842" x1="28.8261" y1="44.0878" x2="30.8515" y2="44.7645" gradientUnits="userSpaceOnUse">
<stop stop-color="#FF5963"/>
<stop offset="1" stop-color="#E00E66"/>
</linearGradient>
<linearGradient id="paint13_linear_5767_16842" x1="29.5898" y1="44.9559" x2="32.1922" y2="46.8812" gradientUnits="userSpaceOnUse">
<stop stop-color="#FF5963"/>
<stop offset="1" stop-color="#E00E66"/>
</linearGradient>
<linearGradient id="paint14_linear_5767_16842" x1="5.69043" y1="47.2716" x2="5.75919" y2="49.2927" gradientUnits="userSpaceOnUse">
<stop stop-color="#FF5963"/>
<stop offset="1" stop-color="#E00E66"/>
</linearGradient>
<linearGradient id="paint15_linear_5767_16842" x1="42.1417" y1="42.4116" x2="42.67" y2="44.2861" gradientUnits="userSpaceOnUse">
<stop stop-color="#FF5963"/>
<stop offset="1" stop-color="#E00E66"/>
</linearGradient>
</defs>
</svg>
