<svg width="69" height="59" viewBox="0 0 69 59" fill="none" xmlns="http://www.w3.org/2000/svg">
<path d="M29.8574 16.6501C29.8639 16.4334 29.913 16.2201 30.002 16.0224C30.0909 15.8246 30.218 15.6464 30.3759 15.4978C30.5337 15.3492 30.7194 15.2332 30.9221 15.1564C31.1249 15.0795 31.3408 15.0434 31.5575 15.0501M31.5575 20.5101H20.1875H31.7474C32.4715 20.4955 33.1601 20.1939 33.6617 19.6716C34.1634 19.1493 34.4371 18.4491 34.4225 17.7251C34.4079 17.0011 34.1063 16.3125 33.584 15.8108C33.0617 15.3091 32.3615 15.0355 31.6375 15.0501H31.5874" stroke="url(#paint0_linear_5767_16841)" stroke-width="1.7" stroke-linecap="round" stroke-linejoin="round"/>
<path d="M39.6895 30.65C39.6959 30.8668 39.745 31.0801 39.834 31.2778C39.9229 31.4755 40.0499 31.6538 40.2078 31.8023C40.3656 31.9509 40.5513 32.067 40.754 32.1438C40.9568 32.2206 41.1727 32.2567 41.3894 32.25C41.7479 32.2573 42.1044 32.1938 42.4384 32.0633C42.7723 31.9328 43.0773 31.7377 43.3359 31.4893C43.5945 31.2409 43.8017 30.944 43.9456 30.6156C44.0894 30.2871 44.1672 29.9335 44.1744 29.575C44.1817 29.2165 44.1182 28.8601 43.9877 28.5261C43.8571 28.1921 43.6621 27.8871 43.4137 27.6285C43.1653 27.3699 42.8684 27.1628 42.5399 27.0189C42.2115 26.875 41.8579 26.7973 41.4994 26.79H17.8594" stroke="url(#paint1_linear_5767_16841)" stroke-width="1.7" stroke-linecap="round" stroke-linejoin="round"/>
<path d="M22.3594 23.71H29.4395" stroke="url(#paint2_linear_5767_16841)" stroke-width="1.7" stroke-linecap="round" stroke-linejoin="round"/>
<path d="M42.3594 44.54C42.3594 44.54 43.0994 42.11 45.6394 43.42C45.6394 43.42 44.6394 46 42.3594 44.54Z" fill="url(#paint3_linear_5767_16841)"/>
<path d="M20.5202 37.5701C20.5202 37.5701 19.0602 34.8801 22.3302 33.8201C22.3302 33.8201 23.7302 36.8801 20.5202 37.5701Z" fill="url(#paint4_linear_5767_16841)"/>
<path d="M38.5312 12C38.5312 12 40.8112 10 42.5912 12.92C42.5912 12.93 39.9212 15 38.5312 12Z" fill="url(#paint5_linear_5767_16841)"/>
<path d="M25.6384 40.54C25.188 41.183 24.7741 41.8507 24.3984 42.54C25.8891 43.447 27.493 44.1531 29.1685 44.64L29.7484 44.8C29.7997 44.5396 29.8665 44.2825 29.9484 44.03C30.6304 41.8513 32.1281 40.0205 34.1284 38.92" stroke="url(#paint6_linear_5767_16841)" stroke-width="1.7" stroke-linecap="round" stroke-linejoin="round"/>
<path d="M30.2002 35.8101C28.9581 36.7477 27.8245 37.821 26.8203 39.0101" stroke="url(#paint7_linear_5767_16841)" stroke-width="1.7" stroke-linecap="round" stroke-linejoin="round"/>
<path d="M54.0096 13.68C53.6142 13.6401 53.2171 13.62 52.8196 13.62C48.9296 13.62 45.6395 15.48 44.5795 18.04C43.6537 17.3549 42.5559 16.9403 41.4083 16.8423C40.2607 16.7444 39.1085 16.9671 38.08 17.4855C37.0515 18.0039 36.1871 18.7977 35.5832 19.7784C34.9793 20.7591 34.6596 21.8882 34.6596 23.04V23.17C34.0177 22.9424 33.3406 22.8307 32.6596 22.84C31.3873 22.8807 30.1608 23.3251 29.1577 24.1088C28.1545 24.8925 27.4267 25.975 27.0793 27.1997C26.7319 28.4244 26.783 29.7278 27.2253 30.9215C27.6676 32.1152 28.4781 33.1373 29.5396 33.84C29.597 34.2657 29.6975 34.6846 29.8395 35.09C29.8395 35.21 29.9195 35.32 29.9695 35.44C30.3381 36.3025 30.9037 37.0666 31.6209 37.6709C32.3382 38.2753 33.1871 38.7031 34.0996 38.92C34.526 39.0193 34.9618 39.0729 35.3996 39.08H35.4595C36.2713 39.078 37.0742 38.9113 37.8196 38.59C38.3455 38.3646 38.8343 38.0612 39.2696 37.69C39.4862 38.0116 39.7233 38.3189 39.9796 38.61C40.4073 39.0943 40.8869 39.5302 41.4096 39.91C42.8628 40.9704 44.6108 41.5507 46.4096 41.57H46.5496C48.782 41.5704 50.9293 40.7136 52.5483 39.1766C54.1672 37.6395 55.1342 35.5394 55.2496 33.31V33.3L55.3996 33.37C55.6651 33.4019 55.9321 33.4186 56.1995 33.42C56.8778 33.4155 57.5517 33.3111 58.1995 33.11C59.4815 32.733 60.6095 31.9563 61.419 30.8931C62.2285 29.83 62.6771 28.536 62.6995 27.2C62.7019 26.8442 62.6685 26.4891 62.5996 26.14C63.4937 25.9151 64.2884 25.4009 64.8599 24.6774C65.4315 23.954 65.7477 23.0619 65.7596 22.14C65.7415 21.5792 65.613 21.0274 65.3815 20.5162C65.1501 20.0051 64.8202 19.5445 64.4106 19.161C64.001 18.7774 63.5199 18.4783 62.9947 18.2808C62.4695 18.0833 61.9104 17.9913 61.3496 18.01H60.9996C60.7563 17.4314 60.4184 16.8975 59.9996 16.43C58.9856 15.3398 57.6974 14.5419 56.2696 14.12" stroke="url(#paint8_linear_5767_16841)" stroke-width="1.7" stroke-linecap="round" stroke-linejoin="round"/>
<path d="M49.1797 35.48H57.0297" stroke="url(#paint9_linear_5767_16841)" stroke-width="1.7" stroke-linecap="round" stroke-linejoin="round"/>
<path d="M14.8281 46.5601C14.8281 46.5601 14.8282 44.4601 18.1482 43.3501" stroke="url(#paint10_linear_5767_16841)" stroke-width="1.7" stroke-linecap="round" stroke-linejoin="round"/>
<path d="M16.7422 46.7601C17.1526 46.0514 17.8236 45.531 18.6122 45.3101" stroke="url(#paint11_linear_5767_16841)" stroke-width="1.7" stroke-linecap="round" stroke-linejoin="round"/>
<path d="M35.8215 46.6801C35.7473 46.0474 35.8414 45.4064 36.0942 44.8217C36.3471 44.237 36.7497 43.7294 37.2615 43.3501" stroke="url(#paint12_linear_5767_16841)" stroke-width="1.7" stroke-linecap="round" stroke-linejoin="round"/>
<path d="M36.5708 47.05C36.3008 46.68 37.4408 44.54 39.1508 44.36" stroke="url(#paint13_linear_5767_16841)" stroke-width="1.7" stroke-linecap="round" stroke-linejoin="round"/>
<path d="M11.7188 47.05H50.4088" stroke="url(#paint14_linear_5767_16841)" stroke-width="1.7" stroke-linecap="round" stroke-linejoin="round"/>
<path d="M49.0312 42.1901H53.7012" stroke="url(#paint15_linear_5767_16841)" stroke-width="1.7" stroke-linecap="round" stroke-linejoin="round"/>
<path d="M1.58407 33.8768C1.17971 33.8641 0.780102 33.6933 0.481603 33.3674C-0.115612 32.7156 -0.0834372 31.6901 0.553468 31.0769L3.72471 28.0245L0.751046 24.7797C0.153838 24.1277 0.186013 23.1022 0.822911 22.4892C1.45981 21.8761 2.4604 21.9075 3.05782 22.5593L6.20435 25.9932C6.736 26.5732 7.01484 27.3311 6.98987 28.1271C6.96489 28.9232 6.63888 29.6619 6.07212 30.2076L2.71651 33.4375C2.39796 33.7441 1.98864 33.8895 1.58428 33.8768L1.58407 33.8768Z" fill="#E72856"/>
<path d="M1.61989 32.6235C1.52837 32.6206 1.43798 32.582 1.37038 32.5082C1.23517 32.3606 1.24245 32.1286 1.38664 31.9898L4.74224 28.76C4.93138 28.5779 5.03998 28.3316 5.04831 28.0662C5.05664 27.8008 4.9637 27.5479 4.78634 27.3546L1.63983 23.9203C1.50462 23.7727 1.5119 23.5407 1.65609 23.4019C1.80028 23.2631 2.02665 23.2702 2.16185 23.4178L5.30858 26.8519C5.61666 27.1881 5.7783 27.6272 5.76383 28.0886C5.74935 28.55 5.5605 28.9781 5.23195 29.2944L1.87614 32.524C1.80405 32.5934 1.71141 32.6264 1.61989 32.6235Z" fill="#E15A75"/>
<defs>
<linearGradient id="paint0_linear_5767_16841" x1="20.5479" y1="16.259" x2="24.9935" y2="25.0638" gradientUnits="userSpaceOnUse">
<stop stop-color="#FF5963"/>
<stop offset="1" stop-color="#E00E66"/>
</linearGradient>
<linearGradient id="paint1_linear_5767_16841" x1="18.5256" y1="27.9997" x2="21.3341" y2="38.2821" gradientUnits="userSpaceOnUse">
<stop stop-color="#FF5963"/>
<stop offset="1" stop-color="#E00E66"/>
</linearGradient>
<linearGradient id="paint2_linear_5767_16841" x1="22.5386" y1="23.9315" x2="22.9022" y2="25.8873" gradientUnits="userSpaceOnUse">
<stop stop-color="#FF5963"/>
<stop offset="1" stop-color="#E00E66"/>
</linearGradient>
<linearGradient id="paint3_linear_5767_16841" x1="42.4424" y1="43.4655" x2="44.3637" y2="45.9142" gradientUnits="userSpaceOnUse">
<stop stop-color="#FF5963"/>
<stop offset="1" stop-color="#E00E66"/>
</linearGradient>
<linearGradient id="paint4_linear_5767_16841" x1="20.2571" y1="34.6508" x2="23.2705" y2="36.1396" gradientUnits="userSpaceOnUse">
<stop stop-color="#FF5963"/>
<stop offset="1" stop-color="#E00E66"/>
</linearGradient>
<linearGradient id="paint5_linear_5767_16841" x1="38.634" y1="11.8398" x2="40.8561" y2="14.8283" gradientUnits="userSpaceOnUse">
<stop stop-color="#FF5963"/>
<stop offset="1" stop-color="#E00E66"/>
</linearGradient>
<linearGradient id="paint6_linear_5767_16841" x1="24.6448" y1="40.2226" x2="30.4411" y2="47.5097" gradientUnits="userSpaceOnUse">
<stop stop-color="#FF5963"/>
<stop offset="1" stop-color="#E00E66"/>
</linearGradient>
<linearGradient id="paint7_linear_5767_16841" x1="26.9059" y1="36.5189" x2="30.0665" y2="39.0552" gradientUnits="userSpaceOnUse">
<stop stop-color="#FF5963"/>
<stop offset="1" stop-color="#E00E66"/>
</linearGradient>
<linearGradient id="paint8_linear_5767_16841" x1="27.8366" y1="19.8115" x2="56.0696" y2="49.6708" gradientUnits="userSpaceOnUse">
<stop stop-color="#FF5963"/>
<stop offset="1" stop-color="#E00E66"/>
</linearGradient>
<linearGradient id="paint9_linear_5767_16841" x1="49.3784" y1="35.7015" x2="49.7084" y2="37.6696" gradientUnits="userSpaceOnUse">
<stop stop-color="#FF5963"/>
<stop offset="1" stop-color="#E00E66"/>
</linearGradient>
<linearGradient id="paint10_linear_5767_16841" x1="14.9122" y1="44.0612" x2="18.0676" y2="46.5407" gradientUnits="userSpaceOnUse">
<stop stop-color="#FF5963"/>
<stop offset="1" stop-color="#E00E66"/>
</linearGradient>
<linearGradient id="paint11_linear_5767_16841" x1="16.7895" y1="45.6313" x2="18.2562" y2="47.0683" gradientUnits="userSpaceOnUse">
<stop stop-color="#FF5963"/>
<stop offset="1" stop-color="#E00E66"/>
</linearGradient>
<linearGradient id="paint12_linear_5767_16841" x1="35.834" y1="44.0878" x2="37.8593" y2="44.7645" gradientUnits="userSpaceOnUse">
<stop stop-color="#FF5963"/>
<stop offset="1" stop-color="#E00E66"/>
</linearGradient>
<linearGradient id="paint13_linear_5767_16841" x1="36.5976" y1="44.9559" x2="39.2" y2="46.8812" gradientUnits="userSpaceOnUse">
<stop stop-color="#FF5963"/>
<stop offset="1" stop-color="#E00E66"/>
</linearGradient>
<linearGradient id="paint14_linear_5767_16841" x1="12.6982" y1="47.2716" x2="12.767" y2="49.2927" gradientUnits="userSpaceOnUse">
<stop stop-color="#FF5963"/>
<stop offset="1" stop-color="#E00E66"/>
</linearGradient>
<linearGradient id="paint15_linear_5767_16841" x1="49.1495" y1="42.4116" x2="49.6778" y2="44.2861" gradientUnits="userSpaceOnUse">
<stop stop-color="#FF5963"/>
<stop offset="1" stop-color="#E00E66"/>
</linearGradient>
</defs>
</svg>
