<svg width="52" height="65" viewBox="0 0 52 65" fill="none" xmlns="http://www.w3.org/2000/svg">
<path d="M8.31596 15.4202C6.65221 15.4594 5.02543 15.8271 3.37647 16.0006C3.11952 16.0286 2.86996 16.0212 2.62039 15.9558C2.42259 15.9036 2.23773 15.7655 2.2784 15.5677C2.40041 14.9742 2.07321 15.1739 1.78298 15.2392C1.52047 15.2971 1.25058 15.34 0.982528 15.3531C0.671962 15.3699 0.457523 15.2019 0.402065 14.894C0.341061 14.5525 0.529618 14.3024 0.834638 14.2371C1.66281 14.0617 2.50208 13.9273 3.35429 13.959C3.63713 13.9702 3.93106 14.0486 3.92366 14.405C3.91627 14.7372 4.06786 14.7092 4.29893 14.6738C5.63732 14.4666 6.97756 14.2632 8.3178 14.0747C9.18295 13.9534 10.0536 13.8583 11.0242 13.7407C10.5269 13.4104 10.0241 13.3525 9.56007 13.2368C8.3289 12.9289 7.09033 12.6415 5.81664 12.5538C5.66875 12.5445 5.51901 12.4903 5.37667 12.44C5.05131 12.3243 4.87015 12.0873 4.90712 11.7383C4.94964 11.3501 5.22508 11.1915 5.57817 11.1672C6.07544 11.1336 6.55423 11.2755 7.03302 11.3744C8.65795 11.7122 10.2404 12.2086 11.8246 12.6975C12.0058 12.7535 12.2461 12.9326 12.3718 12.7292C12.5031 12.5202 12.3773 12.2851 12.1888 12.0947C11.6009 11.5087 11.0279 10.9078 10.4492 10.3107C10.4141 10.2771 10.379 10.2435 10.3439 10.2099L10.3476 10.2155L10.2404 10.1072L10.2441 10.111L10.1387 10.0046L10.1442 10.0102C10.1091 9.97474 10.074 9.93742 10.037 9.90196H10.0407C9.83181 9.49887 9.63771 9.07898 9.12565 8.97634L9.01843 8.8737L9.02397 8.87743C8.95557 8.7412 8.85575 8.63669 8.7208 8.56765L8.7171 8.56205C8.65055 8.49486 8.58216 8.42768 8.5156 8.35863L8.41763 8.25413H8.41578L8.31596 8.15149C8.2568 7.99473 8.16067 7.8417 8.14773 7.68308C8.11076 7.25386 7.93514 7.33597 7.70776 7.53565C7.62643 7.4778 7.52475 7.43674 7.50442 7.31917C7.41199 6.88435 7.07184 6.69214 6.72246 6.50739C6.67624 6.46073 6.63002 6.45886 6.58011 6.50365L6.58751 6.51672C6.69473 6.43647 6.62078 6.35249 6.5949 6.26852L6.51171 6.10802C6.4655 6.00352 6.4618 5.89715 6.49877 5.79077C6.78346 5.8225 6.99235 5.55377 7.27889 5.59109C7.7318 5.78331 8.01648 6.17707 8.33999 6.51672C9.40479 7.63456 10.4825 8.73934 11.6065 9.79746C11.6897 9.87584 11.7839 9.94115 11.9799 10.1016C11.8745 9.4858 11.7932 8.99313 11.7045 8.50233C11.5751 7.78012 11.3791 7.06724 11.368 6.32823C11.3625 5.97179 11.3902 5.60229 11.8431 5.5575C12.3219 5.50898 12.4994 5.85796 12.5567 6.25732C12.834 8.17202 13.2647 10.0531 13.6936 11.9361C13.7083 12.0014 13.725 12.0649 13.7398 12.1208C13.8544 12.1619 13.9098 12.1022 13.9561 12.0238C14.7935 10.6018 15.629 9.17975 16.4665 7.75959C16.6828 7.39195 16.9323 7.05044 17.254 6.76305C17.4573 6.58203 17.6773 6.53538 17.9065 6.66041C18.1635 6.80037 18.2226 7.04484 18.169 7.3229C18.0785 7.79318 17.7753 8.14589 17.5257 8.52846C16.5848 9.96355 15.6753 11.4173 14.7898 12.9998C15.5588 13.0166 16.2132 12.7908 16.8824 12.6956C17.8363 12.5613 18.7754 12.3168 19.7533 12.3541C20.502 12.3821 20.8994 12.5538 20.9272 12.9196C20.953 13.276 20.5408 13.5373 19.8309 13.6138C19.0822 13.694 18.3317 13.7724 17.4573 13.8657C18.1062 14.3248 18.768 14.3976 19.3706 14.6122C20.3744 14.9686 21.3967 15.2766 22.3987 15.6386C23.0882 15.8868 23.1566 16.1481 22.7499 16.762C22.5669 17.0382 22.7961 17.0345 22.9421 17.0793C23.5115 17.251 24.0532 17.4898 24.5856 17.7492C24.9128 17.9079 25.1845 18.1411 25.0015 18.5517C24.8222 18.9529 24.4746 18.8689 24.1733 18.729C23.4986 18.4173 22.8349 18.0758 22.1676 17.7474C22.0271 17.6783 21.8256 17.572 21.8736 17.4357C22.0493 16.9375 21.698 16.9263 21.3949 16.7919C19.7792 16.0771 18.108 15.5341 16.4018 15.0918C16.2742 15.0582 16.1374 15.0582 15.8731 15.0284C17.1172 16.1051 18.0914 17.2584 18.89 18.561C18.9307 18.9081 19.0989 19.1974 19.3133 19.4605C19.5851 19.7946 19.733 20.1435 19.5056 20.5634C19.0755 20.7413 18.9793 21.0387 19.2172 21.4555C19.3762 21.7373 19.5555 22.0116 19.6757 22.3083C19.7773 22.5602 19.842 22.8644 19.5315 23.0343C19.2616 23.1835 19.0046 23.1164 18.8068 22.87C18.5628 22.5658 18.3206 22.2598 18.0785 21.9537C17.9916 21.8754 17.803 21.8866 17.8474 21.6943C17.864 21.6253 17.9324 21.5842 17.999 21.6141C18.1542 21.6869 18.1339 21.8119 18.0748 21.9407C18.5905 23.3123 19.1118 24.6802 19.6202 26.0556C21.3486 30.7378 22.724 35.5246 23.7204 40.4196C24.6613 45.0346 25.2326 49.6982 25.3916 54.4103C25.3952 54.5129 25.4045 54.6137 25.4174 54.7985C25.7853 54.4252 25.8371 53.9736 25.9683 53.5798C27.1644 49.9576 28.7616 46.5201 30.5972 43.1908C30.7618 42.8922 30.9355 42.5993 31.0945 42.2988C31.2331 42.0357 31.5178 41.7837 30.9947 41.5523C30.7618 41.4497 30.7895 41.0559 30.9633 40.8637C31.3367 40.455 31.5511 39.7776 32.3183 39.94C32.4218 39.9623 32.4828 39.8466 32.5401 39.7571C33.4201 38.3798 34.3813 37.0623 35.3482 35.7467C35.3629 35.7261 35.3482 35.6832 35.3445 35.6272C34.8028 36.062 34.2741 36.4894 33.7399 36.9111C33.5125 37.0903 33.2611 37.2321 32.9838 37.3217C32.6806 37.4188 32.346 37.4934 32.1556 37.178C31.9744 36.8794 32.1168 36.5827 32.3663 36.3569C32.6048 36.1404 32.8396 35.9146 33.0947 35.7205C33.7158 35.2502 34.3351 34.7781 34.9784 34.3396C35.5552 33.9458 35.7456 33.9999 36.1819 34.6083C36.5978 34.0634 37.0045 33.5334 37.4685 32.925C36.0617 33.134 34.7492 33.3281 33.4348 33.524C33.1483 33.5408 32.8655 33.5166 32.5771 33.5931C32.1778 33.6995 31.5918 33.3094 31.5197 32.9306C32.0022 32.4622 32.6381 32.4099 33.2463 32.3017C34.2778 32.1169 35.3112 31.9527 36.4444 31.7624C35.96 31.3369 35.4554 31.1129 34.9636 30.8778C33.9857 30.4094 32.9634 30.0511 31.9393 29.7002C31.675 29.6088 31.4494 29.4726 31.2738 29.2561C31.113 29.0583 31.0298 28.8306 31.1629 28.5936C31.3071 28.3398 31.5326 28.295 31.8192 28.3547C32.7231 28.5395 33.531 28.9818 34.3776 29.3177C34.7547 29.467 35.1171 29.6517 35.4868 29.8197C35.5681 29.857 35.6421 29.9746 35.7382 29.8421C35.8288 29.717 35.7234 29.6648 35.6532 29.5976C35.0302 28.9986 34.4091 28.3995 33.7861 27.8005C33.701 27.7184 33.6068 27.6437 33.5254 27.556C33.2001 27.2033 33.1372 26.7535 33.3979 26.4979C33.7657 26.1377 34.1003 26.3747 34.3776 26.6266C35.3019 27.4664 36.0968 28.4312 36.925 29.3625C36.9158 29.3195 36.9232 29.3158 36.9472 29.3494L36.9121 29.3531C36.6921 28.2969 36.2188 27.3283 35.9027 26.3057C35.8879 26.259 35.8639 26.203 35.8269 26.175C34.6753 25.3464 34.1299 24.0215 33.2574 22.9633C32.9949 22.6442 32.7767 22.2896 32.542 21.95C32.3405 21.657 32.2406 21.3416 32.5623 21.0841C32.8673 20.8396 33.1446 21.0001 33.3498 21.2632C34.1133 22.2411 34.8712 23.2227 35.6236 24.2099C35.79 24.4283 35.9249 24.641 36.2595 24.628C36.5645 24.6168 36.7235 24.837 36.827 25.1244C37.487 26.9738 38.158 28.8175 38.8254 30.6632C38.8753 30.8031 38.8845 31.0159 39.0398 31.0402C39.2413 31.0719 39.2838 30.8311 39.3615 30.7005C40.1471 29.3625 40.7535 27.9311 41.4855 26.5651C41.6944 26.1769 41.8848 25.7757 42.1899 25.4454C42.4117 25.2065 42.6465 24.9956 42.9774 25.2046C43.2879 25.4006 43.2047 25.7085 43.1179 25.9903C42.8221 26.9458 42.2823 27.7781 41.8183 28.6496C41.4042 29.4296 40.9661 30.1966 40.4725 31.0868C42.151 30.6147 43.5892 29.8831 45.0552 29.2206C45.4637 29.2486 45.7706 28.9706 46.1311 28.8605C46.3381 28.797 46.5877 28.7261 46.7485 28.8903C46.9057 29.0508 46.6875 29.2244 46.6432 29.3923C46.621 29.4726 46.5988 29.5547 46.5766 29.6349C45.8538 30.178 45.1125 30.6874 44.24 30.9674C43.9922 31.0476 43.7575 31.1708 43.5153 31.2734C42.9256 31.4246 42.3174 31.5198 41.7924 31.8594C41.4301 31.9807 41.0677 32.102 40.6204 32.2513C41.4134 32.6283 42.1344 32.953 42.8387 33.3076C43.9756 33.8805 45.1569 34.3414 46.3548 34.7632C47.0813 35.017 47.39 35.3454 47.2717 35.7224C47.1719 36.0434 46.6006 36.1628 45.9444 35.9389C44.4063 35.4145 42.8923 34.8229 41.48 33.998C41.3339 33.9122 41.1805 33.8413 41.0252 33.7722C40.9846 33.7536 40.9272 33.7704 40.8533 33.7704C42.3766 35.0692 43.8813 36.3532 45.3898 37.6334C45.5747 37.7901 45.7632 37.9245 45.7688 38.2025C45.7761 38.6112 45.5081 38.8333 45.118 38.7288C44.7446 38.6299 44.4599 38.3854 44.1716 38.1484C42.848 37.066 41.5003 36.0117 40.3228 34.7613C40.2932 34.7296 40.2377 34.7203 40.1878 34.6979C40.0492 34.8565 40.125 35.0282 40.1342 35.1868C40.2765 37.3889 40.4226 39.591 40.5686 41.7931C40.5982 42.2521 40.5779 42.6758 39.9567 42.687C39.7386 42.6907 39.7941 42.8605 39.8088 42.9893C39.8403 43.2599 39.9013 43.5305 39.8329 43.8048C39.5926 43.969 39.3264 44.0381 39.038 44.0175L39.0343 44.012C38.9677 43.6014 39.2173 43.1423 38.8494 42.7765L38.8457 42.1588C39.1729 41.8976 38.9714 41.5841 38.9308 41.2855C38.8864 41.2313 38.8956 41.181 38.9363 41.1306C39.5149 40.7088 39.6277 40.2162 39.2635 39.6955C39.1415 38.4619 39.0287 37.2265 38.9437 35.9781C38.5906 37.3646 38.4224 38.7904 37.9676 40.1471C37.7476 40.5857 37.829 41.0597 37.816 41.5225C37.8216 41.8602 37.8253 42.198 37.8308 42.5339C37.8253 42.8195 37.7735 43.1069 37.8881 43.3849C37.8955 43.5379 37.9029 43.691 37.9122 43.8459C37.9251 44.1351 37.9122 44.4206 37.8142 44.6968C37.7329 44.9525 37.5351 45.029 37.3003 44.9973C37.0748 44.9674 36.9435 44.8051 36.8991 44.5867C36.8566 44.3703 36.8233 44.15 36.8049 43.9298C36.6034 41.5486 36.9158 39.2196 37.4999 36.9167C37.6293 36.4073 37.7292 35.8903 37.8678 35.2596C37.291 35.6963 36.9749 36.2113 36.6329 36.6872C33.7565 40.6902 31.2664 44.9208 29.2644 49.4425C27.7615 52.8371 26.6246 56.3567 25.6688 59.9379C25.4803 60.6471 25.3601 61.3767 25.1605 62.0821C25.0329 62.5356 25.1568 62.6345 25.5986 62.6327C28.7024 62.6177 31.8044 62.6252 34.9082 62.6271C35.2816 62.6271 35.655 62.6252 36.0266 62.6345C36.6403 62.6495 37.0008 62.9499 37.0045 63.4407C37.0082 63.9483 36.6274 64.2618 35.9915 64.2618C30.9891 64.2618 25.9868 64.2637 20.9845 64.2637C19.6442 64.2637 18.3058 64.2637 16.9656 64.26C16.7456 64.26 16.5164 64.2786 16.3186 64.1611C16.0006 63.9726 15.8158 63.6871 15.8916 63.3064C15.9692 62.9163 16.2206 62.6607 16.6273 62.6457C17.2873 62.6233 17.9491 62.6271 18.6109 62.6271C19.8309 62.6271 21.0529 62.6289 22.2729 62.6364C22.8164 62.6383 22.8442 62.614 22.6612 62.0989C20.9863 57.3775 19.0212 52.7867 16.6125 48.3956C16.1448 47.5446 15.6605 46.703 15.1928 45.852C15.0153 45.531 14.9081 45.419 14.5402 45.7326C13.1741 46.9008 11.5898 47.4569 9.7856 47.1509C8.98885 47.0165 8.75407 46.535 9.02212 45.768C9.23471 45.1578 9.47873 44.5569 9.54343 43.9C9.70796 42.2484 9.06834 40.8562 8.19025 39.5425C7.35837 38.2959 6.38231 37.1985 4.99216 36.5566C4.63538 36.3924 4.41909 36.1273 4.4653 35.7131C4.50967 35.3249 4.71117 35.0618 5.09383 34.9311C5.861 34.668 6.62633 34.403 7.34174 34.0036C8.19764 33.524 8.92415 32.9045 9.53973 32.1431C9.74308 31.8911 9.94458 31.6355 10.1812 31.419C10.4049 31.2137 10.6692 31.0308 11.0075 31.1465C11.3625 31.2678 11.4919 31.5664 11.5196 31.9042C11.5935 32.8018 11.8339 33.6565 12.1925 34.4721C13.0373 36.3942 14.311 37.9077 16.2668 38.7568C16.8011 38.9882 17.3686 39.1711 17.9398 39.13C19.1469 39.0461 19.5278 40.0351 19.2135 41.1119C18.8124 42.4854 17.8733 43.4652 16.7456 44.2583C16.3574 44.5326 16.3556 44.7024 16.5922 45.0981C18.7236 48.655 20.5482 52.3706 22.1398 56.2056C22.6501 57.4335 23.1178 58.6801 23.6058 59.9155C23.628 59.9734 23.6723 60.0219 23.7481 60.1357C23.8775 59.8203 23.8424 59.5497 23.8406 59.2941C23.8258 55.4068 23.6742 51.5289 23.212 47.6622C22.7869 44.1071 22.1325 40.6006 21.2932 37.1258C20.4022 33.4363 19.2486 29.8271 17.9583 26.2627C17.6755 25.4827 17.4407 24.684 17.0765 23.9338C17.0321 23.8442 17.1135 23.6389 16.9175 23.7061C16.8103 23.7434 16.7567 23.8852 16.8159 24.0439C16.9027 24.2809 16.9637 24.5309 17.0192 24.7773C17.0913 25.0945 17.1042 25.4043 16.729 25.548C16.3556 25.6917 16.1078 25.5293 15.9489 25.1878C15.6549 24.5477 15.5403 23.8516 15.3277 23.1854C15.2482 22.9372 15.202 22.7301 14.8582 22.6965C14.5143 22.6629 14.3868 22.3326 14.3387 22.0153C14.152 20.7631 13.9801 19.5109 13.7952 18.2587C13.7028 17.6354 13.5956 17.0158 13.4551 16.3944C13.1094 18.6058 12.7582 20.8079 12.1518 22.9596C11.9078 23.0473 11.7507 23.1929 11.7636 23.484C11.771 23.6594 11.7396 23.846 11.5104 23.8516C11.2996 23.8572 11.1647 23.7285 11.1147 23.5232C11.0297 23.1723 10.8227 22.814 11.1961 22.4893C11.3569 22.3512 11.2294 22.2131 11.1369 22.0881C11.6934 20.2219 12.0354 18.311 12.2886 16.2656C11.869 16.6837 11.795 17.1651 11.5861 17.5682C11.3588 18.0049 11.1721 18.464 10.9539 18.9063C10.8023 19.2123 10.6471 19.5482 10.2348 19.5314C9.81888 19.5146 9.78745 19.1414 9.69317 18.7924C9.22362 19.147 8.88717 19.5706 8.51375 19.9551C7.94623 20.541 7.41199 21.1606 6.78161 21.6831C6.63927 21.8007 6.49323 21.9239 6.3324 22.0116C6.09393 22.1422 5.84806 22.1646 5.63363 21.9481C5.40625 21.7167 5.48204 21.4816 5.64472 21.2577C6.26215 20.4011 7.04411 19.6975 7.76507 18.938C8.8502 17.7959 9.89467 16.6127 11.0316 15.5229C11.161 15.3997 11.2941 15.2654 11.3477 15.0321H10.7025C9.96676 14.9556 9.27538 15.284 8.54518 15.2616C8.43796 15.2579 8.35847 15.3325 8.30486 15.4277L8.31596 15.4202ZM10.2404 33.6995C9.89097 34.0148 9.59334 34.3209 9.2569 34.5747C8.99994 34.7688 9.01103 34.9218 9.1885 35.1569C10.0777 36.3382 10.9484 37.5307 11.8412 38.7083C12.2221 39.2103 12.614 39.7011 12.9171 40.2553C13.0539 40.5054 13.126 40.7853 12.9319 41.0261C12.7156 41.2948 12.4125 41.3097 12.0945 41.2164C11.8708 41.1511 11.7082 41.0111 11.5732 40.8301C10.9022 39.9325 10.233 39.0311 9.56007 38.1354C8.99809 37.387 8.41023 36.6611 7.87968 35.8922C7.60794 35.4966 7.29922 35.6776 7.11806 35.8437C6.87774 36.0639 7.24376 36.1553 7.35838 36.2636C8.12555 36.9895 8.84281 37.7584 9.43806 38.6374C10.4548 40.1415 11.2312 41.7296 11.1591 43.6201C11.1369 44.2079 10.9835 44.7659 10.8171 45.322C10.7709 45.4788 10.6877 45.6337 10.9909 45.6579C12.3847 45.768 13.5346 44.8424 13.6603 43.4484C13.7065 42.937 13.9487 42.6179 14.4164 42.4742C14.8545 42.338 15.1798 42.5451 15.4035 42.9072C15.5403 43.1274 15.6679 43.1237 15.8527 42.993C16.655 42.4238 17.2872 41.7166 17.6477 40.7741C13.6695 40.0389 11.4771 37.4225 10.2404 33.7013V33.6995ZM18.4944 20.347C17.9842 19.5856 17.4093 18.9697 16.8602 18.3352C16.7992 18.2643 16.6994 18.171 16.6014 18.2531C16.5164 18.324 16.5552 18.4341 16.6014 18.533C16.8473 19.0724 17.0894 19.6117 17.3279 20.1547C17.4333 20.3955 17.6329 20.4925 17.8548 20.4253C18.0433 20.3694 18.23 20.3432 18.4944 20.347ZM16.1596 21.5936C15.8731 20.8788 15.6642 20.2313 15.2741 19.6621C15.5607 20.2816 15.1687 21.1849 16.1596 21.5936Z" fill="#F3FBFA"/>
<path d="M29.5019 10.488C29.428 10.0382 29.6091 9.67059 29.7016 9.29736C29.9955 8.1142 29.513 7.07847 29.1581 6.01475C28.8494 5.08913 28.6996 4.15231 28.9973 3.19869C29.4076 1.8793 30.2728 1.34931 31.6056 1.68709C32.8941 2.01367 33.8961 2.77507 34.4414 4.03474C34.7908 4.84279 34.654 5.60046 34.0606 6.26295C33.6003 6.77615 33.0494 7.17365 32.4412 7.47224C31.26 8.05075 30.3153 8.85134 29.8032 10.1091C29.7496 10.2398 29.6979 10.3984 29.5019 10.4917V10.488Z" fill="#F3FBFA"/>
<path d="M37.6562 3.13338C37.7579 3.0774 37.8004 3.03634 37.843 3.03448C39.2571 2.98596 40.2924 2.16857 41.3294 1.32319C42.2907 0.541264 43.3241 -0.100702 44.6458 0.0131353C45.4093 0.0784515 45.9639 0.51887 46.0988 1.28214C46.2837 2.32533 46.1931 3.37039 45.8659 4.37253C45.328 6.02223 43.716 6.34134 42.287 5.64899C41.5901 5.31121 41.0355 4.77748 40.4939 4.24003C39.9633 3.71376 39.3718 3.38532 38.6009 3.40771C38.2959 3.41704 37.9557 3.42451 37.6562 3.13338Z" fill="#F3FBFA"/>
<path d="M40.9316 10.2154C41.0056 10.2378 41.0629 10.2397 41.0961 10.2677C42.0408 11.0925 43.1518 11.0216 44.2739 10.8667C45.0854 10.7547 45.884 10.7137 46.6956 10.9078C48.2854 11.2885 48.9139 12.7385 48.0506 14.1325C47.57 14.9107 46.9248 15.5377 46.1391 16.0006C44.9949 16.6742 43.943 16.4316 43.1148 15.3231C42.7118 14.7819 42.4586 14.1661 42.3033 13.5148C42.063 12.5108 41.7709 11.5367 41.1054 10.7211C41.0203 10.6185 40.9686 10.486 40.9094 10.3647C40.8983 10.3404 40.9187 10.3012 40.9335 10.2117L40.9316 10.2154Z" fill="#F3FBFA"/>
<path d="M32.1985 17.5888C32.498 16.5326 31.9785 15.6368 31.7752 14.685C31.6513 14.1047 31.6328 13.5038 31.8916 12.9271C32.2281 12.1769 33.0026 11.8615 33.7402 12.2217C34.3614 12.5259 34.8494 12.9906 35.1785 13.6064C35.5352 14.2745 35.4557 14.7914 34.9067 15.3102C34.6867 15.5174 34.4427 15.717 34.1765 15.8495C33.3742 16.2489 32.6366 16.708 32.2022 17.587L32.1985 17.5888Z" fill="#F3FBFA"/>
<path d="M27.731 31.4825C27.3816 31.4657 27.0766 31.4713 26.7771 31.4303C26.4277 31.3818 26.1523 31.1951 26.1819 30.7976C26.2114 30.402 26.498 30.2695 26.8603 30.2546C27.6959 30.2173 28.513 30.3554 29.3319 30.4953C29.4557 30.5158 29.5944 30.6315 29.6887 30.4487C29.8828 30.0698 30.2248 30.0848 30.5686 30.1053C31.3099 30.1519 32.0604 30.1389 32.7814 30.3666C33.0254 30.4431 33.2898 30.5326 33.2288 30.8816C33.1733 31.1989 32.9385 31.2679 32.6612 31.2735C32.1362 31.2828 31.6112 31.3146 31.0862 31.3034C30.7387 31.2959 30.5501 31.4303 30.613 31.7792C30.7147 32.3391 30.4337 32.5239 29.9493 32.5574C29.2912 32.6022 28.6331 32.6601 27.9732 32.703C27.6293 32.7254 27.2504 32.7441 27.1339 32.3186C27.0174 31.9006 27.3594 31.7699 27.6534 31.6281C27.6755 31.6169 27.6848 31.574 27.7328 31.4844L27.731 31.4825Z" fill="#F3FBFA"/>
<path d="M39.0384 24.9547C39.0384 24.6132 39.0421 24.2698 39.0384 23.9283C39.0328 23.5943 39.0994 23.2471 38.6853 23.0568C38.5115 22.9784 38.5078 22.7358 38.5078 22.5455C38.5152 21.6908 38.5281 20.8342 38.5448 19.9795C38.5466 19.8619 38.5781 19.7425 38.6058 19.6268C38.6871 19.2834 38.8831 19.0893 39.2565 19.1266C39.6262 19.1621 39.7556 19.429 39.7482 19.7313C39.739 20.1904 39.6835 20.6513 39.6114 21.1048C39.5671 21.3866 39.5282 21.6161 39.9035 21.6516C39.9349 21.6553 39.9775 21.6758 39.9904 21.7001C40.1679 22.0845 40.3823 22.3514 40.8759 22.1629C41.0016 22.1144 41.1291 22.2973 41.1901 22.4503C41.3861 22.9467 41.046 23.8761 40.5413 24.072C40.3102 24.1616 40.2751 24.2829 40.2677 24.4807C40.2474 25.1133 40.1827 25.7441 40.0662 26.3655C40.007 26.6828 39.8832 26.9758 39.4894 26.9534C39.0716 26.931 39.0384 26.6044 39.0328 26.2853C39.0254 25.8411 39.031 25.3951 39.031 24.951H39.0384V24.9547Z" fill="#F3FBFA"/>
<path d="M49.5587 31.5964C49.9302 31.5964 50.3036 31.5833 50.6752 31.6001C51.0708 31.6169 51.337 31.8017 51.2649 32.244C51.2206 32.5145 51.3777 32.5537 51.5589 32.6247C51.8195 32.7273 52.0635 32.8635 51.9896 33.2162C51.9156 33.5708 51.6273 33.5988 51.3537 33.5839C50.6309 33.5428 49.8951 33.6193 49.1945 33.3562C49.0133 33.289 48.7748 33.2013 48.8488 32.9923C49.0078 32.5463 48.6954 32.5799 48.4532 32.5146C48.3404 32.4847 48.2277 32.4436 48.1204 32.3951C47.93 32.3093 47.8339 32.1544 47.8542 31.9454C47.8764 31.7177 48.0446 31.6151 48.2406 31.6057C48.6787 31.5889 49.1187 31.6001 49.5587 31.6001V31.5945V31.5964Z" fill="#EDF9F9"/>
<path d="M47.2158 23.1966C47.2306 23.4597 47.0587 23.6389 46.8979 23.8087C45.9883 24.7642 45.0474 25.6898 44.2728 26.7666C44.1638 26.9196 44.0196 27.0409 43.8329 27.095C43.6184 27.1585 43.4317 27.1118 43.282 26.9401C43.1452 26.7796 43.1267 26.6042 43.2302 26.4195C43.2968 26.3019 43.3522 26.1731 43.4373 26.0705C44.3597 24.9881 45.2415 23.8684 46.2767 22.8887C46.4431 22.73 46.6354 22.5471 46.9053 22.7002C47.092 22.8065 47.2251 22.9521 47.2158 23.1928V23.1966Z" fill="#EDF9F9"/>
<path d="M22.0452 10.0084C22.7015 9.88525 23.3171 9.60719 23.9974 9.5512C24.5852 9.50268 24.8255 9.5624 25.0603 10.1372C25.1472 10.3499 25.2951 10.2883 25.4282 10.3145C25.7683 10.3817 26.0401 10.5086 26.0604 10.9228C26.0807 11.3558 25.7591 11.4304 25.4651 11.479C25.0492 11.5461 24.624 11.5797 24.2007 11.5835C23.598 11.5872 23.5019 11.4472 23.6332 10.8015C23.2524 10.8351 22.903 10.9434 22.5517 11.0497C22.28 11.1319 21.9842 11.2606 21.7384 11.0143C21.4777 10.7549 21.6515 10.475 21.7531 10.2062L21.7494 10.2137C21.8604 10.1521 22.0082 10.1428 22.0656 9.99909L22.0471 10.0084H22.0452Z" fill="#EDF9F9"/>
<path d="M21.7479 10.2044C21.2303 10.7586 20.5999 11.1412 19.903 11.4155C19.7273 11.4846 19.548 11.5238 19.3576 11.5088C19.158 11.4939 18.9897 11.423 18.9232 11.2196C18.864 11.0423 18.9121 10.8799 19.0544 10.7568C19.2985 10.5477 19.5369 10.3313 19.7939 10.1409C20.6091 9.53815 21.4318 8.9447 22.3061 8.42964C22.5927 8.26168 22.8663 8.12545 23.0992 8.47069C23.3155 8.79168 23.1362 9.03988 22.9254 9.29927C22.6777 9.60346 22.2803 9.69864 22.0455 10.0047L22.064 9.99536C21.9586 10.0663 21.8532 10.1391 21.7479 10.21L21.7516 10.2025L21.7479 10.2044Z" fill="#EDF9F9"/>
<path d="M41.7987 31.8595C42.3256 31.5198 42.9338 31.4228 43.5216 31.2735C43.3663 31.6691 43.7009 31.462 43.7749 31.4508C44.359 31.3593 44.9395 31.2436 45.5218 31.1335C45.9618 31.0514 46.3962 31.072 46.8306 31.1765C47.1005 31.2418 47.3039 31.3649 47.3057 31.6803C47.3094 31.9752 47.1652 32.1749 46.8879 32.2476C45.7788 32.5406 44.6437 32.5761 43.5105 32.4921C43.0465 32.4585 42.9578 32.1805 43.1094 31.4862C42.6583 31.6131 42.2276 31.7363 41.7969 31.8576L41.7987 31.8595Z" fill="#EDF9F9"/>
<path d="M46.5839 29.633C46.6061 29.5527 46.6301 29.4725 46.6505 29.3904C46.6948 29.2206 46.913 29.0489 46.7558 28.8884C46.595 28.7242 46.3454 28.7932 46.1384 28.8585C45.7761 28.9705 45.4692 29.2467 45.0625 29.2187C45.3694 29.0433 45.667 28.8473 45.9868 28.698C46.5636 28.4256 46.8409 28.5319 47.1071 29.0843C47.9445 28.3267 48.9427 27.8433 49.9706 27.416C50.2294 27.3077 50.4863 27.3506 50.6361 27.6119C50.795 27.8881 50.7045 28.1326 50.4789 28.3416C50.2349 28.5655 49.9169 28.6458 49.6323 28.7932C49.122 29.0563 48.597 29.2877 48.0887 29.5546C47.4805 29.8737 47.3437 29.8364 47.0627 29.2019C46.8982 29.34 46.8168 29.5714 46.5858 29.633H46.5839Z" fill="#EDF9F9"/>
<path d="M18.7332 8.26726C18.3986 8.26726 18.2396 8.01346 18.3782 7.65888C18.5871 7.12329 18.9605 6.6978 19.3728 6.31897C19.8719 5.86176 20.4025 5.43813 20.9256 5.01078C21.1752 4.80736 21.4636 4.64314 21.7279 4.96039C21.9664 5.24591 21.7982 5.50531 21.58 5.72179C20.8221 6.47013 20.066 7.22033 19.2988 7.95934C19.1454 8.10863 18.9827 8.27472 18.735 8.26726H18.7332Z" fill="#EDF9F9"/>
<path d="M16.625 5.26085C16.771 4.91934 16.906 4.57036 17.0668 4.23632C17.4144 3.51971 17.7656 2.80309 18.139 2.09955C18.2758 1.84201 18.4792 1.60128 18.8248 1.69458C19.1557 1.78416 19.433 2.03236 19.2408 2.36454C18.64 3.40587 18.2296 4.55543 17.4846 5.51278C17.346 5.69007 17.1685 5.8431 16.9189 5.72553C16.7378 5.63968 16.6268 5.49599 16.625 5.26085Z" fill="#EDF9F9"/>
<path d="M31.5278 32.9342C31.5981 33.3112 32.1859 33.7012 32.5852 33.5967C32.8718 33.5202 33.1564 33.5445 33.443 33.5277C32.7904 33.7311 32.1434 34.0857 31.4631 33.6117C31.4021 33.5687 31.3337 33.5407 31.2838 33.6023C30.7422 34.2742 29.9195 34.1025 29.2226 34.2947C28.9009 34.3843 28.5534 34.3861 28.217 34.4197C28.0062 34.4421 27.7899 34.429 27.7012 34.1976C27.6125 33.9662 27.6273 33.7311 27.8103 33.5296C28.0044 33.3131 28.265 33.2272 28.5312 33.1824C29.2318 33.063 29.938 32.979 30.6516 33.0033C30.768 33.007 30.9159 33.0089 30.9917 33.0761C31.2616 33.3149 31.391 33.1321 31.5297 32.9324L31.5278 32.9342Z" fill="#EDF9F9"/>
<path d="M6.7267 6.51127C7.07609 6.69416 7.41623 6.88637 7.50866 7.32306C7.29792 7.13458 7.08533 6.94609 6.80989 6.70162C6.77292 7.0226 6.74889 7.30253 6.44941 7.39957C6.16473 7.49102 5.95768 7.30626 5.75619 7.16817C5.11472 6.73148 4.48249 6.278 3.85212 5.82265C3.71717 5.72561 3.57298 5.61178 3.49349 5.46995C3.34745 5.21055 3.27535 4.91383 3.51752 4.66562C3.75599 4.42116 4.03698 4.45288 4.30318 4.62643C4.85776 4.98847 5.31252 5.47368 5.82088 5.89357C6.07599 6.10631 6.27934 6.38251 6.5936 6.52247L6.58621 6.50941L6.64906 6.61951L6.72855 6.51314L6.7267 6.51127Z" fill="#EDF9F9"/>
<path d="M50.1687 26.2684C50.1576 26.5054 50.0023 26.6808 49.7786 26.7891C48.8321 27.2369 47.8838 27.6811 46.9336 28.1178C46.6656 28.2409 46.4308 28.1644 46.2847 27.9013C46.1276 27.6195 46.172 27.362 46.4622 27.2033C47.3532 26.72 48.2424 26.2311 49.1501 25.7851C49.6511 25.5387 50.1539 25.7944 50.1687 26.2684Z" fill="#EDF9F9"/>
<path d="M11.1504 22.0845C11.241 22.2076 11.3685 22.3457 11.2095 22.4857C10.8343 22.8104 11.0413 23.1687 11.1282 23.5196C11.1781 23.723 11.3131 23.8517 11.5238 23.848C11.7549 23.8424 11.7863 23.6539 11.7771 23.4804C11.7641 23.1892 11.9231 23.0437 12.1653 22.956C12.0913 23.1986 12.0451 23.4542 11.9379 23.6819C11.8399 23.8947 11.7031 24.1093 11.4073 24.0794C11.1356 24.0514 10.9877 23.8629 10.8971 23.6371C10.8232 23.458 10.801 23.2564 10.7381 22.9896C10.3629 23.6241 10.2039 24.2679 9.95433 24.8725C9.85635 25.1095 9.76762 25.3447 9.61419 25.5537C9.44596 25.7851 9.22043 25.8131 8.98196 25.7254C8.76013 25.6451 8.71206 25.4436 8.71946 25.2234C8.73055 24.8296 8.96163 24.5198 9.11506 24.1839C9.35353 23.6595 9.59755 23.1333 9.88038 22.6294C10.2113 22.0378 10.4368 22.0192 10.9101 22.4689L11.1504 22.0863V22.0845Z" fill="#EDF9F9"/>
<path d="M46.6655 41.3694C46.3549 41.362 46.1886 41.1268 46.0185 40.9253C45.8133 40.6845 45.6432 40.5128 45.2643 40.58C44.8483 40.6547 43.8279 39.6171 43.7909 39.1804C43.7706 38.949 43.9203 38.8501 44.0848 38.7512C44.2549 38.6467 44.401 38.6635 44.5396 38.8072C44.743 39.0162 44.9223 39.2513 45.231 38.9005C45.3548 38.7605 45.5804 38.8501 45.7375 38.9826C46.2588 39.423 46.7006 39.9325 47.0777 40.5016C47.2071 40.6976 47.2534 40.9141 47.1369 41.1287C47.0389 41.3097 46.867 41.3769 46.6674 41.3713L46.6655 41.3694Z" fill="#EDF9F9"/>
<path d="M10.9507 4.2755C10.9119 4.55729 10.8287 4.80176 10.5348 4.86894C10.2649 4.93053 10.0782 4.7831 9.95986 4.54982C9.56056 3.76043 9.15202 2.97477 8.77675 2.17232C8.61038 1.81588 8.55862 1.40718 9.00598 1.20377C9.42931 1.00969 9.73803 1.24669 9.90256 1.62739C10.2556 2.43918 10.5791 3.2659 10.91 4.08701C10.9359 4.1486 10.9378 4.21951 10.9507 4.2755Z" fill="#EDF9F9"/>
<path d="M8.32074 15.4204C8.37435 15.3252 8.45384 15.2524 8.56106 15.2543C9.29126 15.2767 9.98449 14.9483 10.7184 15.0248C10.5354 15.0584 10.3542 15.1013 10.1694 15.1199C9.84584 15.1554 9.56116 15.1927 9.74232 15.6518C9.80518 15.8086 9.68871 15.9429 9.56855 16.0493C8.91045 16.6334 8.28377 17.2567 7.56466 17.768C7.26704 17.9789 6.94723 18.1189 6.65515 17.8091C6.33719 17.4713 6.5128 17.1578 6.779 16.8704C7.25964 16.3516 7.89002 16.0474 8.46309 15.6649C8.54627 15.6089 8.67383 15.551 8.62391 15.4409C8.55552 15.2916 8.42427 15.4055 8.3189 15.4204H8.32074Z" fill="#EDF9F9"/>
<path d="M43.7318 20.795C43.619 21.1346 43.4637 21.5489 43.3435 21.9706C43.1661 22.5921 42.9794 23.2117 42.6984 23.7939C42.5764 24.0477 42.4266 24.3332 42.0495 24.1933C41.6669 24.0514 41.6816 23.751 41.7722 23.4319C42.0236 22.5492 42.2732 21.6665 42.5339 20.7875C42.6023 20.5542 42.7409 20.3583 42.9701 20.25C43.3343 20.0783 43.7207 20.3116 43.7318 20.7931V20.795Z" fill="#EDF9F9"/>
<path d="M3.40712 21.4293C2.92279 21.4293 2.69541 21.0785 2.88951 20.6959C2.96346 20.5485 3.08916 20.4197 3.21302 20.3077C3.92843 19.6583 4.71964 19.1078 5.52193 18.5759C5.76595 18.4136 6.04878 18.3258 6.25398 18.5871C6.47581 18.8708 6.24474 19.0761 6.04324 19.2757C5.40362 19.9046 4.78434 20.5559 4.07262 21.1083C3.85634 21.2763 3.64005 21.4386 3.40897 21.4274L3.40712 21.4293Z" fill="#EDF9F9"/>
<path d="M21.1556 8.15902C20.9467 8.14782 20.8007 8.0881 20.7175 7.91082C20.6269 7.71673 20.6472 7.53571 20.8117 7.40322C21.6824 6.6978 22.6086 6.08196 23.6549 5.677C23.9285 5.57063 24.2095 5.67887 24.3463 5.95506C24.4646 6.1902 24.4017 6.45333 24.1707 6.58583C23.2648 7.10836 22.4015 7.70927 21.4218 8.09184C21.3294 8.12916 21.2258 8.14035 21.1556 8.15902Z" fill="#EDF9F9"/>
<path d="M9.63861 11.4061C9.29477 11.3594 8.99899 11.1859 8.69951 11.031C8.0525 10.6969 7.38515 10.3983 6.80099 9.9542C6.50522 9.73026 6.30372 9.42047 6.49967 9.07336C6.69932 8.71692 7.05425 8.84009 7.35927 8.96699C8.30946 9.35702 9.09142 10.0176 9.91035 10.6148C10.0786 10.738 10.208 10.9115 10.0971 11.1448C10.0065 11.3333 9.84565 11.4135 9.64046 11.4079L9.63861 11.4061Z" fill="#EDF9F9"/>
<path d="M31.2434 27.5803C31.2101 27.5747 31.1362 27.5766 31.0789 27.5468C30.2747 27.1586 29.4576 26.7947 28.8162 26.1359C28.6554 25.9717 28.55 25.7814 28.5223 25.5574C28.4927 25.3241 28.5611 25.1039 28.7478 24.964C28.9419 24.8165 29.1822 24.8427 29.3671 24.9789C30.1287 25.5369 30.8848 26.1042 31.5817 26.7462C31.7536 26.9029 31.7906 27.1007 31.7166 27.306C31.6464 27.5001 31.4782 27.5803 31.2416 27.5822L31.2434 27.5803Z" fill="#EDF9F9"/>
<path d="M48.5863 33.9478C49.3313 34.0355 50.2205 34.1325 51.0986 34.3117C51.4017 34.3732 51.6088 34.5095 51.594 34.8435C51.5792 35.1888 51.3315 35.3287 51.0394 35.3138C49.9764 35.2615 48.9172 35.157 47.8746 34.9275C47.6084 34.8696 47.4882 34.6588 47.5104 34.3863C47.5344 34.1045 47.7101 33.9645 47.9818 33.9478C48.1334 33.9384 48.2868 33.9478 48.5844 33.9478H48.5863Z" fill="#EDF9F9"/>
<path d="M4.62013 10.3649C3.77347 10.2063 2.92495 10.0644 2.08384 9.88154C1.63832 9.7845 1.38136 9.38327 1.49598 9.0175C1.63462 8.57335 1.98771 8.53602 2.35743 8.648C3.1967 8.89993 4.03227 9.16679 4.86414 9.44299C5.12849 9.5307 5.38545 9.68559 5.28748 10.0308C5.1932 10.3611 4.90851 10.3742 4.62013 10.3649Z" fill="#EDF9F9"/>
<path d="M2.09828 12.356C2.58817 12.356 3.07804 12.3373 3.56608 12.3616C3.90068 12.3784 4.23897 12.4959 4.23158 12.9084C4.22603 13.3413 3.87665 13.3917 3.5365 13.3936C2.6085 13.401 1.6805 13.3693 0.754346 13.4887C0.380927 13.5354 0.00565879 13.4496 0.000112964 12.9606C-0.00728147 12.4903 0.349499 12.3802 0.730313 12.3672C1.18507 12.3522 1.64168 12.3634 2.09828 12.3634V12.3541V12.356Z" fill="#F3FBFA"/>
<path d="M14.6354 6.12109C14.5947 6.63056 14.5578 7.14189 14.5115 7.65136C14.4838 7.97608 14.4025 8.28213 14.005 8.29519C13.5706 8.31012 13.4671 7.94808 13.4357 7.6383C13.3802 7.0971 13.4042 6.54658 13.4005 5.99979C13.3968 5.65828 13.4042 5.31677 13.4042 4.97526C13.4042 4.73452 13.4578 4.52365 13.7185 4.45646C13.9976 4.38368 14.2195 4.49379 14.3692 4.73639C14.6299 5.16188 14.6742 5.63402 14.6372 6.11923L14.6354 6.12109Z" fill="#EDF9F9"/>
<path d="M36.1204 19.5465C36.3959 19.5353 36.577 19.6827 36.6602 19.9272C36.98 20.8584 37.2998 21.7915 37.5938 22.7339C37.6788 23.0083 37.5402 23.2471 37.2629 23.3423C36.9967 23.4337 36.7785 23.2975 36.6824 23.0586C36.3164 22.1423 35.9503 21.2261 35.6287 20.293C35.4808 19.8637 35.7341 19.5409 36.1204 19.5465Z" fill="#EDF9F9"/>
<path d="M13.8588 23.889C13.8496 24.5067 13.7128 25.1058 13.6093 25.7085C13.5815 25.8709 13.5057 26.0333 13.4244 26.1788C13.2876 26.4233 13.0491 26.455 12.8051 26.4028C12.5463 26.3468 12.4483 26.134 12.4835 25.897C12.6184 24.9714 12.7607 24.0477 12.9253 23.1276C12.9715 22.8682 13.1379 22.6331 13.4447 22.6779C13.7608 22.7245 13.8773 22.9615 13.8588 23.2769C13.8477 23.4803 13.857 23.6856 13.857 23.889H13.8588Z" fill="#EDF9F9"/>
<path d="M14.1996 3.61117C14.342 2.76953 14.6359 1.8607 14.9631 0.964933C15.0759 0.657014 15.3254 0.524515 15.6582 0.61969C16.0131 0.720464 16.1166 1.02838 16.0224 1.30644C15.7099 2.2246 15.355 3.12783 14.9871 4.02546C14.8966 4.24381 14.671 4.31285 14.4215 4.22328C14.1664 4.12997 14.1756 3.93029 14.1978 3.61491L14.1996 3.61117Z" fill="#EDF9F9"/>
<path d="M30.0555 23.3665C30.0462 23.1799 30.1165 23.0156 30.2958 22.913C30.4788 22.8066 30.6526 22.8402 30.8171 22.9578C30.8855 23.0063 30.9539 23.0586 31.0149 23.1164C31.6268 23.7043 32.1019 24.4041 32.5862 25.0946C32.7619 25.3446 32.8561 25.6525 32.5677 25.8728C32.3108 26.0706 32.0612 25.9306 31.8486 25.7235C31.2645 25.158 30.6785 24.5963 30.2311 23.9058C30.1239 23.7416 30.0499 23.5811 30.0555 23.3683V23.3665Z" fill="#EDF9F9"/>
<path d="M20.8024 2.57349C21.1962 2.57722 21.492 3.01017 21.259 3.32369C20.6416 4.15414 19.8892 4.86515 19.1054 5.53884C18.9797 5.64708 18.7893 5.67694 18.6506 5.50898C18.5083 5.3317 18.4898 5.14695 18.6137 4.9454C19.1036 4.14667 19.7302 3.45992 20.3421 2.75824C20.453 2.62947 20.625 2.57722 20.8006 2.57349H20.8024Z" fill="#EDF9F9"/>
<path d="M23.1197 13.4403C22.6982 13.4272 22.5336 13.151 22.6741 12.8356C22.774 12.6117 22.981 12.5146 23.1733 12.4232C23.9626 12.0425 24.8222 11.9417 25.6744 11.8298C25.9314 11.7962 26.144 11.9081 26.2105 12.1881C26.2752 12.4661 26.1329 12.6695 25.8963 12.7572C24.972 13.0932 23.9922 13.1977 23.1215 13.4403H23.1197Z" fill="#EDF9F9"/>
<path d="M24.2675 13.806C24.7906 13.8303 25.3175 13.7967 25.8332 13.9348C26.1272 14.0132 26.3324 14.1681 26.312 14.4984C26.2898 14.8529 26.0421 15.0041 25.726 15.0134C24.8405 15.0377 23.9772 14.8809 23.1232 14.6533C22.8736 14.5861 22.7387 14.4405 22.7812 14.1718C22.8237 13.9049 23.0067 13.8079 23.2526 13.8041C23.5909 13.8004 23.9292 13.8041 24.2675 13.8041V13.806Z" fill="#EDF9F9"/>
<path d="M23.8854 20.1006C23.8669 20.4552 23.5193 20.6791 23.2199 20.5037C22.4915 20.0782 21.741 19.6882 21.0773 19.1582C20.9479 19.0555 20.837 18.9193 20.7483 18.7793C20.6411 18.6095 20.6429 18.4248 20.7779 18.2568C20.9202 18.0795 21.1199 18.0665 21.2825 18.1654C22.0719 18.6524 22.8945 19.0835 23.6321 19.6527C23.7874 19.7721 23.8854 19.9233 23.8854 20.1006Z" fill="#EDF9F9"/>
<path d="M12.3919 2.26565C12.4104 2.62209 12.44 2.98039 12.4437 3.33683C12.4474 3.64475 12.3013 3.87802 11.9889 3.91535C11.6525 3.9564 11.5748 3.68394 11.5267 3.42267C11.3936 2.7042 11.2125 1.99132 11.1958 1.25418C11.1829 0.740978 11.4066 0.431193 11.7763 0.462918C12.2348 0.502107 12.3974 0.811893 12.3937 1.24111C12.39 1.58262 12.3937 1.92227 12.3937 2.26378L12.3919 2.26565Z" fill="#EDF9F9"/>
<path d="M27.7406 27.9609C28.4708 28.071 29.2583 28.2558 30.0255 28.5208C30.2492 28.5973 30.4932 28.7167 30.4303 29.0209C30.3675 29.3288 30.1549 29.4949 29.8351 29.4371C29.0217 29.2897 28.2065 29.1422 27.4005 28.9631C27.0659 28.8884 26.955 28.6029 27.016 28.2838C27.0881 27.9143 27.3931 27.9591 27.7388 27.9628L27.7406 27.9609Z" fill="#EDF9F9"/>
<path d="M2.50622 19.3375C2.22338 19.3468 2.02743 19.2889 1.94609 19.0669C1.86106 18.8355 1.95349 18.6339 2.12726 18.4716C2.54504 18.0778 3.08669 17.9192 3.5969 17.7139C3.98511 17.5571 4.40104 17.4675 4.80589 17.3537C5.1294 17.2641 5.45475 17.3052 5.57861 17.6411C5.70801 17.9901 5.37341 18.0927 5.13309 18.2028C4.36592 18.5518 3.5969 18.8914 2.82603 19.2311C2.70402 19.2852 2.57277 19.3169 2.50253 19.3393L2.50622 19.3375Z" fill="#EDF9F9"/>
<path d="M34.7275 43.5155C34.7682 42.728 35.1249 42.0375 35.393 41.3228C35.4817 41.0839 35.698 41.0876 35.9106 41.1156C36.1324 41.1455 36.2655 41.2929 36.2526 41.4945C36.1934 42.3828 35.9975 43.2487 35.6777 44.0772C35.5889 44.3068 35.3486 44.3646 35.112 44.2751C34.7626 44.1407 34.7127 43.844 34.7293 43.5174L34.7275 43.5155Z" fill="#EDF9F9"/>
<path d="M47.9607 25.0106C47.9514 25.1599 47.8701 25.2943 47.7518 25.3895C47.1066 25.9045 46.4578 26.4196 45.7997 26.9179C45.5926 27.0746 45.3394 27.1791 45.1157 26.9365C44.8643 26.6622 45.0454 26.4159 45.2284 26.2181C45.8181 25.578 46.5299 25.0946 47.297 24.7008C47.6187 24.5348 47.9422 24.7008 47.9607 25.0106Z" fill="#EDF9F9"/>
<path d="M1.87832 18.1561C1.51045 18.1561 1.27198 18.0591 1.19804 17.7381C1.12409 17.419 1.27937 17.2044 1.56036 17.0924C2.34787 16.7826 3.16126 16.5568 3.99683 16.4187C4.239 16.3795 4.44789 16.4262 4.53108 16.6819C4.60687 16.9151 4.53847 17.1335 4.32403 17.2585C3.54022 17.7138 2.67692 17.9415 1.87832 18.1561Z" fill="#EDF9F9"/>
<path d="M44.395 43.2693C44.3913 43.6201 44.3284 43.8123 44.0789 43.9075C43.8293 44.0027 43.6241 43.9187 43.5077 43.719C43.0529 42.9352 42.7183 42.1029 42.6277 41.1885C42.6092 41 42.685 40.8582 42.8625 40.7779C43.0326 40.7014 43.1823 40.7742 43.2692 40.8973C43.8016 41.6513 44.1011 42.5172 44.395 43.2693Z" fill="#EDF9F9"/>
<path d="M41.6329 36.3812C41.7752 36.3812 41.8935 36.5175 42.0137 36.6294C42.6403 37.221 43.0322 37.9712 43.3927 38.7401C43.4925 38.951 43.5184 39.1712 43.3003 39.3373C43.0692 39.5146 42.8326 39.5202 42.6089 39.3261C42.4962 39.2272 42.3778 39.1245 42.2928 39.0014C41.8824 38.4005 41.546 37.7529 41.2391 37.0923C41.0598 36.7078 41.2557 36.3607 41.631 36.3794L41.6329 36.3812Z" fill="#EDF9F9"/>
<path d="M50.3109 37.1257C50.2499 37.107 50.1648 37.0921 50.089 37.0585C49.4254 36.7599 48.7617 36.465 48.1036 36.1534C47.8522 36.034 47.6951 35.8305 47.8319 35.5338C47.9576 35.2558 48.1831 35.196 48.4659 35.2819C49.1814 35.4965 49.8727 35.7727 50.5216 36.1441C50.7712 36.2859 50.9338 36.5173 50.8229 36.829C50.7453 37.0473 50.553 37.1201 50.3109 37.1257Z" fill="#EDF9F9"/>
<path d="M29.025 37.7454C28.72 37.7342 28.537 37.6801 28.4298 37.4674C28.3133 37.2378 28.3429 37.0008 28.5074 36.8478C29.1581 36.2376 29.9456 35.896 30.8237 35.8027C31.1527 35.7673 31.3524 36.1256 31.138 36.3551C30.5298 37.0064 29.7996 37.4898 29.0269 37.7473L29.025 37.7454Z" fill="#EDF9F9"/>
<path d="M2.38639 11.7458C1.93163 11.7178 1.47318 11.7272 1.03691 11.5629C0.707853 11.4379 0.460137 11.2233 0.537779 10.8426C0.617269 10.4507 0.944474 10.4451 1.26428 10.4806C1.93718 10.5552 2.58973 10.7157 3.23675 10.9117C3.47892 10.9844 3.64344 11.1169 3.61386 11.3726C3.58613 11.6264 3.39018 11.7402 3.14432 11.744C2.89106 11.7496 2.6378 11.744 2.38639 11.744V11.7458Z" fill="#EDF9F9"/>
<path d="M49.1494 31.1392C48.7612 31.1392 48.373 31.1392 47.9848 31.1392C47.7703 31.1392 47.5762 31.1037 47.5207 30.8425C47.4708 30.6036 47.567 30.4263 47.7814 30.3535C48.6059 30.0736 49.4525 29.915 50.3158 30.1221C50.5839 30.1874 50.8797 30.3535 50.8039 30.7286C50.7336 31.0795 50.4471 31.0813 50.1624 31.0739C49.8241 31.0645 49.4858 31.072 49.1475 31.072V31.1392H49.1494Z" fill="#EDF9F9"/>
<path d="M22.0117 22.8645C21.8083 22.8645 21.6789 22.8421 21.5606 22.76C21.0319 22.3943 20.518 22.0136 20.0984 21.5171C19.9357 21.3249 19.7767 21.0991 19.9505 20.8808C20.1242 20.6624 20.4422 20.6699 20.653 20.8043C21.2223 21.1644 21.7658 21.5657 22.3075 21.9688C22.4923 22.1069 22.6069 22.3196 22.4794 22.5529C22.3722 22.7507 22.2132 22.9168 22.0135 22.8645H22.0117Z" fill="#EDF9F9"/>
<path d="M8.95431 5.26447C8.95431 5.66196 8.64744 5.85045 8.32578 5.62277C7.66398 5.15436 7.21107 4.5012 6.94672 3.73047C6.86168 3.48413 7.00588 3.26206 7.21292 3.11836C7.40887 2.984 7.62701 3.03625 7.76196 3.20234C8.2315 3.77899 8.6308 4.40603 8.92288 5.09651C8.94876 5.1581 8.94876 5.22901 8.95616 5.26447H8.95431Z" fill="#EDF9F9"/>
<path d="M28.9351 34.7893C29.3011 34.78 29.473 34.8976 29.547 35.1364C29.6154 35.3566 29.5414 35.5433 29.3473 35.6646C28.7225 36.049 28.0366 36.2748 27.3212 36.3998C27.0883 36.4409 26.885 36.3495 26.8166 36.0845C26.7482 35.8157 26.7593 35.5451 27.031 35.4164C27.6725 35.1084 28.362 34.9461 28.9351 34.7912V34.7893Z" fill="#EDF9F9"/>
<path d="M14.3083 1.11975C14.2177 1.74305 14.1197 2.38315 14.031 3.02325C14.0014 3.23599 13.9034 3.37595 13.6853 3.39462C13.4672 3.41328 13.3137 3.28078 13.2712 3.08856C13.0974 2.28051 13.0919 1.46499 13.286 0.662534C13.3562 0.373277 13.6261 0.302362 13.9034 0.367678C14.3009 0.460987 14.2639 0.800631 14.3064 1.11788L14.3083 1.11975Z" fill="#EDF9F9"/>
<path d="M7.88299 23.766C7.90702 23.2919 8.16582 22.9 8.35069 22.4858C8.47454 22.2077 8.63537 21.9464 8.7925 21.6852C8.9256 21.465 9.11416 21.3269 9.38406 21.4351C9.66689 21.5489 9.68538 21.7897 9.59665 22.0323C9.35263 22.7022 9.10307 23.3703 8.82763 24.0272C8.73705 24.2456 8.55773 24.4508 8.27304 24.3594C8.00315 24.2736 7.87744 24.0589 7.88299 23.7678V23.766Z" fill="#EDF9F9"/>
<path d="M41.2603 42.463C41.2603 42.2428 41.2547 42.0208 41.2603 41.8005C41.2658 41.6251 41.3675 41.5188 41.5339 41.4814C41.6818 41.4478 41.813 41.4926 41.8833 41.6233C42.2715 42.3305 42.5247 43.0845 42.5506 43.8981C42.5598 44.1986 42.3657 44.3703 42.0829 44.4039C41.7705 44.4412 41.5653 44.2695 41.4766 43.9784C41.3268 43.4857 41.2917 42.9762 41.2584 42.463H41.2603Z" fill="#EDF9F9"/>
<path d="M45.2264 20.9833C45.6294 20.9833 45.9344 21.4031 45.7218 21.7708C45.3613 22.3978 44.938 22.9931 44.4259 23.5138C44.2854 23.6575 44.1228 23.6538 43.9619 23.5735C43.7826 23.4821 43.7382 23.3029 43.7992 23.135C44.0599 22.4165 44.3834 21.7279 44.8677 21.1288C44.962 21.0131 45.084 20.9739 45.2282 20.9833H45.2264Z" fill="#EDF9F9"/>
<path d="M30.082 40.317C29.7474 40.3449 29.6014 40.2684 29.52 40.0986C29.4331 39.9195 29.4184 39.6825 29.5515 39.5649C30.1781 39.0144 30.8843 38.5833 31.6884 38.3556C31.9861 38.2716 32.2671 38.6542 32.0803 38.8669C31.4925 39.5313 30.7752 40.0258 30.082 40.3151V40.317Z" fill="#EDF9F9"/>
<path d="M47.2455 38.4416C47.3083 38.464 47.4451 38.4901 47.5579 38.5573C48.0219 38.8335 48.4859 39.1097 48.9332 39.4101C49.1532 39.5575 49.3159 39.7796 49.1717 40.0633C49.0201 40.3637 48.7391 40.4626 48.4397 40.3413C47.7501 40.0633 47.2251 39.5519 46.7685 38.9846C46.5633 38.7308 46.811 38.4285 47.2436 38.4416H47.2455Z" fill="#EDF9F9"/>
<path d="M3.55451 7.02636C4.15716 7.24843 4.8356 7.53956 5.4364 7.98371C5.5695 8.08262 5.60647 8.27856 5.50479 8.45025C5.40867 8.61448 5.24969 8.69845 5.07592 8.6574C4.42151 8.50251 3.77819 8.30656 3.19958 7.95012C2.97959 7.81388 2.89826 7.58808 2.99069 7.32868C3.06648 7.1122 3.21437 6.99277 3.55451 7.02636Z" fill="#EDF9F9"/>
<path d="M45.771 36.3755C46.455 36.4483 47.0521 36.7058 47.6123 37.066C47.8267 37.2041 47.8766 37.4112 47.7953 37.6445C47.7121 37.8834 47.4921 37.9356 47.298 37.9039C46.5696 37.7901 45.93 37.456 45.3514 37.0063C45.1943 36.8831 45.2183 36.7002 45.2904 36.5378C45.3939 36.3064 45.6195 36.4333 45.771 36.3755Z" fill="#EDF9F9"/>
<path d="M16.6521 3.82576C16.519 4.38189 16.3804 4.99959 15.9922 5.51279C15.8554 5.69194 15.6724 5.81698 15.4191 5.72926C15.2028 5.65462 15.1307 5.47733 15.164 5.28511C15.2767 4.62822 15.4838 4.00305 15.8831 3.45813C16.0217 3.26778 16.2066 3.22112 16.4192 3.30696C16.6281 3.39094 16.6651 3.56823 16.6503 3.82576H16.6521Z" fill="#EDF9F9"/>
<path d="M19.5062 20.5654C19.7317 20.1455 19.5857 19.7965 19.314 19.4625C19.0995 19.2012 18.9313 18.912 18.8906 18.563C18.9904 18.6768 19.0958 18.7869 19.1901 18.9064C19.2992 19.0463 19.3491 19.0426 19.4785 18.8933C19.8001 18.5182 20.0109 18.5387 20.3141 18.9381C20.4564 19.1266 20.5821 19.3281 20.7004 19.5315C20.828 19.7499 20.8908 19.9906 20.6745 20.1791C20.4638 20.362 20.2401 20.3079 20.0423 20.1212C19.9942 20.0765 19.9351 20.0447 19.8722 20.0037C19.6596 20.1399 19.7835 20.487 19.5081 20.5654H19.5062Z" fill="#EDF9F9"/>
<path d="M5.82031 23.6724C6.02921 23.1331 6.38414 22.6367 6.87032 22.2653C7.12358 22.0731 7.47112 22.3493 7.39163 22.6927C7.26223 23.2619 7.00712 23.7788 6.53757 24.1576C6.38599 24.2808 6.23255 24.2771 6.06433 24.2006C5.85359 24.1054 5.85544 23.9113 5.82031 23.6724Z" fill="#EDF9F9"/>
<path d="M33.7869 24.3668C33.7518 24.7344 33.554 24.9453 33.2804 24.8072C32.6833 24.5048 32.2378 24.0103 31.9328 23.4094C31.8422 23.2302 31.942 23.0306 32.1028 22.9111C32.2692 22.7861 32.4892 22.676 32.6666 22.8122C33.2009 23.2246 33.5207 23.8032 33.7888 24.3668H33.7869Z" fill="#EDF9F9"/>
<path d="M37.8242 41.5224C37.8372 41.0596 37.7577 40.5856 37.9758 40.147C38.645 39.8615 38.8225 39.9754 38.8446 40.7069C38.852 40.9122 38.8465 41.1119 38.7725 41.3115C38.5877 41.8061 38.425 41.8639 38.0035 41.5504C37.9407 41.5038 37.8908 41.487 37.8224 41.5206L37.8242 41.5224Z" fill="#EDF9F9"/>
<path d="M39.2744 39.6955C39.6367 40.2161 39.5239 40.7107 38.9472 41.1306C38.9527 41.0484 38.9287 40.9178 38.9712 40.8898C39.4333 40.58 39.2411 40.1079 39.2744 39.6936V39.6955Z" fill="#EDF9F9"/>
<path d="M9.13281 8.97827C9.64488 9.08091 9.83898 9.5008 10.0479 9.90576C9.70588 9.6333 9.39531 9.32911 9.13281 8.97827Z" fill="#EDF9F9"/>
<path d="M7.71094 7.53948C7.93832 7.3398 8.11393 7.25768 8.1509 7.6869C8.16384 7.84553 8.25997 7.99856 8.31913 8.15345C8.08066 7.98363 7.87916 7.77835 7.71094 7.53948Z" fill="#EDF9F9"/>
<path d="M38.8579 42.7786C39.2258 43.1425 38.9762 43.6015 39.0428 44.014C38.7359 43.6407 38.8819 43.1966 38.8579 42.7786Z" fill="#EDF9F9"/>
<path d="M7.28011 5.5931C6.99358 5.55577 6.78469 5.8245 6.5 5.79278C6.67192 5.37289 6.95846 5.40834 7.28011 5.5931Z" fill="#EDF9F9"/>
<path d="M39.0469 44.0177C39.3353 44.0382 39.6015 43.9692 39.8418 43.8049C39.631 44.2939 39.4591 44.3405 39.0469 44.0177Z" fill="#EDF9F9"/>
<path d="M38.9403 41.2874C38.981 41.5859 39.1825 41.8995 38.8553 42.1607C38.8664 41.8677 38.7851 41.5654 38.9403 41.2874Z" fill="#EDF9F9"/>
<path d="M37.8203 44.695C37.9183 44.4188 37.9312 44.1333 37.9183 43.844C38.0052 44.1407 37.9941 44.4281 37.8203 44.695Z" fill="#EDF9F9"/>
<path d="M37.894 43.3849C37.7794 43.1087 37.8312 42.8195 37.8367 42.5339C37.9033 42.8139 37.9366 43.0975 37.894 43.3849Z" fill="#EDF9F9"/>
<path d="M8.72656 8.57153C8.86151 8.64058 8.96134 8.74509 9.02973 8.88132C8.89109 8.816 8.79311 8.70963 8.72656 8.57153Z" fill="#EDF9F9"/>
<path d="M8.52344 8.3623C8.58999 8.42949 8.65839 8.49667 8.72494 8.56572C8.64729 8.50787 8.54192 8.47987 8.52344 8.3623Z" fill="#EDF9F9"/>
<path d="M10.1406 10.0083L10.246 10.1147C10.1831 10.1072 10.1462 10.0736 10.1406 10.0083Z" fill="#EDF9F9"/>
<path d="M10.0391 9.90381C10.0742 9.93927 10.1093 9.97659 10.1463 10.012C10.1112 9.97659 10.076 9.93927 10.0391 9.90381Z" fill="#EDF9F9"/>
<path d="M18.4966 20.3488C18.2322 20.3451 18.0455 20.3712 17.8569 20.4272C17.6351 20.4925 17.4355 20.3955 17.3301 20.1566C17.0916 19.6135 16.8494 19.0742 16.6036 18.5349C16.5592 18.436 16.5204 18.3259 16.6036 18.255C16.7016 18.1728 16.8014 18.2662 16.8624 18.3371C17.4114 18.9716 17.9845 19.5874 18.4966 20.3488Z" fill="#019FDC"/>
<path d="M16.1589 21.5956C15.1681 21.1869 15.56 20.2836 15.2734 19.6641C15.6635 20.2332 15.8724 20.8789 16.1589 21.5956Z" fill="#019FDC"/>
<path d="M18.0783 21.9463C18.1375 21.8176 18.1578 21.6925 18.0025 21.6198C17.936 21.588 17.8676 21.631 17.8509 21.7C17.8047 21.8904 17.9933 21.881 18.082 21.9594L18.0783 21.9482V21.9463Z" fill="#019FDC"/>
<path d="M6.72828 6.51129L6.64879 6.61766L6.58594 6.50755C6.634 6.46277 6.68207 6.46463 6.72828 6.51129Z" fill="#019FDC"/>
<path d="M36.9141 29.3547L36.9485 29.351C36.9231 29.3179 36.9159 29.3216 36.9268 29.3639L36.9141 29.3547Z" fill="#019FDC"/>
<path d="M21.75 10.2117C21.8554 10.1408 21.9607 10.068 22.0661 9.99707C22.0088 10.1408 21.8609 10.1501 21.75 10.2117Z" fill="#019FDC"/>
</svg>
