<svg width="105" height="157" viewBox="0 0 105 157" fill="none" xmlns="http://www.w3.org/2000/svg">
<path d="M124.212 88.531H161.069L95.0941 154.763C93.731 156.032 91.9406 156.737 90.0815 156.737C88.2224 156.737 86.432 156.032 85.0689 154.763L21.6736 91.1211L19.0938 88.531H53.0026C54.0343 88.5348 55.0461 88.2448 55.9203 87.6947C56.7945 87.1445 57.4956 86.3567 57.9418 85.4228L61.48 78.0226L73.8641 103.627C74.3362 104.543 75.0499 105.311 75.9274 105.847C76.805 106.383 77.8125 106.667 78.8398 106.667C79.867 106.667 80.8746 106.383 81.7521 105.847C82.6297 105.311 83.3434 104.543 83.8155 103.627L106.446 57.7461L118.978 85.0529C119.413 86.0851 120.141 86.9656 121.072 87.5843C122.003 88.2029 123.095 88.5322 124.212 88.531Z" fill="#FFCAD5"/>
<path d="M180.824 48.5658C180.85 58.9086 177.54 68.982 171.388 77.2786H127.675L111.753 42.7195C111.317 41.7718 110.621 40.9687 109.746 40.4049C108.871 39.8412 107.853 39.5402 106.813 39.5375C105.784 39.5463 104.776 39.8326 103.894 40.3663C103.012 40.9 102.289 41.6616 101.801 42.5716L79.0231 88.5268L66.9337 62.9222C66.4142 62.0646 65.6838 61.3556 64.8123 60.8637C63.9408 60.3717 62.9578 60.1134 61.958 60.1134C60.9582 60.1134 59.9752 60.3717 59.1037 60.8637C58.2322 61.3556 57.5018 62.0646 56.9823 62.9222L50.0531 77.2786H9.43592C3.28406 68.982 -0.0264467 58.9086 0.000159122 48.5658C-0.00386609 38.9614 2.83002 29.5716 8.14329 21.5846C13.4566 13.5976 21.0107 7.37234 29.8493 3.69638C38.6879 0.020417 48.4141 -0.940871 57.7971 0.933952C67.1802 2.80877 75.7983 7.4354 82.5613 14.2287L86.9107 18.5948C87.9086 19.5366 89.2267 20.0609 90.5964 20.0609C91.9661 20.0609 93.2842 19.5366 94.2822 18.5948L98.5573 14.2287C105.32 7.4354 113.939 2.80877 123.322 0.933952C132.705 -0.940871 142.431 0.020417 151.27 3.69638C160.108 7.37234 167.662 13.5976 172.975 21.5846C178.289 29.5716 181.122 38.9614 181.118 48.5658H180.824Z" fill="#FFCAD5"/>
</svg>
