<svg width="99" height="108" viewBox="0 0 99 108" fill="none" xmlns="http://www.w3.org/2000/svg">
<g clip-path="url(#clip0_5960_19422)">
<path fill-rule="evenodd" clip-rule="evenodd" d="M73.9631 10.6211C76.3314 10.6211 78.263 12.7284 78.263 15.3117V101.622C78.263 104.206 76.3314 106.313 73.9631 106.313H7.74524C5.37697 106.313 3.44531 104.206 3.44531 101.622V15.3119C3.44531 12.7284 5.37697 10.6213 7.74524 10.6213H73.9631V10.6211Z" fill="#BA9FBA"/>
<path fill-rule="evenodd" clip-rule="evenodd" d="M68.4141 106.313H73.9633C76.3315 106.313 78.2632 104.205 78.2632 101.622V15.3117C78.2632 12.7281 76.3315 10.6211 73.9633 10.6211H68.4141V106.313Z" fill="#A581A5"/>
<path fill-rule="evenodd" clip-rule="evenodd" d="M70.3506 17.1465H11.3633C10.2983 17.1465 9.42969 18.094 9.42969 19.2559V97.6782C9.42969 98.84 10.2983 99.7876 11.3633 99.7876H70.3505C71.4155 99.7876 72.2841 98.84 72.2841 97.6782V19.2559C72.2841 18.0942 71.4155 17.1465 70.3506 17.1465Z" fill="#F1ECF1"/>
<path fill-rule="evenodd" clip-rule="evenodd" d="M68.4141 99.7874H70.3479C70.4088 99.7874 70.4689 99.7842 70.5284 99.7783C71.5094 99.6785 72.2814 98.7736 72.2814 97.6782V19.2556C72.2814 18.1603 71.5094 17.2553 70.5284 17.1556C70.4689 17.1494 70.4088 17.1465 70.3479 17.1465H68.4141V99.7874Z" fill="#FD67FD"/>
<path fill-rule="evenodd" clip-rule="evenodd" d="M26.2383 7.78549H32.3672C33.1565 7.78549 33.8309 7.30118 34.143 6.51038C35.2627 3.67369 37.8482 1.6875 40.8592 1.6875C43.8701 1.6875 46.4556 3.67369 47.5753 6.51038C47.8874 7.30118 48.5618 7.78549 49.3511 7.78549H55.48C56.545 7.78549 57.4136 8.73302 57.4136 9.89487V17.8723C57.4136 19.0339 56.545 19.9817 55.48 19.9817H26.2383C25.1733 19.9817 24.3047 19.0342 24.3047 17.8723V9.89466C24.3047 8.73302 25.1733 7.78549 26.2383 7.78549Z" fill="#837683"/>
<path fill-rule="evenodd" clip-rule="evenodd" d="M53.5464 17.8718L24.3047 17.872C24.3047 19.0336 25.1733 19.9814 26.2383 19.9814H55.4802C56.5452 19.9814 57.4138 19.0338 57.4138 17.872V17.1459V10.6206V9.89453C57.4138 8.73269 56.5452 7.78516 55.4802 7.78516V10.6206V15.7626C55.4802 16.291 55.3004 16.7753 55.0042 17.1461C54.6492 17.5904 54.1269 17.8718 53.5464 17.8718Z" fill="#685E68"/>
<path fill-rule="evenodd" clip-rule="evenodd" d="M63.3051 76.5702L86.4958 37.8796C87.753 35.7822 90.3466 35.1899 92.2691 36.5616L93.6656 37.5577C95.5883 38.9292 96.1309 41.7585 94.8737 43.8559L71.6827 82.5464L64.2898 86.6239C63.9632 86.8038 63.6013 86.7819 63.295 86.5635C62.9887 86.345 62.8251 85.9919 62.8454 85.5934L63.3051 76.5702Z" fill="#E36FE3"/>
<path fill-rule="evenodd" clip-rule="evenodd" d="M94.4928 38.3301C95.72 39.8271 95.9308 42.0985 94.8772 43.856L71.6862 82.5466L66.1641 85.5923L94.4928 38.3301Z" fill="#C458C4"/>
<path fill-rule="evenodd" clip-rule="evenodd" d="M62.8454 85.5936L63.3051 76.5703L71.6829 82.5464L64.29 86.6238C63.9634 86.8037 63.6015 86.7818 63.2952 86.5635C62.9887 86.3454 62.8251 85.992 62.8454 85.5936Z" fill="#685E68"/>
<path fill-rule="evenodd" clip-rule="evenodd" d="M93.9253 40.8582C93.8341 40.3707 93.6245 39.9298 93.3325 39.5658L69.6087 79.1476L71.2049 80.2887L93.5512 43.0104C93.9344 42.3738 94.0713 41.6085 93.9253 40.8582ZM76.7413 77.2339V101.622C76.7413 103.278 75.5009 104.625 73.9867 104.625H7.76848C6.24539 104.625 5.01408 103.278 5.01408 101.622V15.3113C5.01408 13.6557 6.24539 12.3084 7.76848 12.3084H22.7724V15.4596H9.44684C8.58949 15.4596 7.90538 16.2148 7.90538 17.1471V99.7871C7.90538 100.719 8.58949 101.475 9.44684 101.475H72.2995C73.1568 101.475 73.85 100.719 73.85 99.7871V82.0519L76.7413 77.2339ZM25.8646 18.2942H55.8817V9.47341H47.983C47.2625 9.47341 46.6422 8.93911 46.4781 8.18079C45.8487 5.35191 43.5502 3.37479 40.8778 3.37479C38.2054 3.37479 35.8976 5.35191 35.2775 8.18079C35.1043 8.9389 34.484 9.47341 33.7726 9.47341H25.8646V18.2942ZM58.9737 12.3082H73.9869C75.5009 12.3082 76.7415 13.6555 76.7415 15.3111V51.1137L73.8502 55.9316V17.1469C73.8502 16.2146 73.157 15.4594 72.2997 15.4594H58.9739V12.3082H58.9737ZM68.569 82.438L64.6743 79.661L64.4189 84.7277L68.569 82.438ZM22.7726 19.9819C22.7726 20.9142 23.4658 21.6694 24.3231 21.6694H57.4323C58.2805 21.6694 58.9737 20.9142 58.9737 19.9819V18.8338H70.758V61.093L61.9835 75.7257C61.8559 75.9407 61.7738 76.1845 61.7465 76.4381H38.2692C37.4118 76.4381 36.7186 77.1932 36.7186 78.1256C36.7186 79.0568 37.4118 79.8131 38.2692 79.8131H61.5642L61.2631 85.8646H38.2692C37.4118 85.8646 36.7186 86.6198 36.7186 87.5521C36.7186 88.4834 37.4118 89.2396 38.2692 89.2396H62.7224C62.9687 89.2396 63.2058 89.174 63.4156 89.0595C63.4156 89.0584 63.4246 89.0584 63.4246 89.0576L70.758 85.0129V98.1003H10.9974V18.8336H22.7726V19.9819ZM65.4223 76.1594L87.7686 38.8811C88.4252 37.7854 89.6566 37.3456 90.7421 37.7188L67.0184 77.3006L65.4223 76.1594ZM96.1416 44.8582L79.8333 72.0729V101.622C79.8333 105.139 77.2065 108.001 73.9867 108.001H7.76848C4.53957 108.001 1.92188 105.139 1.92188 101.622V15.3113C1.92188 11.795 4.53957 8.9332 7.76848 8.9332H22.7724V7.78591C22.7724 6.85357 23.4656 6.09841 24.3229 6.09841H32.6413C33.9548 2.44962 37.1835 0 40.8776 0C44.5624 0 47.7914 2.44962 49.1137 6.09841H57.4321C58.2803 6.09841 58.9735 6.85357 58.9735 7.78591V8.9332H73.9867C77.2063 8.9332 79.8333 11.7948 79.8333 15.3113V45.9527L85.1782 37.0343C86.902 34.1556 90.4501 33.3448 93.0953 35.2274L94.4907 36.2235C95.7677 37.1339 96.6341 38.5339 96.9534 40.1667C97.2635 41.8004 96.9808 43.4662 96.1416 44.8582ZM38.2692 70.3863H62.7224C63.5797 70.3863 64.2729 69.6311 64.2729 68.6988C64.2729 67.7664 63.5797 67.0113 62.7224 67.0113H38.2692C37.4118 67.0113 36.7186 67.7664 36.7186 68.6988C36.7186 69.6311 37.4118 70.3863 38.2692 70.3863ZM38.2692 60.9595H62.7224C63.5797 60.9595 64.2729 60.2043 64.2729 59.272C64.2729 58.3407 63.5797 57.5845 62.7224 57.5845H38.2692C37.4118 57.5845 36.7186 58.3407 36.7186 59.272C36.7186 60.2043 37.4118 60.9595 38.2692 60.9595ZM38.2692 51.5337H62.7224C63.5797 51.5337 64.2729 50.7775 64.2729 49.8462C64.2729 48.9139 63.5797 48.1587 62.7224 48.1587H38.2692C37.4118 48.1587 36.7186 48.9139 36.7186 49.8462C36.7186 50.7775 37.4118 51.5337 38.2692 51.5337ZM29.5494 77.837L22.0885 85.2219L19.6075 82.5185C19.0056 81.8598 18.0297 81.8589 17.4185 82.5185C16.8165 83.1773 16.8165 84.2459 17.4185 84.9047L20.9392 88.7454C21.2402 89.0738 21.6414 89.2399 22.0336 89.2399C22.4075 89.2399 22.7815 89.0937 23.0735 88.8019L31.6197 80.3364C32.2582 79.7095 32.3039 78.643 31.7292 77.9524C31.1547 77.2618 30.1788 77.2111 29.5494 77.837ZM29.5494 61.8053L22.0885 69.1902L19.6075 66.4869C19.0056 65.8281 18.0297 65.8281 17.4185 66.4869C16.8165 67.1456 16.8165 68.2142 17.4185 68.8738L20.9392 72.7135C21.2402 73.043 21.6414 73.2082 22.0336 73.2082C22.4075 73.2082 22.7815 73.0628 23.0735 72.7703L31.6197 64.3047C32.2582 63.6778 32.3039 62.6111 31.7292 61.9207C31.1547 61.2312 30.1788 61.1795 29.5494 61.8053ZM29.5494 45.7745L22.0885 53.1594L19.6075 50.455C19.0056 49.7973 18.0297 49.7962 17.4185 50.455C16.8165 51.1146 16.8165 52.1832 17.4185 52.842L20.9392 56.6827C21.2402 57.0111 21.6414 57.1761 22.0336 57.1761C22.4075 57.1761 22.7815 57.0308 23.0735 56.7392L31.6197 48.2726C32.2582 47.6468 32.3039 46.579 31.7292 45.8897C31.1547 45.1995 30.1788 45.1478 29.5494 45.7745ZM40.8778 10.3343C39.8106 10.3343 38.9442 9.38693 38.9442 8.22488C38.9442 7.06366 39.8106 6.1155 40.8778 6.1155C41.9449 6.1155 42.8114 7.06366 42.8114 8.22488C42.8114 9.38693 41.9449 10.3343 40.8778 10.3343ZM19.6077 34.4244C19.0058 33.7656 18.0299 33.7648 17.4187 34.4244C16.8167 35.0831 16.8167 36.1517 17.4187 36.8105L20.9393 40.6512C21.2404 40.9797 21.6416 41.1457 22.0338 41.1457C22.4077 41.1457 22.7817 41.0003 23.0736 40.7078L31.6199 32.2422C32.2584 31.6153 32.304 30.5486 31.7294 29.8582C31.1547 29.1686 30.1788 29.117 29.5494 29.7428L22.0885 37.1277L19.6077 34.4244ZM38.2692 32.6801H62.7224C63.5797 32.6801 64.2729 31.925 64.2729 30.9926C64.2729 30.0603 63.5797 29.3051 62.7224 29.3051H38.2692C37.4118 29.3051 36.7186 30.0603 36.7186 30.9926C36.7186 31.925 37.4118 32.6801 38.2692 32.6801ZM36.7186 40.4194C36.7186 41.3507 37.4118 42.1069 38.2692 42.1069H62.7224C63.5797 42.1069 64.2729 41.3507 64.2729 40.4194C64.2729 39.4871 63.5797 38.7319 62.7224 38.7319H38.2692C37.4118 38.7319 36.7186 39.4871 36.7186 40.4194Z" fill="black"/>
<path fill-rule="evenodd" clip-rule="evenodd" d="M93.9253 40.8582C93.8341 40.3707 93.6245 39.9298 93.3325 39.5658L69.6087 79.1476L71.2049 80.2887L93.5512 43.0104C93.9344 42.3738 94.0713 41.6085 93.9253 40.8582ZM76.7413 77.2339V101.622C76.7413 103.278 75.5009 104.625 73.9867 104.625H7.76848C6.24539 104.625 5.01408 103.278 5.01408 101.622V15.3113C5.01408 13.6557 6.24539 12.3084 7.76848 12.3084H22.7724V15.4596H9.44684C8.58949 15.4596 7.90538 16.2148 7.90538 17.1471V99.7871C7.90538 100.719 8.58949 101.475 9.44684 101.475H72.2995C73.1568 101.475 73.85 100.719 73.85 99.7871V82.0519L76.7413 77.2339ZM25.8646 18.2942H55.8817V9.47341H47.983C47.2625 9.47341 46.6422 8.93911 46.4781 8.18079C45.8487 5.35191 43.5502 3.37479 40.8778 3.37479C38.2054 3.37479 35.8976 5.35191 35.2775 8.18079C35.1043 8.9389 34.484 9.47341 33.7726 9.47341H25.8646V18.2942ZM58.9737 12.3082H73.9869C75.5009 12.3082 76.7415 13.6555 76.7415 15.3111V51.1137L73.8502 55.9316V17.1469C73.8502 16.2146 73.157 15.4594 72.2997 15.4594H58.9739V12.3082H58.9737ZM68.569 82.438L64.6743 79.661L64.4189 84.7277L68.569 82.438ZM22.7726 19.9819C22.7726 20.9142 23.4658 21.6694 24.3231 21.6694H57.4323C58.2805 21.6694 58.9737 20.9142 58.9737 19.9819V18.8338H70.758V61.093L61.9835 75.7257C61.8559 75.9407 61.7738 76.1845 61.7465 76.4381H38.2692C37.4118 76.4381 36.7186 77.1932 36.7186 78.1256C36.7186 79.0568 37.4118 79.8131 38.2692 79.8131H61.5642L61.2631 85.8646H38.2692C37.4118 85.8646 36.7186 86.6198 36.7186 87.5521C36.7186 88.4834 37.4118 89.2396 38.2692 89.2396H62.7224C62.9687 89.2396 63.2058 89.174 63.4156 89.0595C63.4156 89.0584 63.4246 89.0584 63.4246 89.0576L70.758 85.0129V98.1003H10.9974V18.8336H22.7726V19.9819ZM65.4223 76.1594L87.7686 38.8811C88.4252 37.7854 89.6566 37.3456 90.7421 37.7188L67.0184 77.3006L65.4223 76.1594ZM96.1416 44.8582L79.8333 72.0729V101.622C79.8333 105.139 77.2065 108.001 73.9867 108.001H7.76848C4.53957 108.001 1.92188 105.139 1.92188 101.622V15.3113C1.92188 11.795 4.53957 8.9332 7.76848 8.9332H22.7724V7.78591C22.7724 6.85357 23.4656 6.09841 24.3229 6.09841H32.6413C33.9548 2.44962 37.1835 0 40.8776 0C44.5624 0 47.7914 2.44962 49.1137 6.09841H57.4321C58.2803 6.09841 58.9735 6.85357 58.9735 7.78591V8.9332H73.9867C77.2063 8.9332 79.8333 11.7948 79.8333 15.3113V45.9527L85.1782 37.0343C86.902 34.1556 90.4501 33.3448 93.0953 35.2274L94.4907 36.2235C95.7677 37.1339 96.6341 38.5339 96.9534 40.1667C97.2635 41.8004 96.9808 43.4662 96.1416 44.8582ZM38.2692 70.3863H62.7224C63.5797 70.3863 64.2729 69.6311 64.2729 68.6988C64.2729 67.7664 63.5797 67.0113 62.7224 67.0113H38.2692C37.4118 67.0113 36.7186 67.7664 36.7186 68.6988C36.7186 69.6311 37.4118 70.3863 38.2692 70.3863ZM38.2692 60.9595H62.7224C63.5797 60.9595 64.2729 60.2043 64.2729 59.272C64.2729 58.3407 63.5797 57.5845 62.7224 57.5845H38.2692C37.4118 57.5845 36.7186 58.3407 36.7186 59.272C36.7186 60.2043 37.4118 60.9595 38.2692 60.9595ZM38.2692 51.5337H62.7224C63.5797 51.5337 64.2729 50.7775 64.2729 49.8462C64.2729 48.9139 63.5797 48.1587 62.7224 48.1587H38.2692C37.4118 48.1587 36.7186 48.9139 36.7186 49.8462C36.7186 50.7775 37.4118 51.5337 38.2692 51.5337ZM29.5494 77.837L22.0885 85.2219L19.6075 82.5185C19.0056 81.8598 18.0297 81.8589 17.4185 82.5185C16.8165 83.1773 16.8165 84.2459 17.4185 84.9047L20.9392 88.7454C21.2402 89.0738 21.6414 89.2399 22.0336 89.2399C22.4075 89.2399 22.7815 89.0937 23.0735 88.8019L31.6197 80.3364C32.2582 79.7095 32.3039 78.643 31.7292 77.9524C31.1547 77.2618 30.1788 77.2111 29.5494 77.837ZM29.5494 61.8053L22.0885 69.1902L19.6075 66.4869C19.0056 65.8281 18.0297 65.8281 17.4185 66.4869C16.8165 67.1456 16.8165 68.2142 17.4185 68.8738L20.9392 72.7135C21.2402 73.043 21.6414 73.2082 22.0336 73.2082C22.4075 73.2082 22.7815 73.0628 23.0735 72.7703L31.6197 64.3047C32.2582 63.6778 32.3039 62.6111 31.7292 61.9207C31.1547 61.2312 30.1788 61.1795 29.5494 61.8053ZM29.5494 45.7745L22.0885 53.1594L19.6075 50.455C19.0056 49.7973 18.0297 49.7962 17.4185 50.455C16.8165 51.1146 16.8165 52.1832 17.4185 52.842L20.9392 56.6827C21.2402 57.0111 21.6414 57.1761 22.0336 57.1761C22.4075 57.1761 22.7815 57.0308 23.0735 56.7392L31.6197 48.2726C32.2582 47.6468 32.3039 46.579 31.7292 45.8897C31.1547 45.1995 30.1788 45.1478 29.5494 45.7745ZM40.8778 10.3343C39.8106 10.3343 38.9442 9.38693 38.9442 8.22488C38.9442 7.06366 39.8106 6.1155 40.8778 6.1155C41.9449 6.1155 42.8114 7.06366 42.8114 8.22488C42.8114 9.38693 41.9449 10.3343 40.8778 10.3343ZM19.6077 34.4244C19.0058 33.7656 18.0299 33.7648 17.4187 34.4244C16.8167 35.0831 16.8167 36.1517 17.4187 36.8105L20.9393 40.6512C21.2404 40.9797 21.6416 41.1457 22.0338 41.1457C22.4077 41.1457 22.7817 41.0003 23.0736 40.7078L31.6199 32.2422C32.2584 31.6153 32.304 30.5486 31.7294 29.8582C31.1547 29.1686 30.1788 29.117 29.5494 29.7428L22.0885 37.1277L19.6077 34.4244ZM38.2692 32.6801H62.7224C63.5797 32.6801 64.2729 31.925 64.2729 30.9926C64.2729 30.0603 63.5797 29.3051 62.7224 29.3051H38.2692C37.4118 29.3051 36.7186 30.0603 36.7186 30.9926C36.7186 31.925 37.4118 32.6801 38.2692 32.6801ZM36.7186 40.4194C36.7186 41.3507 37.4118 42.1069 38.2692 42.1069H62.7224C63.5797 42.1069 64.2729 41.3507 64.2729 40.4194C64.2729 39.4871 63.5797 38.7319 62.7224 38.7319H38.2692C37.4118 38.7319 36.7186 39.4871 36.7186 40.4194Z" fill="black"/>
</g>
<defs>
<clipPath id="clip0_5960_19422">
<rect width="99" height="108" fill="white"/>
</clipPath>
</defs>
</svg>
