<svg width="59" height="59" viewBox="0 0 59 59" fill="none" xmlns="http://www.w3.org/2000/svg">
<path d="M28.9937 42.6463C30.76 44.5609 33.1648 45.762 35.7546 46.0233C38.3444 46.2846 40.9402 45.5879 43.0524 44.0647C43.2307 43.9386 43.4406 43.739 43.3671 43.5184C43.2937 43.2977 42.7901 43.3187 42.4963 43.5184C40.7374 44.4066 38.7226 44.647 36.8046 44.1976C34.8865 43.7481 33.1874 42.6374 32.0047 41.0599C31.2087 39.9092 30.7309 38.568 30.6199 37.1726C30.5673 36.4383 30.6096 35.7002 30.7458 34.9768C31.048 33.1857 31.951 31.5514 33.3057 30.3435C34.0796 29.6339 34.9951 29.0967 35.9916 28.7676" stroke="#A2A7AB" stroke-width="1.7" stroke-linecap="round" stroke-linejoin="round"/>
<path d="M28.9937 26.7932H29.0776C30.29 26.7495 31.4696 26.3872 32.4979 25.7425C33.304 25.255 34.015 24.6249 34.5962 23.8829C35.0679 23.3061 35.4629 22.6704 35.7712 21.9918C36.2588 20.9481 36.5141 19.8107 36.5194 18.6584C36.5247 17.5061 36.2799 16.3665 35.8019 15.3183C35.3239 14.2701 34.6242 13.3384 33.7512 12.5878C32.8782 11.8371 31.8528 11.2854 30.7458 10.9708C30.3891 10.8657 29.917 10.5295 30.1583 10.2353C30.2271 10.1778 30.3096 10.1388 30.3978 10.1223C30.4859 10.1057 30.5768 10.1121 30.6618 10.1408C31.3079 10.2399 31.9436 10.3981 32.5608 10.6135C33.5123 10.9544 34.4125 11.4245 35.2362 12.0109C35.9228 12.5077 36.5433 13.0902 37.0827 13.7444C37.6209 14.3911 38.0854 15.0959 38.4676 15.8457C38.8459 16.6129 39.138 17.4198 39.3384 18.2516C39.5373 19.0812 39.6428 19.9305 39.6531 20.7836C39.6551 21.212 39.6306 21.64 39.5797 22.0653C39.5797 22.1704 39.3803 23.3156 39.3593 23.3156C41.1905 23.8415 42.8647 24.8096 44.2349 26.135C45.6051 27.4603 46.6295 29.1022 47.2179 30.9166C47.8063 32.731 47.9408 34.6623 47.6097 36.5409C47.2785 38.4196 46.4917 40.188 45.3185 41.691C45.2241 41.7961 45.1088 41.9222 44.9724 41.9011C44.836 41.8801 44.8045 41.4284 44.9724 41.1972C46.0949 39.5924 46.6222 37.6452 46.4632 35.6923C46.3042 33.7394 45.4689 31.9034 44.1015 30.5019C43.2966 29.7709 42.3538 29.2084 41.3286 28.8475C40.3034 28.4867 39.2165 28.3347 38.1318 28.4006" stroke="#A2A7AB" stroke-width="1.7" stroke-linecap="round" stroke-linejoin="round"/>
<path d="M36.0127 28.7676C36.6932 28.5509 37.3981 28.4203 38.111 28.3789" stroke="#A2A7AB" stroke-width="1.7" stroke-linecap="round" stroke-linejoin="round"/>
<path d="M28.9832 31.2901C29.8581 31.2901 30.5673 30.5798 30.5673 29.7036C30.5673 28.8275 29.8581 28.1172 28.9832 28.1172C28.1082 28.1172 27.3989 28.8275 27.3989 29.7036C27.3989 30.5798 28.1082 31.2901 28.9832 31.2901Z" fill="#A2A7AB"/>
<path d="M5.95417 20.248C3.44279 26.2311 3.34857 32.9567 5.69143 39.0079C8.0343 45.0592 12.6313 49.9634 18.5138 52.6875C24.3964 55.4115 31.1051 55.7427 37.2267 53.6111C43.3482 51.4795 48.4045 47.0517 51.3302 41.2605" stroke="#A2A7AB" stroke-width="1.7" stroke-linecap="round" stroke-linejoin="round"/>
<path d="M8.59814 15.5407C11.9793 10.7749 16.9187 7.34354 22.5606 5.84119C28.2025 4.33884 34.1915 4.86013 39.49 7.31474C44.7884 9.76936 49.0625 14.0027 51.5718 19.2812C54.0811 24.5598 54.6675 30.551 53.2293 36.217" stroke="#A2A7AB" stroke-width="1.7" stroke-linecap="round" stroke-linejoin="round"/>
<path d="M28.8783 42.6463C27.1143 44.5573 24.7133 45.7563 22.1277 46.0176C19.5421 46.2788 16.9503 45.5842 14.8406 44.0647C14.6517 43.9386 14.4524 43.739 14.5259 43.5183C14.5993 43.2977 15.1029 43.3187 15.3967 43.5183C17.1555 44.4066 19.1703 44.647 21.0884 44.1976C23.0065 43.7481 24.7056 42.6374 25.8883 41.0599C26.6782 39.9085 27.1455 38.5662 27.2416 37.1726C27.2925 36.4387 27.2537 35.7013 27.1262 34.9768C26.8193 33.1874 25.9171 31.5546 24.5663 30.3435C23.7886 29.6336 22.8697 29.0966 21.87 28.7676" stroke="#A2A7AB" stroke-width="1.7" stroke-linecap="round" stroke-linejoin="round"/>
<path d="M28.8783 26.7931H28.7839C27.5721 26.746 26.3934 26.3839 25.3637 25.7424C24.5589 25.2531 23.8482 24.6233 23.2653 23.8828C22.7936 23.306 22.3986 22.6703 22.0903 21.9917C21.5989 20.9492 21.3403 19.8119 21.3325 18.6591C21.3247 17.5062 21.568 16.3656 22.0453 15.3165C22.5227 14.2674 23.2227 13.3351 24.0966 12.5846C24.9705 11.8341 25.9971 11.2833 27.1052 10.9706C27.4724 10.8656 27.9446 10.5294 27.7033 10.2352C27.6323 10.1776 27.5481 10.1388 27.4583 10.1223C27.3684 10.1057 27.2759 10.1121 27.1892 10.1407C25.5418 10.3944 23.9779 11.0353 22.6254 12.0108C21.9355 12.5074 21.3114 13.0899 20.7683 13.7443C20.2371 14.3961 19.7731 15.1001 19.3835 15.8455C19.0051 16.6128 18.7131 17.4197 18.5126 18.2515C18.3172 19.0815 18.2152 19.9308 18.2084 20.7835C18.2064 21.2118 18.231 21.6399 18.2819 22.0652C18.2819 22.1703 18.4811 23.3155 18.5021 23.3155C16.671 23.8414 14.9967 24.8095 13.6265 26.1349C12.2563 27.4602 11.232 29.1021 10.6436 30.9165C10.0552 32.7309 9.9207 34.6622 10.2519 36.5408C10.583 38.4195 11.3697 40.1879 12.5429 41.6909C12.6269 41.796 12.7528 41.9221 12.8892 41.901C13.0256 41.88 13.0465 41.4283 12.8892 41.1971C11.7552 39.5788 11.2273 37.612 11.398 35.6424C11.5688 33.6729 12.4274 31.8266 13.8229 30.4282C14.6263 29.698 15.5673 29.136 16.5907 28.7751C17.614 28.4143 18.6991 28.2619 19.7821 28.327" stroke="#A2A7AB" stroke-width="1.7" stroke-linecap="round" stroke-linejoin="round"/>
<path d="M21.8595 28.7676C21.1786 28.5527 20.4739 28.4222 19.7612 28.3789" stroke="#A2A7AB" stroke-width="1.7" stroke-linecap="round" stroke-linejoin="round"/>
<path d="M28.8782 31.2901C29.7531 31.2901 30.4624 30.5798 30.4624 29.7036C30.4624 28.8275 29.7531 28.1172 28.8782 28.1172C28.0032 28.1172 27.2939 28.8275 27.2939 29.7036C27.2939 30.5798 28.0032 31.2901 28.8782 31.2901Z" fill="#A2A7AB"/>
<path d="M23.6221 24.3755C24.3163 23.6659 25.144 23.1009 26.0575 22.7133C26.9709 22.3258 27.9519 22.1232 28.9439 22.1173C29.936 22.1115 30.9193 22.3024 31.8372 22.6792C32.7552 23.056 33.5895 23.6111 34.292 24.3125" stroke="#A2A7AB" stroke-width="1.7" stroke-miterlimit="10" stroke-linecap="round"/>
<path d="M21.5343 28.7676C21.4921 29.0775 21.4711 29.3899 21.4714 29.7026C21.4598 31.4031 22.0256 33.0571 23.076 34.3934C24.1263 35.7296 25.5989 36.6688 27.2522 37.057" stroke="#A2A7AB" stroke-width="1.7" stroke-miterlimit="10" stroke-linecap="round"/>
<path d="M30.6196 36.9843C32.2924 36.6168 33.7889 35.6865 34.8599 34.3483C35.9308 33.0101 36.5116 31.3448 36.5054 29.6299C36.5074 29.3097 36.4829 28.9899 36.4319 28.6738" stroke="#A2A7AB" stroke-width="1.7" stroke-miterlimit="10" stroke-linecap="round"/>
</svg>
