<svg width="39" height="39" viewBox="0 0 39 39" fill="none" xmlns="http://www.w3.org/2000/svg">
<path fill-rule="evenodd" clip-rule="evenodd" d="M19.1667 38.3333C29.7524 38.3333 38.3333 29.7524 38.3333 19.1667C38.3333 8.58092 29.7524 0 19.1667 0C8.58092 0 0 8.58092 0 19.1667C0 29.7524 8.58092 38.3333 19.1667 38.3333ZM17.25 11.5C17.25 10.9917 17.4519 10.5042 17.8114 10.1447C18.1708 9.78527 18.6583 9.58333 19.1667 9.58333C19.675 9.58333 20.1625 9.78527 20.522 10.1447C20.8814 10.5042 21.0833 10.9917 21.0833 11.5V17.25H26.8333C27.3417 17.25 27.8292 17.4519 28.1886 17.8114C28.5481 18.1708 28.75 18.6583 28.75 19.1667C28.75 19.675 28.5481 20.1625 28.1886 20.522C27.8292 20.8814 27.3417 21.0833 26.8333 21.0833H21.0833V26.8333C21.0833 27.3417 20.8814 27.8292 20.522 28.1886C20.1625 28.5481 19.675 28.75 19.1667 28.75C18.6583 28.75 18.1708 28.5481 17.8114 28.1886C17.4519 27.8292 17.25 27.3417 17.25 26.8333V21.0833H11.5C10.9917 21.0833 10.5042 20.8814 10.1447 20.522C9.78527 20.1625 9.58333 19.675 9.58333 19.1667C9.58333 18.6583 9.78527 18.1708 10.1447 17.8114C10.5042 17.4519 10.9917 17.25 11.5 17.25H17.25V11.5Z" fill="#75F94C"/>
</svg>
