<svg width="107" height="113" viewBox="0 0 107 113" fill="none" xmlns="http://www.w3.org/2000/svg">
<path d="M90.7201 56.0078C91.7567 58.9252 94.5362 61.0234 97.8047 61.0234C101.953 61.0234 105.328 57.6479 105.328 53.5C105.328 49.3521 101.953 45.9766 97.8047 45.9766C94.537 45.9766 91.7567 48.0748 90.7201 50.9922H86.9375V40.9609H93.625C97.3123 40.9609 100.312 37.9608 100.312 34.2734V32.1627C103.23 31.1261 105.328 28.3466 105.328 25.0781C105.328 20.9302 101.953 17.5547 97.8047 17.5547C93.6568 17.5547 90.2812 20.9302 90.2812 25.0781C90.2812 28.3458 92.3795 31.1261 95.2969 32.1627V34.2734C95.2969 35.1955 94.547 35.9453 93.625 35.9453H86.9375C86.9375 27.1872 79.8128 20.0625 71.0547 20.0625V13.375C71.0547 12.453 71.8045 11.7031 72.7266 11.7031H74.8373C75.8739 14.6205 78.6534 16.7188 81.9219 16.7188C86.0698 16.7188 89.4453 13.3432 89.4453 9.19531C89.4453 5.04739 86.0698 1.67188 81.9219 1.67188C78.6542 1.67188 75.8739 3.77008 74.8373 6.6875H72.7266C69.0392 6.6875 66.0391 9.68768 66.0391 13.375V20.0625H56.0078V16.2799C58.9252 15.2433 61.0234 12.4638 61.0234 9.19531C61.0234 5.04739 57.6479 1.67188 53.5 1.67188C49.3521 1.67188 45.9766 5.04739 45.9766 9.19531C45.9766 12.463 48.0748 15.2433 50.9922 16.2799V20.0625H40.9609V13.375C40.9609 9.68768 37.9608 6.6875 34.2734 6.6875H32.1627C31.1261 3.77008 28.3458 1.67188 25.0781 1.67188C20.9302 1.67188 17.5547 5.04739 17.5547 9.19531C17.5547 13.3432 20.9302 16.7188 25.0781 16.7188C28.3458 16.7188 31.1261 14.6205 32.1627 11.7031H34.2734C35.1955 11.7031 35.9453 12.453 35.9453 13.375V20.0625C27.1872 20.0625 20.0625 27.1872 20.0625 35.9453H13.375C12.453 35.9453 11.7031 35.1955 11.7031 34.2734V32.1627C14.6205 31.1261 16.7188 28.3466 16.7188 25.0781C16.7188 20.9302 13.3432 17.5547 9.19531 17.5547C5.04739 17.5547 1.67188 20.9302 1.67188 25.0781C1.67188 28.3458 3.77008 31.1261 6.6875 32.1627V34.2734C6.6875 37.9608 9.68768 40.9609 13.375 40.9609H20.0625V50.9922H16.2799C15.2433 48.0748 12.4638 45.9766 9.19531 45.9766C5.04739 45.9766 1.67188 49.3521 1.67188 53.5C1.67188 57.6479 5.04739 61.0234 9.19531 61.0234C12.463 61.0234 15.2433 58.9252 16.2799 56.0078H20.0625V66.0391H13.375C9.68768 66.0391 6.6875 69.0392 6.6875 72.7266V74.8373C3.77008 75.8739 1.67188 78.6542 1.67188 81.9219C1.67188 86.0698 5.04739 89.4453 9.19531 89.4453C13.3432 89.4453 16.7188 86.0698 16.7188 81.9219C16.7188 78.6542 14.6205 75.8739 11.7031 74.8373V72.7266C11.7031 71.8045 12.453 71.0547 13.375 71.0547H20.0625C20.0625 79.8128 27.1872 86.9375 35.9453 86.9375V93.625C35.9453 94.547 35.1955 95.2969 34.2734 95.2969H32.1627C31.1261 92.3795 28.3466 90.2812 25.0781 90.2812C20.9302 90.2812 17.5547 93.6568 17.5547 97.8047C17.5547 101.953 20.9302 105.328 25.0781 105.328C28.3458 105.328 31.1261 103.23 32.1627 100.312H34.2734C37.9608 100.312 40.9609 97.3123 40.9609 93.625V86.9375H50.9922V90.7201C48.0748 91.7567 45.9766 94.5362 45.9766 97.8047C45.9766 101.953 49.3521 105.328 53.5 105.328C57.6479 105.328 61.0234 101.953 61.0234 97.8047C61.0234 94.537 58.9252 91.7567 56.0078 90.7201V86.9375H66.0391V93.625C66.0391 97.3123 69.0392 100.312 72.7266 100.312H74.8373C75.8739 103.23 78.6534 105.328 81.9219 105.328C86.0698 105.328 89.4453 101.953 89.4453 97.8047C89.4453 93.6568 86.0698 90.2812 81.9219 90.2812C78.6542 90.2812 75.8739 92.3795 74.8373 95.2969H72.7266C71.8045 95.2969 71.0547 94.547 71.0547 93.625V86.9375C79.8128 86.9375 86.9375 79.8128 86.9375 71.0547H93.625C94.547 71.0547 95.2969 71.8045 95.2969 72.7266V74.8373C92.3795 75.8739 90.2812 78.6534 90.2812 81.9219C90.2812 86.0698 93.6568 89.4453 97.8047 89.4453C101.953 89.4453 105.328 86.0698 105.328 81.9219C105.328 78.6542 103.23 75.8739 100.312 74.8373V72.7266C100.312 69.0392 97.3123 66.0391 93.625 66.0391H86.9375V56.0078H90.7201ZM97.8047 50.9922C99.1873 50.9922 100.312 52.1174 100.312 53.5C100.312 54.8826 99.1873 56.0078 97.8047 56.0078C96.422 56.0078 95.2969 54.8826 95.2969 53.5C95.2969 52.1174 96.422 50.9922 97.8047 50.9922ZM97.8047 22.5703C99.1873 22.5703 100.312 23.6955 100.312 25.0781C100.312 26.4608 99.1873 27.5859 97.8047 27.5859C96.422 27.5859 95.2969 26.4608 95.2969 25.0781C95.2969 23.6955 96.422 22.5703 97.8047 22.5703ZM81.9219 6.6875C83.3045 6.6875 84.4297 7.81267 84.4297 9.19531C84.4297 10.578 83.3045 11.7031 81.9219 11.7031C80.5392 11.7031 79.4141 10.578 79.4141 9.19531C79.4141 7.81267 80.5392 6.6875 81.9219 6.6875ZM53.5 6.6875C54.8826 6.6875 56.0078 7.81267 56.0078 9.19531C56.0078 10.578 54.8826 11.7031 53.5 11.7031C52.1174 11.7031 50.9922 10.578 50.9922 9.19531C50.9922 7.81267 52.1174 6.6875 53.5 6.6875ZM25.0781 11.7031C23.6955 11.7031 22.5703 10.578 22.5703 9.19531C22.5703 7.81267 23.6955 6.6875 25.0781 6.6875C26.4608 6.6875 27.5859 7.81267 27.5859 9.19531C27.5859 10.578 26.4608 11.7031 25.0781 11.7031ZM9.19531 22.5703C10.578 22.5703 11.7031 23.6955 11.7031 25.0781C11.7031 26.4608 10.578 27.5859 9.19531 27.5859C7.81267 27.5859 6.6875 26.4608 6.6875 25.0781C6.6875 23.6955 7.81267 22.5703 9.19531 22.5703ZM9.19531 56.0078C7.81267 56.0078 6.6875 54.8826 6.6875 53.5C6.6875 52.1174 7.81267 50.9922 9.19531 50.9922C10.578 50.9922 11.7031 52.1174 11.7031 53.5C11.7031 54.8826 10.578 56.0078 9.19531 56.0078ZM9.19531 84.4297C7.81267 84.4297 6.6875 83.3045 6.6875 81.9219C6.6875 80.5392 7.81267 79.4141 9.19531 79.4141C10.578 79.4141 11.7031 80.5392 11.7031 81.9219C11.7031 83.3045 10.578 84.4297 9.19531 84.4297ZM25.0781 100.312C23.6955 100.312 22.5703 99.1873 22.5703 97.8047C22.5703 96.422 23.6955 95.2969 25.0781 95.2969C26.4608 95.2969 27.5859 96.422 27.5859 97.8047C27.5859 99.1873 26.4608 100.312 25.0781 100.312ZM53.5 100.312C52.1174 100.312 50.9922 99.1873 50.9922 97.8047C50.9922 96.422 52.1174 95.2969 53.5 95.2969C54.8826 95.2969 56.0078 96.422 56.0078 97.8047C56.0078 99.1873 54.8826 100.312 53.5 100.312ZM81.9219 95.2969C83.3045 95.2969 84.4297 96.422 84.4297 97.8047C84.4297 99.1873 83.3045 100.312 81.9219 100.312C80.5392 100.312 79.4141 99.1873 79.4141 97.8047C79.4141 96.422 80.5392 95.2969 81.9219 95.2969ZM97.8047 84.4297C96.422 84.4297 95.2969 83.3045 95.2969 81.9219C95.2969 80.5392 96.422 79.4141 97.8047 79.4141C99.1873 79.4141 100.312 80.5392 100.312 81.9219C100.312 83.3045 99.1873 84.4297 97.8047 84.4297ZM81.9219 71.0547C81.9219 77.0467 77.0467 81.9219 71.0547 81.9219H35.9453C29.9533 81.9219 25.0781 77.0467 25.0781 71.0547V35.9453C25.0781 29.9533 29.9533 25.0781 35.9453 25.0781H71.0547C77.0467 25.0781 81.9219 29.9533 81.9219 35.9453V71.0547Z" fill="#177E74"/>
<path d="M69.9944 32.6606C59.5159 27.6709 47.4943 27.67 37.0142 32.6606C35.1141 33.565 33.5693 35.109 32.6648 37.0099C27.6742 47.4901 27.6742 59.5109 32.6648 69.9902C33.5693 71.8903 35.1132 73.4351 37.0142 74.3396C42.2538 76.8348 47.8788 78.0829 53.5047 78.0829C59.1297 78.0829 64.7548 76.8348 69.9944 74.3396C71.8945 73.4351 73.4393 71.8911 74.3438 69.9902C79.3343 59.51 79.3343 47.4893 74.3438 37.0099C73.4385 35.109 71.8945 33.565 69.9944 32.6606ZM69.8139 67.8343C69.4034 68.6978 68.7012 69.3992 67.8377 69.8105C58.7285 74.1481 48.2793 74.1473 39.1692 69.8096C38.3057 69.3992 37.6043 68.697 37.1931 67.8335C32.8554 58.7243 32.8554 48.275 37.1939 39.165C37.6043 38.3015 38.3065 37.6001 39.1701 37.1888C43.7242 35.0196 48.6136 33.9354 53.5039 33.9354C58.3941 33.9354 63.2835 35.0196 67.8377 37.1888C68.7012 37.5993 69.4034 38.3015 69.8147 39.165C74.1524 48.275 74.1524 58.7243 69.8139 67.8343Z" fill="#177E74"/>
<path d="M50.8412 43.4479C50.4809 42.4564 49.5396 41.7969 48.4847 41.7969C47.4297 41.7969 46.4885 42.4564 46.1282 43.4479L39.4407 61.8385C38.9675 63.14 39.6388 64.5787 40.9403 65.0527C42.2394 65.525 43.6814 64.8545 44.1545 63.553L44.7698 61.8594H52.1996L52.8157 63.5521C53.186 64.5712 54.1482 65.204 55.1722 65.204C55.4564 65.204 55.7465 65.1546 56.029 65.0518C57.3306 64.5787 58.0018 63.1392 57.5287 61.8376L50.8412 43.4479ZM46.5938 56.8438L48.4847 51.6425L50.3756 56.8438H46.5938ZM63.5315 41.7969C62.1464 41.7969 61.0237 42.9195 61.0237 44.3047V62.6953C61.0237 64.0805 62.1464 65.2031 63.5315 65.2031C64.9167 65.2031 66.0394 64.0805 66.0394 62.6953V44.3047C66.0394 42.9195 64.9167 41.7969 63.5315 41.7969Z" fill="#177E74"/>
</svg>
