<svg width="101" height="106" viewBox="0 0 101 106" fill="none" xmlns="http://www.w3.org/2000/svg">
<g clip-path="url(#clip0_5853_21889)">
<path d="M74.5736 13.25L68.6273 5.15867C67.4427 3.55898 65.9269 2.26317 64.1945 1.36941C62.4621 0.475637 60.5586 0.00734511 58.6283 0L42.3673 0C40.4369 0.00734511 38.5334 0.475637 36.801 1.36941C35.0686 2.26317 33.5528 3.55898 32.3683 5.15867L26.4219 13.25H74.5736Z" fill="#6C246C"/>
<path d="M50.4974 79.4994C59.7942 79.4994 67.3307 71.5897 67.3307 61.8327C67.3307 52.0757 59.7942 44.166 50.4974 44.166C41.2006 44.166 33.6641 52.0757 33.6641 61.8327C33.6641 71.5897 41.2006 79.4994 50.4974 79.4994Z" fill="#6C246C"/>
<path d="M79.9583 22.084H21.0417C15.4631 22.091 10.115 24.4199 6.17034 28.5598C2.22571 32.6997 0.00668223 38.3126 0 44.1673L0 83.9173C0.00668223 89.772 2.22571 95.3849 6.17034 99.5249C10.115 103.665 15.4631 105.994 21.0417 106.001H79.9583C85.5369 105.994 90.885 103.665 94.8297 99.5249C98.7743 95.3849 100.993 89.772 101 83.9173V44.1673C100.993 38.3126 98.7743 32.6997 94.8297 28.5598C90.885 24.4199 85.5369 22.091 79.9583 22.084ZM50.5 88.334C45.506 88.334 40.6242 86.7798 36.4719 83.8679C32.3195 80.9561 29.0832 76.8173 27.172 71.9751C25.2609 67.1329 24.7609 61.8046 25.7352 56.6641C26.7094 51.5236 29.1143 46.8017 32.6456 43.0957C36.1768 39.3896 40.676 36.8657 45.574 35.8432C50.472 34.8207 55.5489 35.3455 60.1628 37.3512C64.7766 39.3569 68.7201 42.7535 71.4946 47.1114C74.2691 51.4693 75.75 56.5928 75.75 61.834C75.7433 68.8601 73.0809 75.5964 68.3471 80.5646C63.6132 85.5328 57.1947 88.327 50.5 88.334Z" fill="#6C246C"/>
</g>
<defs>
<clipPath id="clip0_5853_21889">
<rect width="101" height="106" fill="white"/>
</clipPath>
</defs>
</svg>
