<svg width="60" height="60" viewBox="0 0 60 60" fill="none" xmlns="http://www.w3.org/2000/svg">
<path d="M29.6 59.2C45.9476 59.2 59.2 45.9476 59.2 29.6C59.2 13.2524 45.9476 0 29.6 0C13.2524 0 0 13.2524 0 29.6C0 45.9476 13.2524 59.2 29.6 59.2Z" fill="#22FF00"/>
<path d="M25.6807 44.1512C24.923 44.1512 24.1652 43.8626 23.588 43.2839L12.3903 32.0862C11.2345 30.9304 11.2345 29.0567 12.3903 27.9008C13.5462 26.7449 15.4199 26.7449 16.5758 27.9008L25.6807 37.0058L42.6267 20.0612C43.7826 18.9054 45.6563 18.9054 46.8122 20.0612C47.9681 21.2171 47.9681 23.0908 46.8122 24.2467L27.7735 43.2839C27.1963 43.8626 26.4385 44.1512 25.6807 44.1512Z" fill="white"/>
<path d="M54.0243 31.0795C53.2073 31.0795 52.5443 30.4165 52.5443 29.5995C52.5443 22.8315 49.5754 16.4409 44.3999 12.0675C43.7753 11.5406 43.6969 10.6067 44.2252 9.98215C44.7521 9.35759 45.686 9.27915 46.3105 9.80603C52.1536 14.7433 55.5043 21.9583 55.5043 29.5995C55.5043 30.4165 54.8413 31.0795 54.0243 31.0795Z" fill="#55ED3E"/>
<path d="M53.4331 35.8155C54.2505 35.8155 54.9131 35.1528 54.9131 34.3355C54.9131 33.5181 54.2505 32.8555 53.4331 32.8555C52.6157 32.8555 51.9531 33.5181 51.9531 34.3355C51.9531 35.1528 52.6157 35.8155 53.4331 35.8155Z" fill="#55ED3E"/>
</svg>
