<svg width="60" height="60" viewBox="0 0 60 60" fill="none" xmlns="http://www.w3.org/2000/svg">
<path d="M29.6 59.2C45.9476 59.2 59.2 45.9476 59.2 29.6C59.2 13.2524 45.9476 0 29.6 0C13.2524 0 0 13.2524 0 29.6C0 45.9476 13.2524 59.2 29.6 59.2Z" fill="#AAAAAA"/>
<path d="M25.6729 44.1512C24.9152 44.1512 24.1574 43.8626 23.5802 43.2839L12.3825 32.0862C11.2267 30.9304 11.2267 29.0567 12.3825 27.9008C13.5384 26.7449 15.4121 26.7449 16.568 27.9008L25.6729 37.0058L42.6189 20.0612C43.7748 18.9054 45.6485 18.9054 46.8044 20.0612C47.9603 21.2171 47.9603 23.0908 46.8044 24.2467L27.7657 43.2839C27.1885 43.8626 26.4307 44.1512 25.6729 44.1512Z" fill="white"/>
<path d="M54.0243 31.0805C53.2073 31.0805 52.5443 30.4175 52.5443 29.6005C52.5443 22.8325 49.5754 16.4418 44.3999 12.0684C43.7753 11.5416 43.6969 10.6077 44.2252 9.98312C44.7521 9.35856 45.686 9.28012 46.3105 9.807C52.1536 14.7443 55.5043 21.9593 55.5043 29.6005C55.5043 30.4175 54.8413 31.0805 54.0243 31.0805Z" fill="#959595"/>
<path d="M53.4331 35.8164C54.2505 35.8164 54.9131 35.1538 54.9131 34.3364C54.9131 33.5191 54.2505 32.8564 53.4331 32.8564C52.6157 32.8564 51.9531 33.5191 51.9531 34.3364C51.9531 35.1538 52.6157 35.8164 53.4331 35.8164Z" fill="#959595"/>
</svg>
