<svg width="62" height="62" viewBox="0 0 62 62" fill="none" xmlns="http://www.w3.org/2000/svg">
<path d="M31 0C13.8764 0 0 13.8802 0 31C0 48.1198 13.8764 62 31 62C48.1236 62 62 48.1198 62 31C62 13.8802 48.1236 0 31 0ZM45.3646 39.8854C46.0912 40.612 46.4994 41.5974 46.4994 42.625C46.4994 43.6526 46.0912 44.638 45.3646 45.3646C44.638 46.0912 43.6526 46.4994 42.625 46.4994C41.5974 46.4994 40.612 46.0912 39.8854 45.3646L31 36.4792L22.1146 45.3646C21.7556 45.7257 21.3287 46.0123 20.8586 46.2078C20.3884 46.4033 19.8842 46.504 19.375 46.504C18.8658 46.504 18.3616 46.4033 17.8914 46.2078C17.4213 46.0123 16.9944 45.7257 16.6354 45.3646C16.2752 45.0051 15.9895 44.578 15.7945 44.1079C15.5996 43.6378 15.4992 43.1339 15.4992 42.625C15.4992 42.1161 15.5996 41.6122 15.7945 41.1421C15.9895 40.672 16.2752 40.2449 16.6354 39.8854L25.5208 31L16.6354 22.1146C15.9088 21.388 15.5006 20.4026 15.5006 19.375C15.5006 18.3474 15.9088 17.362 16.6354 16.6354C17.362 15.9088 18.3474 15.5006 19.375 15.5006C20.4026 15.5006 21.388 15.9088 22.1146 16.6354L31 25.5208L39.8854 16.6354C40.612 15.9088 41.5974 15.5006 42.625 15.5006C43.6526 15.5006 44.638 15.9088 45.3646 16.6354C46.0912 17.362 46.4994 18.3474 46.4994 19.375C46.4994 20.4026 46.0912 21.388 45.3646 22.1146L36.4792 31L45.3646 39.8854Z" fill="#FF0000"/>
</svg>
