<svg width="67" height="81" viewBox="0 0 67 81" fill="none" xmlns="http://www.w3.org/2000/svg">
<path d="M0 0H67V51C67 67.5685 53.5685 81 37 81H0V0Z" fill="#FF679E"/>
<path d="M40.3748 42.8981H47.9043L34.4265 58.533C34.1481 58.8326 33.7823 58.9991 33.4025 58.9991C33.0227 58.9991 32.657 58.8326 32.3785 58.533L19.4277 43.5095L18.9007 42.8981H25.8278C26.0386 42.899 26.2453 42.8305 26.4239 42.7006C26.6024 42.5708 26.7457 42.3848 26.8368 42.1643L27.5596 40.4174L30.0895 46.4618C30.186 46.678 30.3318 46.8593 30.511 46.9859C30.6903 47.1124 30.8961 47.1793 31.106 47.1793C31.3158 47.1793 31.5217 47.1124 31.7009 46.9859C31.8802 46.8593 32.026 46.678 32.1224 46.4618L36.7456 35.6309L39.3056 42.077C39.3945 42.3207 39.5433 42.5285 39.7335 42.6746C39.9237 42.8206 40.1468 42.8984 40.3748 42.8981V42.8981Z" fill="#FFCAD5"/>
<path d="M51.9398 33.4646C51.9452 35.9062 51.2689 38.2842 50.0122 40.2427H41.0822L37.8295 32.0845C37.7405 31.8608 37.5983 31.6712 37.4195 31.5382C37.2407 31.4051 37.0329 31.334 36.8205 31.3334C36.6102 31.3355 36.4042 31.403 36.2241 31.529C36.044 31.655 35.8963 31.8348 35.7965 32.0496L31.1433 42.898L28.6736 36.8537C28.5675 36.6512 28.4183 36.4838 28.2403 36.3677C28.0622 36.2516 27.8614 36.1906 27.6572 36.1906C27.4529 36.1906 27.2521 36.2516 27.0741 36.3677C26.896 36.4838 26.7468 36.6512 26.6407 36.8537L25.2251 40.2427H16.9276C15.6709 38.2842 14.9946 35.9062 15 33.4646C14.9992 31.1974 15.5781 28.9808 16.6636 27.0954C17.749 25.2099 19.2922 23.7403 21.0978 22.8726C22.9034 22.0048 24.8903 21.7779 26.8072 22.2205C28.724 22.6631 30.4846 23.7552 31.8661 25.3589L32.7546 26.3896C32.9585 26.6119 33.2278 26.7357 33.5076 26.7357C33.7874 26.7357 34.0567 26.6119 34.2605 26.3896L35.1339 25.3589C36.5155 23.7552 38.2761 22.6631 40.193 22.2205C42.1098 21.7779 44.0967 22.0048 45.9023 22.8726C47.7079 23.7403 49.251 25.2099 50.3365 27.0954C51.4219 28.9808 52.0008 31.1974 52 33.4646H51.9398Z" fill="#FFCAD5"/>
</svg>
