<svg width="70" height="69" viewBox="0 0 70 69" fill="none" xmlns="http://www.w3.org/2000/svg">
<rect y="0.549805" width="70" height="67.9" fill="#FF0000" fill-opacity="0.01"/>
<path fill-rule="evenodd" clip-rule="evenodd" d="M45.9442 57.6772C42.5923 59.0091 38.8904 59.7534 35 59.7534C19.5327 59.7534 7 48.0276 7 33.5466C7 19.0787 19.5327 7.33984 35 7.33984C50.4673 7.33984 63 19.0787 62.9731 33.5727C62.9731 38.7828 61.3442 43.6402 58.5308 47.7273C58.4096 47.8709 58.3019 48.0407 58.1942 48.2104C57.8712 48.7719 57.6692 49.4248 57.6692 50.1168L60.6442 61.6598L49.3365 57.625C48.8385 57.4161 48.2865 57.3116 47.7077 57.3116C47.1827 57.3116 46.6712 57.403 46.2 57.5728C46.2 57.5858 46.1865 57.5858 46.1731 57.5858C46.0923 57.612 46.025 57.6381 45.9442 57.6772ZM52.2308 34.4998C52.2308 32.1886 50.3058 30.3214 47.9231 30.3214C45.5404 30.3214 43.6154 32.1886 43.6154 34.4998C43.6154 36.8111 45.5404 38.6783 47.9231 38.6783C50.3058 38.6783 52.2308 36.8111 52.2308 34.4998ZM35 30.3214C37.3827 30.3214 39.3077 32.1886 39.3077 34.4998C39.3077 36.8111 37.3827 38.6783 35 38.6783C32.6173 38.6783 30.6923 36.8111 30.6923 34.4998C30.6923 32.1886 32.6173 30.3214 35 30.3214ZM26.3846 34.4998C26.3846 32.1886 24.4596 30.3214 22.0769 30.3214C19.6942 30.3214 17.7692 32.1886 17.7692 34.4998C17.7692 36.8111 19.6942 38.6783 22.0769 38.6783C24.4596 38.6783 26.3846 36.8111 26.3846 34.4998Z" fill="black"/>
<mask id="mask0_5440_18913" style="mask-type:luminance" maskUnits="userSpaceOnUse" x="7" y="7" width="56" height="55">
<path fill-rule="evenodd" clip-rule="evenodd" d="M45.9442 57.6772C42.5923 59.0091 38.8904 59.7534 35 59.7534C19.5327 59.7534 7 48.0276 7 33.5466C7 19.0787 19.5327 7.33984 35 7.33984C50.4673 7.33984 63 19.0787 62.9731 33.5727C62.9731 38.7828 61.3442 43.6402 58.5308 47.7273C58.4096 47.8709 58.3019 48.0407 58.1942 48.2104C57.8712 48.7719 57.6692 49.4248 57.6692 50.1168L60.6442 61.6598L49.3365 57.625C48.8385 57.4161 48.2865 57.3116 47.7077 57.3116C47.1827 57.3116 46.6712 57.403 46.2 57.5728C46.2 57.5858 46.1865 57.5858 46.1731 57.5858C46.0923 57.612 46.025 57.6381 45.9442 57.6772ZM52.2308 34.4998C52.2308 32.1886 50.3058 30.3214 47.9231 30.3214C45.5404 30.3214 43.6154 32.1886 43.6154 34.4998C43.6154 36.8111 45.5404 38.6783 47.9231 38.6783C50.3058 38.6783 52.2308 36.8111 52.2308 34.4998ZM35 30.3214C37.3827 30.3214 39.3077 32.1886 39.3077 34.4998C39.3077 36.8111 37.3827 38.6783 35 38.6783C32.6173 38.6783 30.6923 36.8111 30.6923 34.4998C30.6923 32.1886 32.6173 30.3214 35 30.3214ZM26.3846 34.4998C26.3846 32.1886 24.4596 30.3214 22.0769 30.3214C19.6942 30.3214 17.7692 32.1886 17.7692 34.4998C17.7692 36.8111 19.6942 38.6783 22.0769 38.6783C24.4596 38.6783 26.3846 36.8111 26.3846 34.4998Z" fill="white"/>
</mask>
<g mask="url(#mask0_5440_18913)">
<rect y="0.549805" width="70" height="67.9" fill="white"/>
</g>
</svg>
