<svg width="37" height="37" viewBox="0 0 37 37" fill="none" xmlns="http://www.w3.org/2000/svg">
<path d="M18.5 37C28.7173 37 37 28.7173 37 18.5C37 8.28273 28.7173 0 18.5 0C8.28273 0 0 8.28273 0 18.5C0 28.7173 8.28273 37 18.5 37Z" fill="#22FF00"/>
<path d="M16.0514 27.5941C15.5778 27.5941 15.1042 27.4138 14.7435 27.0521L7.74494 20.0535C7.02252 19.3311 7.02252 18.1601 7.74494 17.4376C8.46737 16.7152 9.63842 16.7152 10.3608 17.4376L16.0514 23.1282L26.6427 12.5379C27.3651 11.8155 28.5362 11.8155 29.2586 12.5379C29.981 13.2603 29.981 14.4314 29.2586 15.1538L17.3594 27.0521C16.9986 27.4138 16.525 27.5941 16.0514 27.5941Z" fill="white"/>
<path d="M33.7574 19.4242C33.2468 19.4242 32.8324 19.0098 32.8324 18.4992C32.8324 14.2692 30.9768 10.2751 27.7421 7.54168C27.3518 7.21238 27.3027 6.6287 27.633 6.23835C27.9623 5.848 28.5459 5.79898 28.9363 6.12828C32.5882 9.21408 34.6824 13.7235 34.6824 18.4992C34.6824 19.0098 34.268 19.4242 33.7574 19.4242Z" fill="#55ED3E"/>
<path d="M33.3937 22.3832C33.9046 22.3832 34.3187 21.9691 34.3187 21.4582C34.3187 20.9473 33.9046 20.5332 33.3937 20.5332C32.8829 20.5332 32.4688 20.9473 32.4688 21.4582C32.4688 21.9691 32.8829 22.3832 33.3937 22.3832Z" fill="#55ED3E"/>
</svg>
